<svg width="4472" height="4350" viewBox="0 0 4472 4350" fill="none" xmlns="http://www.w3.org/2000/svg">
<path d="M3553.19 2533.51C3519 2563.1 3473.91 2577.92 3428.11 2577.24L2244.43 2556.62L3374.45 2538.72C3427.79 2538.04 3480.89 2530.02 3531.2 2512.94C3552.17 2505.83 3573.22 2496.99 3591.48 2486.07C3591.48 2486.07 3581 2509.5 3553.19 2533.51Z" fill="#DDBC04"/>
<path d="M3387.49 2002C3368.49 1930.54 3285.99 1846.35 3285.99 1846.35C3102.4 1781.51 2740.26 1777.11 2740.26 1777.11C2917.05 1753.32 3230.23 1761.7 3313.19 1831.8C3372.35 1881.83 3429.74 1974.49 3457.69 2023.48C3465.19 2036.57 3454.01 2052.2 3438.83 2049.98C3041.05 1991.3 2500.03 2002.68 2500.03 2002.68C2948.73 1933.03 3387.49 2002 3387.49 2002Z" fill="#DDBC04"/>
<path d="M3172.65 2356.43C3094.72 2366.17 2880.76 2373.2 2812.79 2325.17C2812.79 2325.17 3050.74 2344.97 3174.51 2317.19C3298.24 2289.46 3359.4 2470.62 3333.6 2499.75C3307.74 2528.85 3111.95 2519.56 3111.95 2519.56C3111.95 2519.56 3265.12 2509 3290.51 2471.98C3315.89 2434.91 3250.63 2346.73 3172.65 2356.43Z" fill="#DDBC04"/>
<path d="M3614.17 2185.38C3614.17 2185.38 3652.23 2310.62 3543.45 2348.5C3434.68 2386.43 3311.38 2321.18 3311.38 2321.18C3311.38 2321.18 3481.78 2352.94 3535.49 2300.7C3589.2 2248.41 3559.99 2218.68 3559.99 2218.68C3559.99 2218.68 3496.08 2203.46 3437.62 2255.02C3379.11 2306.63 3273.74 2257.7 3273.74 2257.7C3273.74 2257.7 3383.91 2241.84 3447.35 2191.54C3510.8 2141.29 3614.17 2185.38 3614.17 2185.38Z" fill="#DDBC04"/>
<mask id="mask0_11_2" style="mask-type:luminance" maskUnits="userSpaceOnUse" x="2037" y="1705" width="1732" height="961">
<path d="M2037.74 1705.2H3768.41V2665.33H2037.74V1705.2Z" fill="white"/>
</mask>
<g mask="url(#mask0_11_2)">
<path d="M3638.02 2613.44C3669.14 2613.22 3694.57 2589.2 3695.6 2558.93C3699.65 2442.03 3698.02 2273.55 3698.02 2273.55C3653.48 2202.46 3602.38 2150.98 3602.38 2150.98C3655.86 2064.57 3489.05 2051.34 3489.05 2051.34C3442.83 1941.14 3339.42 1822.97 3339.42 1822.97C3183.46 1713.63 2704.02 1727.31 2704.02 1727.31C3007.23 1682.32 3303.64 1727.31 3363.5 1780.19C3423.32 1833.12 3507.63 1997.1 3507.63 1997.1C3507.63 1997.1 3605.55 2026.24 3640.91 2055.78C3676.26 2085.33 3664.01 2151.89 3664.01 2151.89C3712.97 2199.47 3736.54 2249.77 3736.54 2249.77L3756.48 2565.41C3765.52 2660.66 3707.52 2667.73 3707.52 2667.73L2037.74 2627.13L3638.02 2613.44Z" fill="#DDBC04"/>
</g>
<path d="M3675.8 2101.59C3675.8 2101.59 3684.42 2061.81 3649.06 2041.83C3649.06 2041.83 3692.57 2045.63 3727.46 2057.1C3762.35 2068.56 3752.85 2008.16 3699.37 2008.57C3645.89 2009.02 3610.53 2017.4 3610.53 2017.4C3610.53 2017.4 3567.4 1994.52 3525.75 1983.87C3525.75 1983.87 3681.2 1947.3 3750.14 1978.16C3819 2009.02 3799.2 2106.03 3757.41 2116.59C3715.67 2127.2 3675.8 2101.59 3675.8 2101.59Z" fill="#DDBC04"/>
<path d="M912.94 2507.19L920.021 2505.56H971.262L978.343 2502.66L979.647 2499.21L981.324 2491.24L982.442 2483.26L985.983 2467.13L988.964 2454.44L988.405 2449.91L990.268 2441.94L991.386 2437.41L994.368 2425.26L996.045 2417.83L996.604 2413.84L999.026 2406.41L1000.7 2397.17L1002.57 2389.19L1002.01 2385.21L1002.57 2381.76L1003.13 2377.78L1005.55 2370.89L1006.11 2366.9L1007.22 2363.46L1007.78 2360.01V2354.21L1009.09 2349.14L1010.77 2340.44L1012.63 2332.46V2329.02L1013.75 2325.58L1014.31 2317.6L1016.73 2313.43L1018.4 2306.54L1019.15 2299.11V2295.13L1020.83 2291.68L1022.69 2283.71L1023.81 2279.72L1024.93 2271.02L1027.91 2264.13V2260.14L1028.47 2256.7L1029.03 2249.81V2246.37L1031.45 2238.94L1034.43 2230.96L1033.13 2228.06L1035.55 2223.53L1037.97 2213.2L1038.53 2209.21L1039.65 2201.78L1040.95 2198.34V2194.89L1042.63 2190.91L1042.07 2187.46L1043.19 2183.29L1048.59 2182.75L1073.37 2183.29H1079.15L1084.55 2182.75H1091.63L1096.85 2183.29L1102.81 2182.75L1105.05 2177.68L1105.8 2169.52L1106.91 2165.53L1109.15 2158.1L1109.89 2151.21L1110.45 2147.77L1111.57 2143.78L1112.69 2136.89V2133.45L1113.99 2129.46L1114.55 2126.02V2122.03L1115.67 2117.5L1116.23 2113.51V2110.07L1115.11 2105.36L1109.89 2104.27L1101.51 2103.73H1064.99L1059.77 2103.18L1047.29 2103.73L1038.53 2103.18L1000.7 2103.73H987.846L983.747 2103.18H940.145L936.045 2103.73H931.76L928.965 2103.18H913.499L909.4 2103.73L904.182 2107.71L901.201 2114.06L900.642 2117.5V2125.48L898.779 2128.92L896.543 2136.35L895.797 2144.33L894.679 2147.77L892.443 2155.93L893.002 2159.91V2164.44L891.139 2168.98L890.021 2175.86L891.698 2181.12L897.102 2182.75H901.76L907.723 2183.29H912.94L917.039 2182.75L925.424 2183.29H957.101L956.542 2192.54L955.424 2201.06L954.306 2205.23L952.443 2212.66V2216.1L951.884 2220.09V2223.53L951.325 2226.98L948.343 2236.04L947.225 2240.21L946.666 2244.19V2248.73L945.362 2251.63V2257.24L942.381 2263.59L943.126 2267.58L941.263 2276.28L940.145 2279.72V2283.71L937.722 2287.15L936.604 2291.14V2296.39L934.741 2302.01V2309.99L933.623 2313.43L930.642 2320.32L931.76 2324.31L930.642 2328.48L928.219 2336.99L925.424 2344.97L924.12 2349.14L923.561 2353.13L924.679 2358.74L921.884 2364.54L921.139 2372.52L920.021 2375.96L918.903 2383.39L918.344 2387.38L917.039 2391.55L915.362 2400.07L913.499 2406.96V2411.49L910.704 2423.63L911.263 2428.16L910.704 2432.15L907.723 2440.13V2444.29L907.164 2452.27L905.859 2455.71L905.3 2464.23L904.182 2468.22L900.083 2480.36L899.338 2492.33L898.22 2501.03L903.623 2505.56H907.723L912.94 2507.19Z" fill="#DDBC04"/>
<path d="M1147.57 2506.64L1152.23 2506.1L1160.98 2505.56L1166.39 2505.01L1172.16 2505.56L1174.03 2500.48L1175.7 2496.31L1176.45 2489.43L1177.01 2485.44V2481.99L1177.57 2478.01L1178.13 2470.58V2467.13L1179.24 2463.14L1178.68 2459.7L1180.55 2451.73V2447.01L1181.67 2443.57L1182.23 2439.04L1184.65 2427.08L1185.77 2422.36V2410.4L1188.19 2405.87L1189.31 2397.71V2394.27L1190.42 2386.29L1193.41 2378.86V2369.08L1195.27 2357.11L1195.83 2352.4L1197.5 2344.43L1198.81 2340.98L1199.37 2338.81L1203.47 2339.35L1205.89 2341.53L1208.13 2346.24L1209.43 2350.77L1211.67 2355.3L1212.97 2361.1L1214.65 2369.08L1215.77 2371.98L1216.51 2379.95L1218.75 2387.38L1220.05 2394.99L1221.17 2398.98L1223.59 2405.87L1224.15 2409.86L1227.69 2420.19V2427.08L1229.93 2432.69L1231.79 2439.04L1232.35 2443.03L1234.03 2446.47V2450.46L1235.89 2454.44L1237.01 2462.06L1238.31 2463.69L1239.99 2468.22V2472.93L1243.53 2481.45L1245.39 2487.79L1246.51 2490.69L1248.19 2497.58L1249.49 2500.48L1254.71 2505.56L1258.25 2506.1L1263.65 2505.56H1268.31L1274.83 2505.01H1282.47L1297.75 2503.2L1310.24 2501.57H1317.88L1324.21 2500.48L1327.19 2499.76L1329.06 2492.33L1324.96 2481.45L1323.65 2476.38L1323.09 2472.39L1322.53 2465.5L1318.43 2455.71L1317.13 2447.74L1310.8 2427.08L1309.49 2419.64L1306.7 2410.94V2407.5L1304.27 2400.07L1303.16 2395.54L1301.29 2391.55L1300.17 2383.39L1298.87 2379.95L1297.19 2372.52L1295.33 2369.08L1294.21 2361.64L1293.65 2357.11L1291.23 2353.67L1290.11 2346.24V2340.98L1287.13 2332.46L1285.45 2327.75V2322.68L1289.55 2322.13L1297.75 2318.14L1309.49 2310.71L1320.67 2299.11L1327.19 2291.68L1329.06 2288.24L1333.71 2280.81L1336.14 2275.73L1337.81 2271.56L1343.22 2264.13L1346.01 2257.24L1347.88 2253.26L1348.99 2249.81L1350.3 2245.83L1352.53 2238.94L1354.4 2233.32L1355.52 2224.08L1357.38 2214.83V2210.84L1356.63 2202.33L1357.38 2198.34L1359.06 2190.18V2185.65L1357.38 2174.78V2170.79L1356.07 2159.91L1354.4 2150.67L1350.3 2142.69L1346.01 2135.81L1343.78 2132.91L1340.8 2129.46L1338.37 2127.11L1331.29 2123.12L1328.5 2121.49L1324.96 2119.68L1319.55 2116.23L1315.45 2115.14L1310.24 2112.79L1303.71 2110.07L1298.87 2108.8H1289.55L1283.03 2107.71L1274.27 2107.17L1266.45 2105.9H1261.23L1252.47 2104.81L1247.63 2103.73L1241.85 2104.27L1237.57 2104.81H1212.22L1177.01 2104.27H1168.62L1162.85 2105.36L1158.75 2110.07L1156.32 2112.79L1156.88 2119.13L1154.46 2123.66V2128.38L1153.9 2132.36L1153.34 2136.89L1150.92 2153.03L1149.24 2162.09L1147.57 2168.98L1146.26 2172.96V2176.41L1145.7 2184.02V2187.46L1145.14 2190.91L1143.28 2198.88L1141.6 2207.94L1139.74 2216.1L1139.18 2219.54L1138.62 2227.52L1136.2 2234.41L1135.64 2237.85V2241.84L1135.08 2245.28L1133.96 2252.71L1133.41 2256.7L1132.66 2260.14V2264.13L1129.87 2276.28V2280.81L1128.56 2288.78L1127.44 2296.39L1126.88 2299.66L1125.58 2306L1124.46 2309.99V2313.43L1122.78 2316.88L1121.48 2321.04L1120.92 2327.75L1121.48 2331.19L1120.36 2334.64L1117.38 2338.81V2343.88L1116.82 2348.41L1116.26 2352.4L1113.84 2360.56V2365.09L1113.28 2373.79L1112.16 2379.41V2384.66L1109.18 2394.99V2403.51L1106.76 2408.04L1107.32 2412.76L1106.76 2416.74L1105.64 2421.28L1105.08 2429.25L1103.22 2433.96L1103.78 2437.95L1102.1 2442.48V2446.47L1100.24 2454.44L1099.68 2458.61V2462.06L1098 2466.04V2470.03L1096.7 2473.48V2477.46L1096.14 2483.81L1095.58 2489.43L1093.9 2495.23V2500.48L1095.02 2503.93L1100.24 2505.01L1118.69 2506.1H1126.33L1147.57 2506.64ZM1224.15 2270.48L1214.09 2269.39L1214.65 2264.86L1214.09 2260.69L1214.65 2256.7L1216.51 2247.64L1217.63 2242.38L1217.07 2237.31L1218.75 2232.05L1220.05 2223.53V2219.54L1221.73 2210.3L1222.85 2205.77L1223.59 2198.34L1224.15 2189.64L1225.27 2180.58L1227.13 2176.41L1228.81 2170.24L1234.03 2168.43L1248.19 2168.98L1261.23 2170.79L1266.45 2173.69L1270.73 2177.68L1273.53 2182.75L1275.39 2194.89L1275.95 2207.4L1275.39 2216.64L1273.53 2221.18V2225.71L1269.43 2233.86L1268.87 2237.31L1267.75 2241.84L1264.77 2249.27L1260.67 2252.71L1258.25 2256.16L1254.15 2260.69L1250.05 2263.04L1244.09 2266.49L1240.55 2268.84L1233.47 2270.48H1224.15Z" fill="#DDBC04"/>
<path d="M1394.3 2506.64L1399.14 2506.1L1415.54 2506.64L1419.08 2504.47L1421.5 2500.48L1423.18 2497.58L1425.04 2491.24L1428.58 2482.54L1434.36 2471.66L1436.78 2464.78L1438.46 2460.79L1439.76 2456.8L1443.86 2449.37L1446.85 2443.03H1462.68L1488.58 2443.57L1498.09 2444.84L1510.94 2445.38L1511.69 2449.91V2476.92L1510.94 2482.54L1511.69 2488.34L1512.25 2498.67L1513.37 2504.47L1515.79 2506.1H1524.55L1532.19 2506.64L1538.15 2506.1L1542.25 2505.56L1549.33 2506.1H1553.99L1567.03 2505.56H1575.23L1580.07 2506.1L1584.17 2505.56C1586.41 2505.56 1588.27 2506.1 1590.51 2505.56C1593.49 2503.93 1592.93 2498.67 1592.37 2496.31V2484.35L1591.81 2471.66V2466.59L1591.25 2462.06L1591.81 2453.9V2445.38L1591.25 2441.39L1590.51 2433.96V2430.52L1589.39 2408.59L1589.95 2404.6L1589.39 2396.63L1589.95 2388.11L1589.39 2379.41V2375.42L1588.83 2349.14V2331.92L1588.27 2327.21L1587.71 2320.32V2298.03L1586.41 2291.68L1585.85 2282.62V2279.18L1585.29 2271.56L1585.85 2268.3L1585.29 2260.14V2248.73L1584.17 2240.75V2228.06L1584.73 2224.08L1584.17 2215.56V2207.4L1582.87 2195.98L1582.31 2188.55V2180.58L1581.75 2159.91V2149.58L1580.63 2146.14V2133.45L1578.77 2108.8L1574.67 2105.9L1571.69 2104.81H1562.37L1556.97 2105.36L1552.87 2104.27H1547.65L1536.29 2104.81H1526.97L1521.01 2105.36L1509.83 2104.81H1504.05L1499.76 2105.36L1497.53 2111.7L1495.66 2115.14L1493.99 2119.13L1488.58 2129.46L1484.48 2136.89L1480.94 2147.23L1479.83 2150.13L1477.4 2153.57L1473.86 2159.91L1472.75 2163.9L1471.63 2167.34L1469.76 2170.79L1468.65 2174.78L1463.24 2185.11L1461.57 2189.09L1459.7 2194.89L1456.16 2199.97L1454.48 2203.41L1451.5 2210.84L1446.85 2222.99L1444.42 2226.43L1441.44 2230.42L1439.76 2238.39L1436.22 2245.83L1434.92 2248.73L1433.24 2256.16L1430.26 2260.14L1428.58 2267.58L1426.72 2271.02L1423.18 2277.36L1420.2 2287.15L1416.1 2294.58L1414.42 2299.11L1409.58 2315.24L1407.9 2318.69L1404.92 2326.66L1403.24 2330.11L1401.38 2334.09L1400.82 2337.54L1397.28 2345.69L1396.16 2349.68L1392.62 2356.57L1389.64 2361.1L1388.52 2366.18L1387.22 2370.34L1383.12 2378.32L1381.44 2382.31L1378.46 2389.74L1376.6 2393.18L1376.04 2397.17L1374.92 2400.61L1371.94 2407.5L1368.96 2411.49L1367.84 2414.93L1363.18 2425.26L1360.76 2432.69L1354.24 2446.47L1351.26 2453.36L1347.72 2460.24L1341.94 2477.46L1337.09 2484.89L1333.55 2491.78L1333 2495.23L1331.88 2499.21L1333 2503.93L1338.4 2505.01L1381.44 2505.56L1385.54 2506.1L1394.3 2506.64ZM1491.57 2368.53L1486.35 2367.99L1479.83 2367.44H1475.17L1470.88 2364L1472.75 2360.01L1473.86 2354.76L1475.17 2350.77L1477.96 2340.98L1480.39 2336.99L1483.37 2328.48L1483.93 2324.31L1487.47 2311.8L1489.14 2306.54L1491.01 2302.56L1492.68 2297.48L1495.11 2293.49L1495.66 2289.51L1498.09 2283.71L1500.51 2279.18L1503.3 2269.93L1505.17 2264.13L1508.15 2255.07L1510.38 2247.64L1515.23 2245.83L1515.79 2259.06L1515.23 2279.72L1514.48 2301.47L1515.23 2315.24L1513.93 2319.78V2329.56L1513.37 2333.55V2348.41L1512.81 2353.13L1513.37 2357.66L1512.81 2365.63L1509.27 2368.53H1491.57Z" fill="#DDBC04"/>
<path d="M1639.37 2506.64H1701.98L1708.32 2504.47L1710.18 2498.67L1712.6 2491.78L1714.28 2481.45L1715.4 2478.01V2470.58L1716.14 2466.59L1717.82 2459.16L1720.24 2442.48L1721.36 2438.49L1721.92 2435.05L1723.04 2427.08L1725.46 2415.48L1727.88 2406.96L1729 2398.98L1729.56 2395.54L1729 2391.55L1730.12 2387.38L1731.98 2380.49L1730.86 2376.51L1732.54 2369.08L1733.66 2365.63L1736.08 2343.34L1740.18 2315.79L1740.74 2301.47L1742.04 2291.68L1742.6 2285.34L1743.16 2273.92L1743.72 2257.97H1745.58L1749.13 2279.72L1752.67 2300.38L1754.34 2316.33L1757.32 2334.64L1759.75 2350.77L1760.86 2361.64L1763.29 2373.06V2381.76L1763.85 2385.21L1765.52 2393.18L1766.08 2396.63L1767.94 2404.6V2408.04L1769.62 2416.74L1771.49 2423.09L1772.04 2431.61L1773.16 2439.58L1773.72 2443.03L1776.14 2455.17L1776.7 2458.61L1778.01 2470.58L1778.57 2474.02L1779.12 2480.91L1779.68 2483.81L1782.67 2491.78L1787.32 2501.03L1792.17 2505.01H1802.04L1809.68 2505.56H1821.61L1825.15 2505.01L1830.93 2505.56L1835.02 2505.01L1846.39 2505.56H1848.63L1855.15 2504.47L1863.35 2503.93L1869.31 2499.76L1874.53 2492.87L1877.51 2474.56L1879.37 2467.13L1880.49 2463.14V2459.7L1883.47 2452.27V2443.03L1885.71 2435.05L1887.57 2430.52L1888.69 2423.09L1889.25 2415.48L1889.99 2409.31L1892.23 2402.43L1894.65 2397.17L1895.77 2391.55L1897.07 2383.39L1899.31 2375.42V2371.98L1899.87 2368.53L1900.61 2364.54L1901.17 2361.1L1901.73 2355.84L1902.85 2350.77L1904.71 2342.79L1906.39 2339.35V2331.92L1906.95 2328.48L1907.51 2324.31L1908.81 2321.04L1909.37 2316.88L1910.49 2313.43L1909.93 2308.36L1911.05 2303.83L1912.35 2295.67L1914.03 2288.24L1915.33 2284.25L1917.01 2276.82L1918.13 2272.29L1918.87 2268.3L1919.43 2261.96L1921.11 2256.7L1923.53 2239.48L1924.65 2235.49V2228.06L1925.96 2224.08L1927.07 2219.54L1928.75 2214.29L1930.05 2205.23L1932.29 2195.98L1934.15 2184.02L1935.27 2179.31L1937.14 2168.98L1938.81 2162.81L1942.35 2149.04L1943.47 2140.88L1945.33 2128.38L1944.78 2123.66L1946.45 2115.69V2111.16L1945.89 2106.63L1942.35 2104.81L1934.15 2103.18L1925.96 2103.73H1919.99L1906.39 2103.18H1900.61L1896.33 2103.73L1884.03 2102.46L1872.85 2104.81L1870.43 2106.63L1865.77 2114.6L1863.35 2126.56L1861.67 2135.81L1861.11 2139.25V2144.33L1859.25 2149.04L1858.13 2153.03L1856.27 2161L1855.71 2165.53L1854.59 2173.69L1853.29 2177.13L1852.73 2181.12L1851.05 2188.55V2191.99L1849.19 2202.33L1849.93 2206.31L1846.39 2213.2V2217.19L1845.65 2224.08V2230.96L1843.41 2238.39V2241.84L1842.11 2249.81L1840.99 2253.26L1840.43 2261.41L1839.87 2265.94L1839.31 2269.93L1838.57 2273.38L1836.89 2281.35V2300.93L1835.02 2312.89L1833.35 2340.44V2348.41L1832.23 2362.19L1831.48 2373.79H1829.81L1827.94 2361.1L1826.27 2345.69L1825.15 2338.81L1823.84 2334.64V2330.65L1822.73 2318.14L1820.3 2304.91L1818.63 2289.51L1817.51 2284.79L1816.21 2276.82L1815.65 2267.58L1813.97 2257.97L1812.66 2248.18L1810.99 2239.48L1810.43 2233.32V2229.15L1808.57 2222.99V2219.54L1806.89 2212.11L1805.58 2203.41L1805.03 2199.43L1803.91 2194.89L1801.48 2183.29L1799.81 2175.32L1797.94 2165.53L1796.27 2156.47L1793.85 2142.69L1791.42 2134.72L1790.86 2128.38L1789.75 2121.49L1787.32 2115.69L1786.76 2111.7L1783.22 2106.63L1776.7 2104.81H1768.5L1759.75 2104.27L1752.67 2104.81L1741.49 2104.27L1733.66 2104.81H1728.44L1718.38 2104.27L1710.18 2104.81L1704.22 2105.9L1700.68 2112.24L1699 2115.14L1697.7 2118.59L1696.02 2126.02V2130.55L1694.16 2138.16L1693.04 2144.87L1691.92 2152.48L1691.36 2156.47L1690.06 2159.91L1689.5 2163.9L1688.94 2167.34L1688.38 2171.33L1687.82 2178.76L1686.52 2184.02L1684.28 2189.09V2193.08L1681.3 2209.21L1680.18 2212.66L1679.44 2216.64V2223.53L1677.76 2228.61L1675.9 2234.95L1674.78 2242.38L1673.66 2246.37V2250.36L1671.8 2254.53V2259.06L1670.12 2263.59L1669.56 2268.3V2276.28L1668.26 2281.89L1667.14 2286.61L1664.16 2293.49L1663.6 2299.11L1663.04 2307.27L1662.48 2311.26L1661.92 2314.7L1658.94 2321.59V2325.03L1658.38 2328.48L1657.64 2335.91L1656.52 2339.35L1655.96 2343.34L1654.84 2350.23L1652.98 2356.57L1651.86 2361.64L1650.55 2368.53L1648.32 2377.78L1647.01 2385.21L1647.76 2389.19L1647.01 2392.64L1645.34 2399.53L1644.78 2403.51L1644.22 2410.4L1641.8 2414.39V2421.82L1640.68 2426.53V2430.52L1638.82 2439.58L1637.7 2444.84L1635.83 2452.81L1634.72 2455.71L1633.04 2463.69L1632.29 2467.68L1630.06 2475.83L1628.75 2484.89V2494.14L1627.64 2498.67L1630.62 2505.56L1639.37 2506.64Z" fill="#DDBC04"/>
<path d="M2043.59 2512.99L2050.11 2512.44L2054.21 2511.9H2060.73L2064.83 2511.36L2070.24 2511.9L2074.34 2511.36L2081.98 2509L2086.63 2508.46L2095.58 2505.56L2099.12 2503.2L2106.2 2501.57L2111.42 2497.58L2117.38 2494.14L2122.04 2490.15L2125.02 2487.79L2129.68 2482.54L2132.66 2480.36L2135.64 2474.56L2139.18 2472.39L2144.4 2462.6L2147.38 2454.44L2148.5 2449.37L2149.8 2444.84L2152.04 2437.41V2428.71L2152.6 2425.26L2154.46 2417.29V2401.16L2155.02 2397.17L2154.46 2393.18L2155.02 2389.74L2155.58 2381.76L2154.46 2378.32L2151.48 2368.53L2150.92 2364.54L2150.36 2360.01L2149.8 2355.84L2146.26 2343.88L2142.72 2336.45L2137.88 2325.03L2137.32 2322.13L2132.1 2315.79L2128 2306L2120.92 2299.11L2117.94 2294.04L2112.53 2288.24L2110.86 2285.34L2107.88 2283.71L2106.2 2280.26L2100.24 2275.73L2096.7 2273.38L2094.27 2270.48L2092.04 2265.94L2089.06 2263.04L2086.63 2259.6L2078.99 2250.36L2072.47 2242.38L2068.37 2234.95L2065.95 2230.42L2061.29 2222.26L2057.19 2211.39L2056.63 2207.4V2199.97L2057.19 2191.99L2059.06 2186.19L2059.62 2182.21L2061.85 2176.41L2063.72 2172.42L2066.7 2168.43L2073.03 2165.53L2080.11 2163.36L2087.75 2164.44L2093.71 2168.98L2099.12 2174.23L2100.8 2177.68L2101.91 2184.56V2197.61L2100.24 2215.56L2099.12 2220.09L2099.68 2227.52L2104.34 2231.51H2112.53L2120.92 2232.05H2153.9L2164.52 2231.51L2171.6 2228.06L2173.84 2215.56L2176.26 2199.43L2176.82 2189.64L2176.26 2178.22V2165.53L2172.72 2151.76L2170.86 2147.77L2169.74 2141.43L2167.5 2138.16L2163.22 2131.82L2161.54 2128.92L2155.58 2122.58L2153.9 2120.22L2147.38 2114.6L2142.72 2112.79L2138.62 2109.34L2131.54 2105.9L2129.12 2104.27L2125.02 2103.73L2114.96 2100.83L2106.2 2100.28L2100.8 2099.01H2096.7L2081.98 2098.47H2063.72L2053.65 2101.37L2042.47 2103.73L2035.95 2107.17L2026.63 2110.61L2016.01 2118.04L2008.93 2123.66L2005.39 2127.11L2001.85 2132.91L1999.99 2135.26L1995.33 2140.34L1993.47 2143.24L1991.79 2147.23L1989.37 2151.76L1985.83 2159.37L1985.27 2164.99L1983.59 2170.79L1981.17 2174.78L1980.61 2182.75L1978.75 2186.74L1977.63 2198.34V2214.83L1977.07 2219L1977.63 2223.53L1978.19 2230.96L1980.61 2238.39L1981.73 2242.93L1983.59 2246.91L1986.39 2251.08L1988.81 2256.16L1992.35 2264.86L1995.89 2270.48L1998.87 2274.46L2004.83 2279.18L2010.61 2285.34L2016.01 2292.95L2023.09 2300.38L2029.43 2307.81L2031.85 2311.26L2034.83 2314.16L2041.36 2321.59L2044.15 2326.12L2048.44 2330.11L2050.11 2333.01L2051.23 2335.91L2053.65 2339.35L2057.75 2347.33L2062.41 2354.21L2067.26 2362.19L2068.93 2370.89V2374.33L2071.35 2384.66V2393.73L2071.91 2401.7V2405.87L2071.35 2411.49L2070.24 2418.38L2067.81 2425.26L2065.39 2429.25L2062.41 2434.51L2059.62 2437.41L2053.09 2439.04L2048.44 2440.13H2043.03L2035.39 2438.49L2029.43 2432.69L2025.33 2424.18L2023.65 2418.38L2022.35 2405.87V2393.73L2023.09 2389.74V2368.53L2018.25 2360.56L2010.61 2360.01H1977.63L1970.55 2359.29L1956.39 2360.56L1948.19 2364.54L1946.33 2373.79L1945.21 2377.78L1944.65 2382.31L1943.53 2390.83L1944.09 2394.99L1943.53 2404.6V2421.82L1944.65 2431.06L1945.21 2434.51L1947.07 2442.48L1947.63 2445.93L1951.73 2456.26L1952.85 2460.79L1956.95 2470.58L1962.35 2478.55L1968.13 2485.44L1974.09 2492.87L1981.17 2497.58L1987.13 2501.57L1993.47 2503.93L2002.97 2507.91L2007.07 2509L2013.03 2510.09L2019.55 2511.36H2025.33L2029.43 2511.9L2043.59 2512.99Z" fill="#DDBC04"/>
<path d="M2195.54 2506.1H2218.65L2222.19 2505.56L2233.93 2506.1L2248.09 2505.01L2252.19 2504.47L2256.29 2505.01L2262.25 2501.03L2264.67 2493.59L2265.79 2486.71L2267.47 2479.82L2266.91 2475.83L2267.47 2471.66V2468.22L2268.21 2464.23L2271.57 2457.34L2272.31 2453.36L2273.43 2446.47L2274.55 2438.49V2435.05L2275.11 2427.08L2276.41 2423.09L2275.85 2418.92L2278.09 2411.49L2279.95 2404.6L2281.63 2396.08L2283.49 2388.65L2282.93 2385.21L2285.17 2378.86L2285.73 2375.96L2287.59 2367.99L2288.71 2360.56L2290.01 2354.76L2291.69 2345.69L2305.85 2346.78L2319.45 2345.69H2340.7L2347.03 2346.24H2352.99L2356.53 2339.35L2358.21 2331.19L2360.63 2323.76V2316.88L2362.5 2309.44L2363.06 2305.46L2363.61 2302.01L2365.29 2295.13V2292.23L2367.71 2284.25V2279.72L2369.58 2275.01L2370.14 2270.48L2368.27 2264.13L2360.07 2263.59H2353.55L2345.35 2264.13L2338.27 2264.86L2312.37 2264.13L2305.85 2263.59L2307.53 2257.97L2308.83 2251.08V2246.91L2309.39 2243.65L2310.51 2239.48V2234.95L2312.93 2230.42L2315.35 2216.64V2213.74L2317.03 2205.77L2318.89 2197.07L2319.45 2193.08L2320.01 2186.74L2321.13 2182.21H2327.09L2351.13 2181.66L2366.6 2181.12L2374.79 2181.66L2385.97 2182.75L2395.48 2181.66L2400.69 2182.21L2406.1 2179.31L2407.78 2167.34L2410.2 2157.01V2153.03L2410.76 2149.58L2412.43 2142.15L2414.3 2132.36V2129.46L2415.42 2122.03V2115.69L2416.72 2111.7L2414.86 2107.17L2407.22 2104.81H2400.14L2390.63 2104.27H2321.69L2306.41 2103.73L2285.17 2103.18L2256.29 2104.27L2249.21 2107.17L2248.09 2114.06L2247.53 2118.04L2248.09 2124.93L2246.97 2127.83L2245.67 2135.26L2243.43 2145.59V2150.13L2241.01 2154.11L2240.45 2160.46L2239.89 2167.89L2239.33 2172.42L2238.03 2175.86L2236.35 2183.29L2235.79 2191.45L2233.93 2194.89V2198.88L2230.95 2207.94L2230.39 2212.11V2216.1L2229.83 2220.09L2230.39 2223.53L2229.27 2230.96L2227.96 2234.95L2226.85 2242.93L2225.17 2246.91L2223.86 2255.07V2261.96L2222.19 2268.84L2220.88 2272.83L2218.65 2279.72L2216.22 2287.15L2215.67 2294.58L2213.99 2302.56V2306.54L2211.57 2314.16L2209.14 2330.11V2338.08L2207.47 2342.25L2206.16 2350.77L2206.91 2354.76L2205.04 2364L2202.06 2371.98L2200.95 2379.41V2387.38L2198.52 2394.27V2398.44L2197.41 2401.7V2406.41L2195.54 2411.49L2194.98 2419.64L2193.86 2423.09V2428.16L2191.44 2433.96L2189.21 2441.94L2188.46 2446.47L2187.9 2453.9L2187.34 2457.89L2186.78 2461.33L2184.36 2466.04L2183.24 2472.39L2182.68 2476.38L2182.13 2479.82L2182.68 2487.79L2180.26 2492.33V2498.67L2182.68 2504.47L2189.77 2505.56L2195.54 2506.1Z" fill="#DDBC04"/>
<path d="M2463.14 2506.1L2467.8 2505.56L2477.3 2505.01H2489.6L2493.14 2504.47L2500.78 2505.01L2510.28 2504.47H2566.18L2568.05 2498.13L2569.16 2492.87L2569.72 2483.26L2571.59 2474.56L2572.15 2470.58L2573.26 2467.13L2574.57 2463.14V2455.71L2576.8 2443.03L2577.55 2438.49L2578.67 2432.15L2579.23 2429.79L2579.79 2425.26L2575.69 2423.63L2559.29 2424.18L2546.25 2423.63L2538.05 2423.09H2503.2L2495 2421.82L2492.58 2419.64V2414.93L2495 2400.07L2496.68 2389.74L2497.98 2385.75L2498.54 2379.95L2499.66 2374.88L2501.53 2369.08L2503.76 2353.13L2505.62 2345.69L2507.86 2339.35H2513.26L2520.9 2338.81H2527.43L2537.3 2339.35L2552.21 2338.81H2557.43L2566.18 2338.08H2572.15L2573.26 2336.99L2574.57 2329.02L2576.24 2319.78L2577.55 2311.8L2579.23 2307.27V2303.1L2581.09 2294.58L2582.21 2290.59L2583.88 2282.62L2585.19 2276.28V2271.56L2586.31 2264.86L2582.77 2260.14L2578.11 2259.06H2562.83L2551.46 2260.14L2530.97 2259.6H2520.34L2521.46 2249.27L2523.33 2243.65L2522.58 2238.94L2523.89 2234.95L2525.56 2226.98L2526.87 2219L2528.54 2207.94V2203.41L2530.41 2199.97V2191.99L2530.97 2188.01L2532.64 2181.12L2546.8 2180.58H2585.19L2592.27 2179.85H2617.05L2622.83 2179.31L2624.69 2171.88L2625.25 2168.43L2627.49 2160.46V2155.93L2629.35 2147.23L2629.91 2143.78L2630.47 2139.79L2632.33 2135.81V2132.36L2633.45 2118.04V2114.6L2635.31 2108.26L2632.33 2104.27L2626.93 2103.73L2621.15 2103.18L2615.75 2103.73H2602.89L2585.75 2104.27L2581.09 2103.73L2567.49 2103.18L2523.33 2103.73L2510.28 2104.27H2504.32L2499.66 2103.73H2495.56L2488.48 2104.27L2484.38 2103.73L2480.84 2104.27H2470.78L2466.12 2107.71L2465.56 2111.16L2463.7 2114.6L2462.02 2121.49L2463.14 2125.48L2462.58 2128.92L2462.02 2136.35L2461.28 2139.79L2460.16 2143.24L2459.6 2150.67L2458.48 2154.66L2459.04 2158.1L2457.18 2162.09V2166.26L2455.5 2169.52L2454.38 2177.68L2451.96 2185.11L2451.4 2189.09L2451.96 2192.54L2451.4 2196.53L2450.1 2201.06L2447.86 2204.5L2447.3 2216.64L2445.44 2220.63L2444.88 2236.76L2442.46 2245.28L2440.78 2253.26L2441.34 2256.7L2440.22 2260.69L2438.36 2265.4L2434.82 2282.62L2432.4 2286.06V2290.05L2431.84 2294.04L2431.28 2298.57L2429.6 2302.56L2428.3 2311.26L2426.06 2319.23V2327.75L2423.64 2339.89L2422.52 2343.88L2420.66 2352.4L2420.1 2356.57L2418.42 2360.56L2416.56 2367.99L2417.12 2371.43L2414.88 2378.32V2381.22L2413.58 2388.65L2412.46 2393.18V2397.17L2411.34 2406.41L2408.92 2410.94L2407.8 2418.38L2407.05 2426.53L2406.5 2430.52L2405.38 2435.05V2439.04L2404.26 2443.03V2448.28L2402.4 2452.81L2401.84 2462.06L2399.41 2470.58L2398.3 2479.82L2397.18 2488.34L2395.87 2493.59L2394.2 2498.67L2395.87 2503.93L2401.28 2505.01H2432.4L2436.68 2505.56H2451.96L2463.14 2506.1Z" fill="#DDBC04"/>
<path d="M2676.51 2506.64L2681.16 2506.1L2689.92 2505.56L2695.33 2505.01L2701.1 2505.56L2702.97 2500.48L2704.64 2496.31L2705.39 2489.43L2705.95 2485.44V2481.99L2706.51 2478.01L2707.07 2470.58V2467.13L2708.18 2463.14L2707.62 2459.7L2709.49 2451.73V2447.01L2710.61 2443.57L2711.16 2439.04L2713.59 2427.08L2714.7 2422.36V2410.4L2717.13 2405.87L2718.25 2397.71V2394.27L2719.36 2386.29L2722.34 2378.86V2369.08L2724.21 2357.11L2724.77 2352.4L2726.44 2344.43L2727.75 2340.98L2728.31 2338.81L2732.41 2339.35L2734.83 2341.53L2737.06 2346.24L2738.37 2350.77L2740.61 2355.3L2741.91 2361.1L2743.59 2369.08L2744.7 2371.98L2745.45 2379.95L2747.69 2387.38L2748.99 2394.99L2750.11 2398.98L2752.53 2405.87L2753.09 2409.86L2756.63 2420.19V2427.08L2758.87 2432.69L2760.73 2439.04L2761.29 2443.03L2762.97 2446.47V2450.46L2764.83 2454.44L2765.95 2462.06L2767.25 2463.69L2768.93 2468.22V2472.93L2772.47 2481.45L2774.33 2487.79L2775.45 2490.69L2777.13 2497.58L2778.43 2500.48L2783.65 2505.56L2787.19 2506.1L2792.59 2505.56H2797.25L2803.77 2505.01H2811.41L2826.69 2503.2L2839.18 2501.57H2846.82L2853.15 2500.48L2856.13 2499.76L2858 2492.33L2853.9 2481.45L2852.59 2476.38L2852.03 2472.39L2851.47 2465.5L2847.37 2455.71L2846.07 2447.74L2839.73 2427.08L2838.43 2419.64L2835.64 2410.94V2407.5L2833.21 2400.07L2832.09 2395.54L2830.23 2391.55L2829.11 2383.39L2827.81 2379.95L2826.13 2372.52L2824.27 2369.08L2823.15 2361.64L2822.59 2357.11L2820.17 2353.67L2819.05 2346.24V2340.98L2816.07 2332.46L2814.39 2327.75V2322.68L2818.49 2322.13L2826.69 2318.14L2838.43 2310.71L2849.61 2299.11L2856.13 2291.68L2858 2288.24L2862.65 2280.81L2865.08 2275.73L2866.75 2271.56L2872.16 2264.13L2874.95 2257.24L2876.81 2253.26L2877.93 2249.81L2879.24 2245.83L2881.47 2238.94L2883.34 2233.32L2884.45 2224.08L2886.32 2214.83V2210.84L2885.57 2202.33L2886.32 2198.34L2887.99 2190.18V2185.65L2886.32 2174.78V2170.79L2885.01 2159.91L2883.34 2150.67L2879.24 2142.69L2874.95 2135.81L2872.72 2132.91L2869.73 2129.46L2867.31 2127.11L2860.23 2123.12L2857.44 2121.49L2853.9 2119.68L2848.49 2116.23L2844.39 2115.14L2839.18 2112.79L2832.65 2110.07L2827.81 2108.8H2818.49L2811.97 2107.71L2803.21 2107.17L2795.39 2105.9H2790.17L2781.41 2104.81L2776.57 2103.73L2770.79 2104.27L2766.51 2104.81H2741.16L2705.95 2104.27H2697.56L2691.79 2105.36L2687.69 2110.07L2685.26 2112.79L2685.82 2119.13L2683.4 2123.66V2128.38L2682.84 2132.36L2682.28 2136.89L2679.86 2153.03L2678.18 2162.09L2676.51 2168.98L2675.2 2172.96V2176.41L2674.64 2184.02V2187.46L2674.08 2190.91L2672.22 2198.88L2670.54 2207.94L2668.68 2216.1L2668.12 2219.54L2667.56 2227.52L2665.14 2234.41L2664.58 2237.85V2241.84L2664.02 2245.28L2662.9 2252.71L2662.35 2256.7L2661.6 2260.14V2264.13L2658.8 2276.28V2280.81L2657.5 2288.78L2656.38 2296.39L2655.82 2299.66L2654.52 2306L2653.4 2309.99V2313.43L2651.72 2316.88L2650.42 2321.04L2649.86 2327.75L2650.42 2331.19L2649.3 2334.64L2646.32 2338.81V2343.88L2645.76 2348.41L2645.2 2352.4L2642.78 2360.56V2365.09L2642.22 2373.79L2641.1 2379.41V2384.66L2638.12 2394.99V2403.51L2635.7 2408.04L2636.26 2412.76L2635.7 2416.74L2634.58 2421.28L2634.02 2429.25L2632.16 2433.96L2632.72 2437.95L2631.04 2442.48V2446.47L2629.18 2454.44L2628.62 2458.61V2462.06L2626.94 2466.04V2470.03L2625.64 2473.48V2477.46L2625.08 2483.81L2624.52 2489.43L2622.84 2495.23V2500.48L2623.96 2503.93L2629.18 2505.01L2647.62 2506.1H2655.26L2676.51 2506.64ZM2753.09 2270.48L2743.03 2269.39L2743.59 2264.86L2743.03 2260.69L2743.59 2256.7L2745.45 2247.64L2746.57 2242.38L2746.01 2237.31L2747.69 2232.05L2748.99 2223.53V2219.54L2750.67 2210.3L2751.79 2205.77L2752.53 2198.34L2753.09 2189.64L2754.21 2180.58L2756.07 2176.41L2757.75 2170.24L2762.97 2168.43L2777.13 2168.98L2790.17 2170.79L2795.39 2173.69L2799.67 2177.68L2802.47 2182.75L2804.33 2194.89L2804.89 2207.4L2804.33 2216.64L2802.47 2221.18V2225.71L2798.37 2233.86L2797.81 2237.31L2796.69 2241.84L2793.71 2249.27L2789.61 2252.71L2787.19 2256.16L2783.09 2260.69L2778.99 2263.04L2773.03 2266.49L2769.49 2268.84L2762.41 2270.48H2753.09Z" fill="#DDBC04"/>
<path d="M2300.87 2046.06L2303.48 2045.88L2312.61 2046.06L2314.66 2044.97L2315.96 2042.62L2316.89 2041.17L2317.82 2037.54L2319.87 2032.83L2323.04 2026.85L2324.35 2023.04L2325.28 2020.87L2326.02 2018.69L2328.26 2014.52L2329.94 2011.08H2338.69L2353.04 2011.44L2358.07 2011.98L2365.34 2012.35L2365.71 2014.88V2029.75L2365.34 2032.83L2365.71 2036.09L2365.9 2041.71L2366.64 2044.97L2367.95 2045.88H2372.79L2377.08 2046.06L2380.25 2045.88L2382.48 2045.52L2386.39 2045.88H2389L2396.27 2045.52H2400.74L2403.35 2045.88L2405.59 2045.52C2406.89 2045.52 2407.82 2045.88 2409.13 2045.52C2410.8 2044.61 2410.43 2041.71 2410.25 2040.44V2033.73L2409.87 2026.85V2023.95L2409.5 2021.41L2409.87 2017.06V2012.35L2409.5 2010.17L2409.13 2006V2004.01L2408.57 1992.05L2408.94 1989.87L2408.57 1985.34L2408.94 1980.63L2408.57 1975.92V1973.74L2408.2 1959.24V1949.63L2407.82 1947.1L2407.64 1943.29V1930.97L2406.89 1927.52L2406.52 1922.45V1920.63L2406.33 1916.47L2406.52 1914.65L2406.33 1910.12V1903.78L2405.59 1899.43V1892.36L2405.96 1890.18L2405.59 1885.47V1881.12L2405.03 1874.78L2404.66 1870.61V1866.26L2404.28 1854.84V1849.04L2403.72 1847.23V1840.16L2402.79 1826.57L2400.37 1825.12L2398.88 1824.39H2393.66L2390.68 1824.75L2388.44 1824.21H2385.46L2379.31 1824.39H2374.1L2370.93 1824.75L2364.59 1824.39H2361.43L2359.19 1824.75L2357.89 1828.2L2356.77 1830.19L2355.84 1832.37L2353.04 1837.98L2350.62 1842.15L2348.76 1847.77L2348.01 1849.4L2346.71 1851.4L2344.84 1854.84L2344.1 1857.02L2343.54 1858.83L2342.61 1860.82L2341.86 1863L2339.07 1868.8L2337.95 1870.97L2337.02 1874.05L2335.15 1876.95L2334.03 1878.77L2332.54 1882.93L2329.94 1889.64L2328.63 1891.45L2326.95 1893.63L2326.02 1898.16L2323.97 1902.33L2323.41 1903.78L2322.48 1907.95L2320.81 1910.12L2319.87 1914.29L2318.76 1916.1L2316.89 1919.55L2315.22 1924.98L2312.98 1929.15L2312.05 1931.69L2309.44 1940.57L2308.32 1942.38L2306.83 1946.92L2304.78 1950.9L2304.59 1952.9L2302.54 1957.25L2301.99 1959.42L2299.94 1963.23L2298.26 1965.77L2297.7 1968.67L2296.95 1970.84L2294.72 1975.37L2293.79 1977.55L2292.11 1981.72L2291.18 1983.53L2290.81 1985.7L2290.25 1987.7L2288.57 1991.5L2286.89 1993.68L2286.33 1995.49L2283.72 2001.29L2282.42 2005.28L2278.88 2012.89L2277.2 2016.7L2275.15 2020.5L2271.99 2029.93L2269.38 2034.1L2267.51 2037.9L2267.14 2039.9L2266.4 2042.07L2267.14 2044.61L2270.12 2045.15L2293.79 2045.52L2296.02 2045.88L2300.87 2046.06ZM2354.53 1969.93L2351.74 1969.57L2348.01 1969.21H2345.4L2343.17 1967.4L2344.1 1965.22L2345.4 1960.15L2347.08 1954.71L2348.38 1952.53L2350.06 1947.82L2350.43 1945.65L2352.3 1938.58L2353.23 1935.68L2354.35 1933.5L2355.28 1930.78L2356.58 1928.43L2356.77 1926.25L2358.07 1923.17L2359.38 1920.63L2361.05 1915.56L2361.98 1912.3L2363.66 1907.22L2364.97 1903.23L2367.57 1902.33L2367.95 1909.58L2367.57 1920.82L2367.2 1932.96L2367.57 1940.57L2367.02 1943.11V1948.37L2366.64 1950.72V1958.88L2366.27 1961.42L2366.64 1963.95L2366.27 1968.3L2364.41 1969.93H2354.53Z" fill="white"/>
<path d="M2485.16 2045.52H2492.43L2495.04 2045.15L2497.27 2044.97L2500.25 2045.52H2502.86L2504.35 2044.61L2505.47 2041.71L2507.33 2038.27L2508.64 2036.09L2510.69 2032.47L2511.99 2030.65L2512.55 2028.84L2513.48 2026.85L2514.23 2025.03L2515.16 2022.68L2516.84 2017.97L2518.33 2016.15L2519.45 2013.98L2520 2011.62L2520.94 2009.45L2522.05 2007.63L2525.22 2001.83L2527.46 1997.85L2527.83 1995.49L2529.14 1993.32L2531.74 1987.7L2533.42 1983.89L2534.73 1979.36L2537.52 1975.37L2538.27 1973.02L2539.2 1970.84L2541.81 1966.67V1964.86L2543.11 1963.05L2544.04 1961.05L2546.09 1955.43L2546.46 1953.44L2547.4 1951.81L2548.7 1950L2549.63 1948.18L2551.31 1944.56L2551.5 1942.75L2552.61 1940.75L2553.54 1936.95L2554.85 1935.13L2555.41 1933.32L2557.09 1929.52L2559.32 1925.89L2561.37 1922.45L2561.93 1920.27L2563.61 1916.1L2564.35 1913.93L2565.84 1910.12L2566.77 1908.49L2569.2 1904.5L2569.38 1901.97L2570.5 1899.79L2571.99 1895.62L2572.74 1893.63L2573.67 1891.82L2574.6 1890.18L2575.72 1886.2L2576.28 1883.84L2577.95 1881.67L2579.63 1878.22L2580.56 1876.23L2580.94 1874.42L2581.87 1872.78L2582.43 1869.7L2583.36 1867.71L2584.1 1866.26L2585.04 1864.27L2586.71 1862.45L2587.64 1858.83L2588.39 1857.02L2589.88 1852.85L2591 1850.67L2592.3 1848.86L2593.23 1846.87L2593.61 1843.97L2594.54 1841.79L2595.47 1839.98L2595.84 1837.8L2596.77 1835.27L2598.64 1831.64L2599.01 1829.83V1826.57L2595.84 1825.66H2591.56L2588.02 1825.3H2583.36L2582.05 1825.12L2579.82 1825.3H2571.99L2570.13 1825.66L2567.89 1825.3H2565.66L2563.61 1824.75L2561 1825.3L2557.46 1824.39L2554.48 1825.12L2550.94 1826.93L2548.7 1831.1L2543.86 1843.97L2541.81 1848.13L2540.87 1850.31L2539.57 1854.84L2539.2 1857.02L2538.64 1858.83L2538.27 1861.18L2535.66 1865.17L2534.91 1867.17L2533.98 1868.98L2533.05 1871.33L2532.68 1873.15L2531.74 1877.5L2530.81 1879.85L2530.44 1881.67L2527.46 1888.37L2526.9 1890.55L2525.97 1894.72L2524.66 1897.43L2523.36 1899.07L2522.61 1900.7L2520.75 1904.5L2520.38 1906.32L2519.63 1908.49L2519.07 1909.58L2518.7 1911.39L2518.14 1913.38L2516.84 1916.83L2515.91 1919L2514.79 1920.27L2514.23 1922.45L2512.92 1926.62L2512.18 1928.79L2511.25 1930.97L2509.94 1934.23L2509.57 1936.04L2509.01 1938.22L2507.33 1941.48L2506.78 1943.29L2505.1 1945.65L2504.17 1949.63L2503.42 1951.63L2502.49 1954.17L2500.25 1958.15L2499.88 1960.15L2499.32 1961.96L2498.2 1963.95L2496.9 1965.22L2495.97 1965.58L2495.6 1963.95L2495.97 1961.05V1957.61L2495.6 1954.17L2496.34 1950.36L2496.71 1947.82V1945.65L2496.9 1940.75L2496.71 1938.94L2496.9 1937.67L2497.27 1935.5V1932.96L2497.64 1929.52V1927.16L2497.27 1924.98V1922.81L2497.64 1920.27V1913.57L2498.02 1911.39V1909.76L2498.2 1905.77L2497.27 1903.78L2497.64 1901.97V1899.43L2498.02 1896.53V1892.18L2498.95 1886.38V1879.85L2499.32 1877.5V1875.32L2498.58 1873.15V1870.97L2498.95 1868.43V1866.26L2499.32 1863.9V1861.73L2499.51 1859.55V1855.2L2499.32 1852.85L2499.88 1850.67V1845.96L2500.63 1843.42V1837.08L2500.25 1833.27V1832.73L2500.63 1828.56L2499.51 1826.38L2497.27 1824.75L2495.04 1824.39H2475.1L2471.19 1824.21L2466.15 1824.39L2463.73 1824.75L2459.82 1824.39L2455.91 1825.66L2454.97 1826.93L2454.04 1829.47V1832.73L2453.67 1834.54L2454.04 1836.72L2453.67 1839.07L2454.04 1841.25L2453.67 1843.06V1845.23L2453.3 1847.59L2453.67 1849.4L2454.04 1853.93L2453.67 1856.11L2454.04 1858.28L2453.67 1862.63L2453.3 1864.63V1878.22L2453.11 1880.4L2453.3 1882.57L2453.67 1885.11V1895.26L2454.42 1898.52L2453.3 1902.51V1906.68L2454.04 1908.85L2453.67 1913.02L2453.3 1914.83V1919L2453.67 1921.54V1928.25L2454.42 1930.42L2454.04 1932.6V1935.13L2453.3 1939.48V1943.65L2453.67 1945.83V1950L2453.3 1952.17L2454.42 1954.17L2454.04 1956.34V1958.52L2453.67 1960.69L2454.42 1962.68V1967.03L2454.04 1969.21V1971.75L2453.67 1974.1V1978.45L2454.42 1980.63L2454.04 1983.17L2454.42 1985.34V1989.87L2454.04 1992.05V1996.58L2454.6 1998.75V2000.93L2454.42 2003.1V2008.9L2454.6 2011.44V2016.15L2454.42 2018.33V2023.04L2454.97 2027.21V2029.38L2455.35 2031.56L2455.72 2033.55L2455.35 2037L2455.91 2040.08L2457.02 2043.7L2460.94 2045.15H2461.5L2464.85 2044.97H2471.93L2474.54 2045.15H2481.62L2485.16 2045.52Z" fill="white"/>
<path d="M2645.48 2049.32L2648.83 2048.6L2652.93 2048.42H2657.78L2662.06 2047.33L2665.97 2046.78L2669.89 2045.88L2678.27 2043.88L2680.7 2042.98L2685.91 2039.9L2690.76 2035.73L2695.6 2029.93L2696.16 2028.12L2697.28 2026.3L2698.77 2024.31L2700.07 2022.5L2701.19 2020.14L2702.68 2016.33L2704.73 2011.44L2705.66 2009.45L2706.22 2007.27L2706.6 2005.1L2707.53 2001.29L2709.58 1993.32L2710.14 1991.5L2711.25 1984.8L2711.44 1983.53L2711.81 1981.35L2712.56 1979.72L2712.74 1976.28L2713.49 1972.11V1969.93L2714.05 1967.94V1964.5L2712.74 1962.32L2710.51 1960.15L2706.6 1959.78L2690.76 1958.88H2683.86L2675.48 1958.52L2672.87 1958.88L2670.63 1961.42L2669.89 1964.5L2668.21 1968.67L2668.02 1970.84L2667.28 1973.74L2666.35 1978.45L2665.42 1982.26L2665.04 1983.89L2664.67 1985.7L2663.37 1989.87L2661.69 1994.22L2659.08 2000.02L2657.78 2001.47L2653.3 2004.37H2648.46L2643.24 2005.1L2638.4 2003.47L2635.79 2001.29L2634.48 1996.58V1994.22L2634.11 1992.41V1989.15L2634.48 1984.8L2635.42 1980.45V1977.91L2636.35 1971.2L2636.16 1969.03L2636.72 1966.67L2637.09 1964.5V1961.96L2637.47 1959.78L2638.4 1957.61V1950.9L2639.33 1946.19L2639.89 1943.65L2640.63 1939.48L2641.01 1937.31L2642.31 1932.23L2642.5 1929.7L2645.11 1917.19L2646.78 1912.3L2647.53 1907.95L2648.09 1905.77L2648.46 1903.78L2648.83 1901.6L2649.76 1898.7L2650.7 1894.9L2651.63 1890.18L2652.93 1886.38V1884.57L2654.98 1879.13L2656.47 1874.96L2657.78 1869.7L2658.89 1867.53L2659.83 1865.53L2662.81 1862.09L2666.35 1860.82L2670.26 1860.1H2673.8L2678.27 1861.37L2682 1863.36L2683.86 1868.98V1873.69L2683.3 1878.22L2682.93 1882.39L2680.88 1889.28L2680.32 1893.63L2679.02 1899.43L2678.27 1901.6V1905.95L2680.7 1909.58L2690.01 1910.85L2710.51 1911.03L2715.17 1910.85L2719.08 1910.48L2720.38 1909.22L2721.87 1901.06L2722.62 1898.52L2724.48 1886.2L2725.23 1881.12L2725.79 1876.23L2726.53 1873.69L2726.72 1870.61V1863.72L2726.53 1858.83L2726.16 1856.11L2725.79 1851.94L2725.42 1848.13L2724.86 1844.69L2723.18 1841.43L2722.62 1839.25L2721.5 1837.8L2720.01 1834.9L2719.27 1833.27L2715.73 1830.19L2711.44 1826.93L2706.97 1825.3L2703.43 1824.75L2702.12 1823.85L2699.89 1823.48L2697.47 1822.94L2695.6 1822.58L2690.94 1821.85H2687.78L2684.79 1820.95L2676.78 1820.04H2671.56L2665.42 1820.4H2660.38L2658.15 1820.58L2654.05 1821.67L2648.46 1822.58L2641.57 1825.3L2639.7 1826.38L2635.42 1828.2L2633.55 1829.83L2628.89 1834.18L2626.29 1837.44L2624.05 1840.52L2621.81 1842.52L2620.51 1845.96L2618.46 1850.31L2616.97 1854.12L2614.92 1859.55L2613.62 1863.9L2611.75 1870.25L2609.33 1876.59L2608.4 1880.76L2607.47 1882.93L2607.09 1885.11L2606.72 1887.1L2606.16 1889.28L2605.79 1891.45L2604.86 1893.45L2604.48 1896.53L2603.93 1899.97L2603.18 1902.33L2601.69 1908.49V1913.02L2600.57 1914.83V1916.83L2600.39 1920.63L2599.27 1923.72L2598.71 1927.16L2597.78 1930.78V1932.05L2597.4 1932.96V1937.31L2596.1 1939.3L2595.17 1944.92L2595.35 1946.55L2594.42 1950L2593.86 1952.53L2594.05 1955.43L2592.75 1959.78L2592.19 1966.49L2591.81 1968.3V1970.48L2591.26 1975.01L2590.88 1979.36L2590.51 1981.9L2590.32 1988.6V1996.76L2589.95 1998.93V2001.83L2590.32 2004.37V2010.35L2590.88 2012.71L2591.44 2016.7L2592.19 2018.69L2593.12 2022.68L2596.1 2026.85L2598.34 2031.2L2600.01 2032.83L2601.32 2034.46L2605.6 2037.54L2607.47 2038.81L2609.14 2040.08L2612.31 2042.07L2614.36 2043.7L2618.27 2044.97L2622.37 2046.42L2624.42 2046.78L2626.66 2047.33L2629.83 2047.69L2631.88 2048.05L2634.48 2048.42L2638.02 2048.6L2640.26 2048.96H2642.5L2645.48 2049.32Z" fill="white"/>
<path d="M2760.93 2046.06H2769.32L2772.86 2045.15L2773.97 2042.43L2774.16 2039.9L2775.28 2035.73L2775.84 2031.2L2776.77 2027.21L2778.07 2019.6L2779.19 2016.15V2013.98L2779.75 2009.81L2780.5 2005.28L2781.43 2000.93V1998.39L2782.73 1994.22L2782.92 1991.68L2784.04 1986.97L2783.66 1983.53L2785.34 1980.45V1975.92L2785.53 1974.28L2786.27 1969.93V1967.4L2787.58 1963.05V1960.51L2788.88 1955.98L2789.44 1952.17L2790.19 1948.18L2791.12 1944.02V1941.48L2792.05 1939.3L2793.35 1934.77L2795.03 1925.35L2795.96 1922.08L2796.71 1918.1V1915.92L2797.08 1913.38L2797.27 1911.03V1908.31L2798.2 1905.41L2799.32 1901.06L2799.5 1899.43L2800.62 1895.26L2801.55 1891.45L2802.11 1887.47L2802.48 1885.11L2802.86 1881.3L2803.23 1879.13L2803.79 1875.32L2804.53 1873.51L2805.09 1870.07L2806.77 1861.73L2807.14 1859.92V1857.56L2807.33 1855.75V1853.21L2808.63 1850.31L2809.38 1845.96L2810.31 1844.33V1841.43L2811.24 1840.16L2811.06 1838.35L2811.24 1834.9L2811.99 1834V1829.83L2812.36 1827.83L2811.06 1824.75L2807.33 1823.85L2805.09 1824.21H2787.95L2785.53 1824.39H2781.06L2778.07 1824.21L2773.23 1824.39L2770.99 1824.75L2768.94 1826.02L2766.71 1826.93L2764.47 1830.19L2764.1 1832.37L2763.54 1834.18L2762.79 1839.07L2761.49 1842.52L2760.93 1845.96L2760.56 1849.77L2760 1851.58L2759.63 1853.57L2758.7 1857.56L2757.95 1862.09L2757.39 1863.72L2757.02 1867.71L2756.65 1870.25L2757.02 1872.42L2755.71 1876.59L2755.34 1878.77L2754.41 1882.93L2754.04 1884.93L2752.73 1888.55L2753.11 1890.91L2752.73 1892.72L2752.17 1897.25L2751.06 1899.43V1903.78L2750.12 1910.48L2748.45 1914.83L2747.52 1919L2746.96 1922.81V1926.98L2745.65 1929.52L2744.91 1933.87V1936.04L2743.6 1940.57V1944.92L2743.04 1949.45L2742.67 1951.27L2742.3 1953.44L2741.74 1955.62V1957.61L2740.99 1962.32L2738.76 1969.21L2739.13 1971.57L2738.39 1973.74L2738.2 1975.55L2737.45 1977.91V1980.08L2736.89 1983.89L2736.15 1986.61L2735.22 1989.51L2734.47 1992.41L2733.54 1995.85L2732.61 2001.47L2732.98 2003.47L2731.68 2007.63L2731.3 2009.81L2730.75 2012.35L2730.37 2014.52L2729.44 2019.23L2729.07 2021.77L2728.32 2026.3L2727.76 2028.48L2727.39 2033.19L2725.71 2037.54L2726.09 2042.43L2728.7 2044.61L2731.3 2045.15L2733.91 2044.97L2736.15 2045.15L2739.69 2045.52L2742.11 2045.15H2744.72L2749.19 2045.88H2758.7L2760.93 2046.06Z" fill="white"/>
<mask id="mask1_11_2" style="mask-type:luminance" maskUnits="userSpaceOnUse" x="1180" y="1456" width="417" height="401">
<path d="M1180.61 1456.66H1596.92V1856H1180.61V1456.66Z" fill="white"/>
</mask>
<g mask="url(#mask1_11_2)">
<path d="M1599.86 1560.79C1600.42 1563.51 1599.95 1566.36 1598.6 1569.26C1592.17 1583.35 1565.62 1598.72 1537.44 1611.72C1532.31 1614.12 1527.14 1616.39 1522.02 1618.52C1490.01 1632.16 1460.29 1641.72 1460.29 1641.72L1456.15 1676.7L1470.92 1671.85C1477.02 1669.9 1483.63 1673.07 1485.68 1679.01C1487.73 1684.95 1484.42 1691.38 1478.32 1693.37L1453.21 1701.58L1436.54 1842.68L1420.28 1846.89L1392.79 1749.65L1385.34 1723.28L1381.89 1724.41C1378.17 1725.64 1374.11 1724.96 1370.99 1722.65C1363.45 1717.07 1365.4 1705.61 1374.35 1702.66L1379.1 1701.12L1371.46 1674.03L1359.16 1678.38L1291.94 1702.25L1263.9 1766.37L1259.99 1770.9L1253.79 1778.11L1252.53 1771.04L1237.67 1688.39L1185.08 1622.05L1202.87 1621.46L1271.35 1651.6L1333.31 1627.63L1339.55 1625.22L1350.73 1620.87L1331.96 1590.79L1322.92 1593.73C1319.19 1594.95 1315.14 1594.28 1312.02 1591.96C1304.52 1586.44 1306.43 1574.93 1315.37 1571.98L1319.38 1570.67L1252.11 1462.82L1266.18 1456.43L1389.35 1548.51C1390.14 1548.01 1390.93 1547.6 1391.86 1547.29L1419.35 1538.31C1425.5 1536.32 1432.06 1539.54 1434.11 1545.47C1436.16 1551.41 1432.9 1557.8 1426.8 1559.84L1411.29 1564.87L1439.94 1586.3C1439.94 1586.3 1466.82 1575.88 1498.63 1566.27C1502.5 1565.09 1506.46 1563.92 1510.42 1562.78C1551.69 1551.05 1596.41 1542.8 1599.86 1560.79Z" fill="#DDBC04"/>
</g>
<mask id="mask2_11_2" style="mask-type:luminance" maskUnits="userSpaceOnUse" x="577" y="1647" width="974" height="1245">
<path d="M577.307 1647.2H1550.29V2891.93H577.307V1647.2Z" fill="white"/>
</mask>
<g mask="url(#mask2_11_2)">
<path d="M1192.81 1752.42C1192.81 1752.42 1185.27 1755.23 1171.1 1760.44C1156.71 1765.69 1136.87 1773.3 1111.29 1783.36C1085.81 1793.65 1054.74 1806.16 1020.22 1822.06C985.657 1837.97 947.086 1856.54 907.071 1879.65C867.195 1902.76 825.41 1929.86 786.233 1963.21C747.336 1996.74 710.862 2036.16 684.356 2083.47C658.316 2129.78 643.968 2184.97 644.853 2241.65C645.412 2270.02 649.558 2298.75 656.918 2327.11C664.465 2355.39 675.272 2383.21 688.641 2410.04C715.427 2463.73 753.019 2512.8 796.016 2555.49C806.777 2566.14 818.003 2576.38 829.416 2586.26L831.512 2588.11C830.907 2587.62 831.699 2588.25 831.699 2588.25L832.258 2588.7L833.376 2589.65L837.941 2593.28L846.978 2600.58C853.034 2605.42 859.043 2610.27 865.052 2615.12C877.117 2623.96 889.136 2632.7 901.108 2641.4C913.592 2649.65 926.03 2657.8 938.328 2665.92C988.452 2697.41 1039.74 2723.78 1089.58 2746.48C1095.83 2749.29 1101.98 2752.15 1108.12 2754.95C1114.37 2757.58 1120.56 2760.21 1126.66 2762.79C1139.01 2767.91 1150.98 2773.31 1163.09 2777.84C1175.16 2782.55 1186.99 2787.17 1198.64 2791.75C1210.37 2796.01 1221.88 2800.18 1233.2 2804.25C1244.47 2808.47 1255.65 2812.14 1266.55 2815.81C1277.5 2819.43 1288.12 2823.15 1298.6 2826.46C1319.57 2832.94 1339.36 2839.51 1358.18 2844.85C1377 2850.38 1394.61 2855.59 1411.01 2859.94C1427.36 2864.43 1442.41 2868.69 1456.06 2872.09C1469.7 2875.62 1481.86 2878.75 1492.48 2881.51C1503.15 2884.1 1512.19 2886.27 1519.5 2888.08C1534.18 2891.66 1542.05 2893.57 1542.05 2893.57C1542.05 2893.57 1534.08 2892.07 1519.27 2889.22C1511.82 2887.77 1502.68 2886.04 1491.92 2883.96C1481.16 2881.78 1468.82 2879.25 1454.98 2876.39C1441.15 2873.67 1425.92 2870.18 1409.29 2866.51C1392.61 2862.93 1374.72 2858.58 1355.57 2854.01C1336.43 2849.61 1316.21 2844.04 1294.83 2838.56C1284.12 2835.79 1273.26 2832.58 1262.08 2829.45C1250.95 2826.32 1239.49 2823.2 1227.94 2819.53C1216.29 2815.99 1204.46 2812.32 1192.39 2808.65C1180.42 2804.66 1168.22 2800.58 1155.83 2796.42C1143.34 2792.43 1130.95 2787.63 1118.23 2783.05C1111.85 2780.74 1105.47 2778.38 1098.99 2776.03C1092.61 2773.49 1086.23 2770.95 1079.75 2768.37C1027.95 2747.89 974.197 2723.6 920.859 2693.78C907.723 2686.03 894.4 2678.24 881.03 2670.36C867.894 2661.75 854.711 2653.09 841.388 2644.39C835.146 2639.86 828.857 2635.33 822.615 2630.75L813.159 2623.96L808.454 2620.51L805.659 2618.47L803.283 2616.57C790.659 2606.74 778.174 2596.45 766.109 2585.67C717.896 2542.48 674.433 2491.73 641.639 2433.87C625.288 2404.96 611.499 2374.42 601.204 2342.61C591.096 2310.76 584.481 2277.68 582.059 2244.33C577.4 2177.45 590.77 2109.98 619.838 2051.43C623.564 2044 627.524 2035.94 631.064 2030L636.468 2020.44L637.167 2019.26L637.493 2018.67C637.167 2019.22 638.378 2017.27 638.378 2017.22L640.008 2014.73L643.269 2009.79C647.648 2003.22 652.027 1996.65 656.359 1990.13C660.738 1983.6 665.722 1977.71 670.381 1971.55C689.061 1946.9 710.116 1925.46 730.986 1905.12C773.283 1865.11 817.631 1833.16 859.509 1805.98C901.481 1778.83 941.449 1757.04 977.085 1738.41C1012.77 1719.75 1044.44 1705.11 1070.48 1693.01C1096.71 1681.14 1117.72 1671.9 1131.37 1666.14C1145.2 1660.2 1152.56 1657.03 1152.56 1657.03L1192.81 1752.42Z" fill="#DDBC04"/>
</g>
</svg>
