<svg width="3507" height="1458" viewBox="0 0 3507 1458" fill="none" xmlns="http://www.w3.org/2000/svg">
<path d="M3243.01 1093.53C3205.76 1123.58 3156.63 1138.62 3106.74 1137.93L1817.19 1117L3048.28 1098.83C3106.39 1098.14 3164.24 1089.99 3219.05 1072.65C3241.89 1065.42 3264.83 1056.45 3284.72 1045.36C3284.72 1045.36 3273.3 1069.15 3243.01 1093.53Z" fill="black"/>
<path d="M3062.49 553.832C3041.78 481.274 2951.91 395.787 2951.91 395.787C2751.9 329.946 2357.37 325.483 2357.37 325.483C2549.97 301.327 2891.16 309.839 2981.54 381.017C3046 431.813 3108.52 525.904 3138.97 575.641C3147.14 588.938 3134.96 604.812 3118.42 602.557C2685.06 542.974 2095.65 554.523 2095.65 554.523C2584.48 483.805 3062.49 553.832 3062.49 553.832Z" fill="black"/>
<path d="M2828.43 913.726C2743.53 923.618 2510.43 930.75 2436.39 881.979C2436.39 881.979 2695.62 902.085 2830.46 873.881C2965.25 845.722 3031.89 1029.67 3003.77 1059.26C2975.61 1088.8 2762.3 1079.36 2762.3 1079.36C2762.3 1079.36 2929.17 1068.64 2956.83 1031.05C2984.49 993.416 2913.39 903.88 2828.43 913.726Z" fill="black"/>
<path d="M3309.44 740.036C3309.44 740.036 3350.9 867.209 3232.4 905.674C3113.9 944.185 2979.56 877.93 2979.56 877.93C2979.56 877.93 3165.21 910.183 3223.72 857.133C3282.24 804.037 3250.42 773.854 3250.42 773.854C3250.42 773.854 3180.79 758.395 3117.1 810.754C3053.35 863.16 2938.56 813.469 2938.56 813.469C2938.56 813.469 3058.58 797.365 3127.7 746.294C3196.82 695.268 3309.44 740.036 3309.44 740.036Z" fill="black"/>
<mask id="mask0_24_140" style="mask-type:luminance" maskUnits="userSpaceOnUse" x="1608" y="431" width="1886" height="975">
<path d="M1608 431H3493.46V1405.91H1608V431Z" fill="white"/>
</mask>
<g mask="url(#mask0_24_140)">
<path d="M3327.42 1147.7C3361.32 1147.47 3389.03 1123.08 3390.15 1092.35C3394.56 973.639 3392.79 802.573 3392.79 802.573C3344.27 730.382 3288.6 678.114 3288.6 678.114C3346.86 590.373 3165.12 576.938 3165.12 576.938C3114.78 465.04 3002.12 345.045 3002.12 345.045C2832.2 234.022 2309.89 247.917 2309.89 247.917C2640.22 202.229 2963.14 247.917 3028.35 301.611C3093.52 355.351 3185.37 521.863 3185.37 521.863C3185.37 521.863 3292.05 551.448 3330.57 581.447C3369.09 611.445 3355.74 679.035 3355.74 679.035C3409.08 727.346 3434.76 778.417 3434.76 778.417L3456.48 1098.93C3466.33 1195.64 3403.14 1202.82 3403.14 1202.82L1584.01 1161.59L3327.42 1147.7Z" fill="black"/>
</g>
<path d="M3376.58 654.963C3376.58 654.963 3385.97 614.566 3347.45 594.275C3347.45 594.275 3394.85 598.14 3432.86 609.781C3470.87 621.422 3460.52 560.09 3402.26 560.504C3344 560.964 3305.48 569.476 3305.48 569.476C3305.48 569.476 3258.49 546.241 3213.12 535.428C3213.12 535.428 3382.47 498.298 3457.58 529.631C3532.59 560.964 3511.02 659.472 3465.49 670.193C3420.02 680.959 3376.58 654.963 3376.58 654.963Z" fill="black"/>
<path d="M366.598 1066.8L374.312 1065.15H430.137L437.851 1062.2L439.272 1058.71L441.099 1050.61L442.317 1042.51L446.174 1026.13L449.422 1013.25L448.813 1008.65L450.843 1000.55L452.061 995.948L455.309 983.617L457.136 976.072L457.745 972.023L460.384 964.477L462.211 955.091L464.241 946.993L463.632 942.944L464.241 939.447L464.85 935.398L467.489 928.405L468.098 924.356L469.316 920.859L469.925 917.362V911.473L471.346 906.32L473.173 897.486L475.203 889.388V885.891L476.421 882.394L477.03 874.296L479.669 870.064L481.496 863.07L482.308 855.524V851.475L484.135 847.979L486.165 839.881L487.383 835.832L488.601 826.998L491.849 820.004V815.955L492.458 812.458L493.067 805.465V801.968L495.706 794.422L498.954 786.325L497.533 783.38L500.172 778.779L502.811 768.288L503.42 764.24L504.638 756.694L506.059 753.197V749.7L507.886 745.651L507.277 742.155L508.495 737.922L514.382 737.369L541.381 737.922H547.674L553.561 737.369H561.275L566.959 737.922L573.455 737.369L575.891 732.216L576.703 723.934L577.921 719.886L580.357 712.34L581.169 705.346L581.778 701.849L582.996 697.801L584.214 690.807V687.31L585.635 683.261L586.244 679.764V675.716L587.462 671.114L588.071 667.066V663.569L586.853 658.784L581.169 657.679L572.034 657.127H532.246L526.562 656.575L512.961 657.127L503.42 656.575L462.211 657.127H448.204L443.738 656.575H396.236L391.77 657.127H387.101L384.056 656.575H367.207L362.741 657.127L357.057 661.176L353.809 667.618L353.2 671.114V679.212L351.17 682.709L348.734 690.255L347.922 698.353L346.704 701.849L344.268 710.131L344.877 714.18V718.781L342.847 723.382L341.629 730.376L343.456 735.713L349.343 737.369H354.418L360.914 737.922H366.598L371.064 737.369L380.199 737.922H414.709L414.1 747.308L412.882 755.958L411.664 760.191L409.634 767.736V771.233L409.025 775.282V778.779L408.416 782.276L405.168 791.478L403.95 795.711L403.341 799.76V804.361L401.92 807.305V813.011L398.672 819.452L399.484 823.501L397.454 832.335L396.236 835.832V839.881L393.597 843.377L392.379 847.426V852.764L390.349 858.469V866.567L389.131 870.064L385.883 877.057L387.101 881.106L385.883 885.339L383.244 893.989L380.199 902.087L378.778 906.32L378.169 910.369L379.387 916.074L376.342 921.963L375.53 930.061L374.312 933.558L373.094 941.104L372.485 945.153L371.064 949.385L369.237 958.035L367.207 965.029V969.63L364.162 981.961L364.771 986.562L364.162 990.611L360.914 998.709V1002.94L360.305 1011.04L358.884 1014.54L358.275 1023.19L357.057 1027.24L352.591 1039.57L351.779 1051.71L350.561 1060.55L356.448 1065.15H360.914L366.598 1066.8Z" fill="black"/>
<path d="M622.212 1066.25L627.287 1065.7L636.828 1065.15L642.715 1064.6L649.008 1065.15L651.038 1059.99L652.865 1055.76L653.677 1048.77L654.286 1044.72V1041.22L654.895 1037.17L655.504 1029.63V1026.13L656.722 1022.08L656.113 1018.59L658.143 1010.49V1005.7L659.361 1002.21L659.97 997.605L662.609 985.458L663.827 980.673V968.526L666.466 963.925L667.684 955.643V952.146L668.902 944.048L672.15 936.503V926.564L674.18 914.418L674.789 909.633L676.616 901.535L678.037 898.038L678.646 895.829L683.112 896.382L685.751 898.59L688.187 903.375L689.608 907.976L692.044 912.577L693.465 918.467L695.292 926.564L696.51 929.509L697.322 937.607L699.758 945.153L701.179 952.882L702.397 956.931L705.036 963.925L705.645 967.974L709.502 978.464V985.458L711.938 991.163L713.968 997.605L714.577 1001.65L716.404 1005.15V1009.2L718.434 1013.25L719.652 1020.98L721.073 1022.63L722.9 1027.24V1032.02L726.757 1040.67L728.787 1047.11L730.005 1050.06L731.832 1057.05L733.253 1059.99L738.937 1065.15L742.794 1065.7L748.681 1065.15H753.756L760.861 1064.6H769.184L785.83 1062.76L799.431 1061.1H807.754L814.656 1059.99L817.904 1059.26L819.934 1051.71L815.468 1040.67L814.047 1035.52L813.438 1031.47L812.829 1024.47L808.363 1014.54L806.942 1006.44L800.04 985.458L798.619 977.912L795.574 969.078V965.581L792.935 958.036L791.717 953.435L789.687 949.386L788.469 941.104L787.048 937.607L785.221 930.061L783.191 926.564L781.973 919.019L781.364 914.418L778.725 910.921L777.507 903.375V898.038L774.259 889.388L772.432 884.603V879.45L776.898 878.898L785.83 874.849L798.619 867.303L810.799 855.524L817.904 847.979L819.934 844.482L825.009 836.936L827.648 831.783L829.475 827.55L835.362 820.004L838.407 813.011L840.437 808.962L841.655 805.465L843.076 801.416L845.512 794.423L847.542 788.717L848.76 779.331L850.79 769.945V765.896L849.978 757.246L850.79 753.197L852.617 744.915V740.314L850.79 729.272V725.223L849.369 714.18L847.542 704.794L843.076 696.696L838.407 689.703L835.971 686.758L832.723 683.261L830.084 680.869L822.37 676.82L819.325 675.164L815.468 673.323L809.581 669.826L805.115 668.722L799.431 666.33L792.326 663.569L787.048 662.281H776.898L769.793 661.176L760.252 660.624L751.726 659.336H746.042L736.501 658.232L731.223 657.127L724.93 657.68L720.261 658.232H692.653L654.286 657.68H645.151L638.858 658.784L634.392 663.569L631.753 666.33L632.362 672.771L629.723 677.372V682.157L629.114 686.206L628.505 690.807L625.866 707.187L624.039 716.389L622.212 723.382L620.791 727.431V730.928L620.182 738.658V742.155L619.573 745.651L617.543 753.749L615.716 762.951L613.686 771.233L613.077 774.73L612.468 782.828L609.829 789.821L609.22 793.318V797.367L608.611 800.864L607.393 808.41L606.784 812.459L605.972 815.955V820.004L602.927 832.335V836.936L601.506 845.034L600.288 852.764L599.679 856.076L598.258 862.518L597.04 866.567V870.064L595.213 873.56L593.792 877.793L593.183 884.603L593.792 888.1L592.574 891.597L589.326 895.829V900.983L588.717 905.584L588.108 909.633L585.469 917.915V922.516L584.86 931.35L583.642 937.055V942.392L580.394 952.882V961.532L577.755 966.133L578.364 970.919L577.755 974.967L576.537 979.568L575.928 987.666L573.898 992.451L574.507 996.5L572.68 1001.1V1005.15L570.65 1013.25L570.041 1017.48V1020.98L568.214 1025.03V1029.08L566.793 1032.57V1036.62L566.184 1043.06L565.575 1048.77L563.748 1054.66V1059.99L564.966 1063.49L570.65 1064.6L590.747 1065.7H599.07L622.212 1066.25ZM705.645 826.446L694.683 825.342L695.292 820.74L694.683 816.508L695.292 812.459L697.322 803.257L698.54 797.919L697.931 792.766L699.758 787.429L701.179 778.779V774.73L703.006 765.344L704.224 760.743L705.036 753.197L705.645 744.363L706.863 735.161L708.893 730.928L710.72 724.671L716.404 722.83L731.832 723.382L746.042 725.223L751.726 728.168L756.395 732.216L759.44 737.37L761.47 749.7L762.079 762.399L761.47 771.785L759.44 776.386V780.987L754.974 789.269L754.365 792.766L753.147 797.367L749.899 804.913L745.433 808.41L742.794 811.906L738.328 816.508L733.862 818.9L727.366 822.397L723.509 824.789L715.795 826.446H705.645Z" fill="black"/>
<path d="M891.013 1066.25L896.291 1065.7L914.155 1066.25L918.012 1064.04L920.651 1059.99L922.478 1057.05L924.508 1050.61L928.365 1041.77L934.658 1030.73L937.297 1023.74L939.124 1019.69L940.545 1015.64L945.011 1008.1L948.259 1001.65H965.514L993.731 1002.21L1004.08 1003.49L1018.09 1004.05L1018.9 1008.65V1036.07L1018.09 1041.77L1018.9 1047.66L1019.51 1058.15L1020.73 1064.04L1023.37 1065.7H1032.91L1041.23 1066.25L1047.73 1065.7L1052.19 1065.15L1059.91 1065.7H1064.98L1079.19 1065.15H1088.13L1093.4 1065.7L1097.87 1065.15C1100.31 1065.15 1102.34 1065.7 1104.77 1065.15C1108.02 1063.49 1107.41 1058.15 1106.8 1055.76V1043.62L1106.19 1030.73V1025.58L1105.58 1020.98L1106.19 1012.7V1004.05L1105.58 999.997L1104.77 992.451V988.955L1103.55 966.686L1104.16 962.637L1103.55 954.539L1104.16 945.889L1103.55 937.055V933.006L1102.94 906.32V888.836L1102.34 884.051L1101.73 877.057V854.42L1100.31 847.979L1099.7 838.777V835.28L1099.09 827.55L1099.7 824.237L1099.09 815.956V804.361L1097.87 796.263V783.38L1098.48 779.331L1097.87 770.681V762.399L1096.45 750.805L1095.84 743.259V735.161L1095.23 714.18V703.69L1094.01 700.193V687.31L1091.98 662.281L1087.52 659.336L1084.27 658.232H1074.12L1068.23 658.784L1063.77 657.68H1058.08L1045.7 658.232H1035.55L1029.05 658.784L1016.87 658.232H1010.58L1005.91 658.784L1003.47 665.225L1001.44 668.722L999.618 672.771L993.731 683.261L989.265 690.807L985.408 701.298L984.19 704.242L981.551 707.739L977.694 714.18L976.476 718.229L975.258 721.726L973.228 725.223L972.01 729.272L966.123 739.762L964.296 743.811L962.266 749.701L958.409 754.854L956.582 758.35L953.334 765.896L948.259 778.227L945.62 781.724L942.372 785.773L940.545 793.871L936.688 801.416L935.267 804.361L933.44 811.907L930.192 815.956L928.365 823.501L926.335 826.998L922.478 833.439L919.23 843.378L914.764 850.923L912.937 855.524L907.659 871.904L905.832 875.401L902.584 883.499L900.757 886.996L898.727 891.045L898.118 894.541L894.261 902.823L893.043 906.872L889.186 913.866L885.938 918.467L884.72 923.62L883.299 927.853L878.833 935.951L877.006 940L873.758 947.545L871.728 951.042L871.119 955.091L869.901 958.588L866.653 965.581L863.405 969.63L862.187 973.127L857.112 983.617L854.473 991.163L847.368 1005.15L844.12 1012.14L840.263 1019.14L833.97 1036.62L828.692 1044.17L824.835 1051.16L824.226 1054.66L823.008 1058.71L824.226 1063.49L830.113 1064.6L877.006 1065.15L881.472 1065.7L891.013 1066.25ZM996.979 926.012L991.295 925.46L984.19 924.908H979.115L974.446 921.411L976.476 917.362L977.694 912.025L979.115 907.976L982.16 898.038L984.799 893.989L988.047 885.339L988.656 881.106L992.513 868.407L994.34 863.07L996.37 859.021L998.197 853.868L1000.84 849.819L1001.44 845.77L1004.08 839.881L1006.72 835.28L1009.77 825.894L1011.8 820.004L1015.05 810.802L1017.48 803.257L1022.76 801.416L1023.37 814.851L1022.76 835.832L1021.95 857.917L1022.76 871.904L1021.34 876.505V886.443L1020.73 890.492V905.584L1020.12 910.369L1020.73 914.97L1020.12 923.068L1016.26 926.012H996.979Z" fill="black"/>
<path d="M1158.01 1066.25H1226.22L1233.12 1064.04L1235.15 1058.15L1237.79 1051.16L1239.62 1040.67L1240.83 1037.17V1029.63L1241.65 1025.58L1243.47 1018.03L1246.11 1001.1L1247.33 997.053L1247.94 993.556L1249.16 985.458L1251.8 973.679L1254.43 965.029L1255.65 956.932L1256.26 953.435L1255.65 949.386L1256.87 945.153L1258.9 938.159L1257.68 934.11L1259.51 926.565L1260.73 923.068L1263.37 900.431L1267.83 872.456L1268.44 857.917L1269.86 847.979L1270.47 841.537L1271.08 829.943L1271.69 813.747H1273.72L1277.58 835.832L1281.43 856.813L1283.26 873.009L1286.51 891.597L1289.15 907.976L1290.37 919.019L1293 930.614V939.448L1293.61 942.944L1295.44 951.042L1296.05 954.539L1298.08 962.637V966.134L1299.91 974.968L1301.94 981.409L1302.55 990.059L1303.76 998.157L1304.37 1001.65L1307.01 1013.98L1307.62 1017.48L1309.04 1029.63L1309.65 1033.12L1310.26 1040.12L1310.87 1043.06L1314.12 1051.16L1319.19 1060.55L1324.47 1064.6H1335.23L1343.55 1065.15H1356.54L1360.4 1064.6L1366.69 1065.15L1371.16 1064.6L1383.54 1065.15H1385.98L1393.08 1064.04L1402.02 1063.49L1408.51 1059.26L1414.2 1052.27L1417.44 1033.68L1419.47 1026.13L1420.69 1022.08V1018.59L1423.94 1011.04V1001.65L1426.38 993.556L1428.41 988.955L1429.62 981.409L1430.23 973.679L1431.04 967.422L1433.48 960.428L1436.12 955.091L1437.34 949.386L1438.76 941.104L1441.19 933.006V929.509L1441.8 926.013L1442.62 921.964L1443.22 918.467L1443.83 913.13L1445.05 907.976L1447.08 899.879L1448.91 896.382V888.836L1449.52 885.339L1450.13 881.106L1451.55 877.794L1452.16 873.561L1453.37 870.064L1452.77 864.911L1453.98 860.31L1455.4 852.028L1457.23 844.482L1458.65 840.433L1460.48 832.887L1461.7 828.286L1462.51 824.238L1463.12 817.796L1464.95 812.459L1467.58 794.975L1468.8 790.926V783.38L1470.22 779.331L1471.44 774.73L1473.27 769.393L1474.69 760.191L1477.13 750.805L1479.16 738.658L1480.37 733.873L1482.4 723.383L1484.23 717.125L1488.09 703.138L1489.31 694.856L1491.34 682.157L1490.73 677.372L1492.55 669.274V664.673L1491.94 660.072L1488.09 658.232L1479.16 656.576L1470.22 657.128H1463.73L1448.91 656.576H1442.62L1437.95 657.128L1424.55 655.839L1412.37 658.232L1409.73 660.072L1404.65 668.17L1402.02 680.317L1400.19 689.703L1399.58 693.2V698.353L1397.55 703.138L1396.33 707.187L1394.3 715.285L1393.69 719.886L1392.47 728.168L1391.05 731.665L1390.44 735.713L1388.62 743.259V746.756L1386.59 757.246L1387.4 761.295L1383.54 768.289V772.338L1382.73 779.331V786.325L1380.29 793.871V797.367L1378.87 805.465L1377.66 808.962L1377.05 817.244L1376.44 821.845L1375.83 825.894L1375.02 829.391L1373.19 837.489V857.365L1371.16 869.512L1369.33 897.486V905.584L1368.11 919.571L1367.3 931.35H1365.48L1363.45 918.467L1361.62 902.823L1360.4 895.83L1358.98 891.597V887.548L1357.76 874.849L1355.12 861.414L1353.3 845.77L1352.08 840.985L1350.66 832.887L1350.05 823.501L1348.22 813.747L1346.8 803.809L1344.97 794.975L1344.36 788.717V784.484L1342.33 778.227V774.73L1340.51 767.185L1339.09 758.351L1338.48 754.302L1337.26 749.701L1334.62 737.922L1332.79 729.824L1330.76 719.886L1328.94 710.684L1326.3 696.697L1323.66 688.599L1323.05 682.157L1321.83 675.164L1319.19 669.274L1318.58 665.225L1314.73 660.072L1307.62 658.232H1298.69L1289.15 657.68L1281.43 658.232L1269.25 657.68L1260.73 658.232H1255.04L1244.08 657.68L1235.15 658.232L1228.65 659.336L1224.8 665.778L1222.97 668.722L1221.55 672.219L1219.72 679.765V684.366L1217.69 692.096L1216.47 698.905L1215.26 706.635L1214.65 710.684L1213.23 714.181L1212.62 718.229L1212.01 721.726L1211.4 725.775L1210.79 733.321L1209.37 738.658L1206.93 743.811V747.86L1203.68 764.24L1202.47 767.737L1201.65 771.786V778.779L1199.83 783.932L1197.8 790.374L1196.58 797.92L1195.36 801.968V806.017L1193.33 810.25V814.851L1191.5 819.452L1190.9 824.238V832.335L1189.47 838.041L1188.26 842.826L1185.01 849.819L1184.4 855.525L1183.79 863.806L1183.18 867.855L1182.57 871.352L1179.32 878.346V881.843L1178.72 885.339L1177.9 892.885L1176.69 896.382L1176.08 900.431L1174.86 907.424L1172.83 913.866L1171.61 919.019L1170.19 926.013L1167.75 935.399L1166.33 942.944L1167.14 946.993L1166.33 950.49L1164.51 957.484L1163.9 961.533L1163.29 968.526L1160.65 972.575V980.121L1159.43 984.906V988.955L1157.4 998.157L1156.18 1003.49L1154.15 1011.59L1152.93 1014.54L1151.11 1022.63L1150.3 1026.68L1147.86 1034.97L1146.44 1044.17V1053.55L1145.22 1058.15L1148.47 1065.15L1158.01 1066.25Z" fill="black"/>
<path d="M1598.38 1072.69L1605.49 1072.14L1609.95 1071.59H1617.06L1621.52 1071.04L1627.41 1071.59L1631.88 1071.04L1640.2 1068.64L1645.27 1068.09L1655.02 1065.15L1658.88 1062.76L1666.59 1061.1L1672.27 1057.05L1678.77 1053.55L1683.84 1049.5L1687.09 1047.11L1692.17 1041.77L1695.42 1039.57L1698.66 1033.68L1702.52 1031.47L1708.2 1021.53L1711.45 1013.25L1712.67 1008.09L1714.09 1003.49L1716.53 995.948V987.114L1717.14 983.617L1719.17 975.52V959.14L1719.78 955.091L1719.17 951.042L1719.78 947.545L1720.38 939.447L1719.17 935.951L1715.92 926.012L1715.31 921.963L1714.7 917.362L1714.09 913.129L1710.23 900.983L1706.38 893.437L1701.1 881.842L1700.49 878.898L1694.81 872.456L1690.34 862.518L1682.63 855.524L1679.38 850.371L1673.49 844.482L1671.66 841.537L1668.42 839.881L1666.59 836.384L1660.09 831.783L1656.24 829.39L1653.6 826.446L1651.16 821.845L1647.91 818.9L1645.27 815.403L1636.95 806.017L1629.85 797.919L1625.38 790.374L1622.74 785.773L1617.67 777.491L1613.2 766.448L1612.59 762.399V754.854L1613.2 746.756L1615.23 740.866L1615.84 736.818L1618.28 730.928L1620.31 726.879L1623.55 722.83L1630.46 719.886L1638.17 717.677L1646.49 718.781L1652.99 723.382L1658.88 728.72L1660.7 732.216L1661.92 739.21V752.461L1660.09 770.681L1658.88 775.282L1659.48 782.828L1664.56 786.877H1673.49L1682.63 787.429H1718.56L1730.13 786.877L1737.84 783.38L1740.28 770.681L1742.92 754.301L1743.53 744.363L1742.92 732.769V719.886L1739.06 705.899L1737.03 701.85L1735.81 695.408L1733.38 692.095L1728.71 685.654L1726.88 682.709L1720.38 676.268L1718.56 673.875L1711.45 668.17L1706.38 666.33L1701.91 662.833L1694.2 659.336L1691.56 657.68L1687.09 657.127L1676.13 654.183L1666.59 653.631L1660.7 652.342H1656.24L1640.2 651.79H1620.31L1609.34 654.735L1597.16 657.127L1590.06 660.624L1579.91 664.121L1568.34 671.667L1560.62 677.372L1556.77 680.869L1552.91 686.758L1550.88 689.151L1545.8 694.304L1543.77 697.249L1541.95 701.297L1539.31 705.899L1535.45 713.628L1534.84 719.334L1533.02 725.223L1530.38 729.272L1529.77 737.37L1527.74 741.419L1526.52 753.197V769.945L1525.91 774.178L1526.52 778.779L1527.13 786.325L1529.77 793.87L1530.99 798.471L1533.02 802.52L1536.06 806.753L1538.7 811.907L1542.56 820.741L1546.41 826.446L1549.66 830.495L1556.16 835.28L1562.45 841.537L1568.34 849.267L1576.05 856.813L1582.95 864.358L1585.59 867.855L1588.84 870.8L1595.95 878.346L1598.99 882.947L1603.66 886.996L1605.49 889.94L1606.7 892.885L1609.34 896.382L1613.81 904.479L1618.88 911.473L1624.16 919.571L1625.99 928.405V931.902L1628.63 942.392V951.594L1629.24 959.692V963.925L1628.63 969.63L1627.41 976.624L1624.77 983.617L1622.13 987.666L1618.88 993.004L1615.84 995.948L1608.73 997.605L1603.66 998.709H1597.77L1589.45 997.052L1582.95 991.163L1578.49 982.513L1576.66 976.624L1575.24 963.925V951.594L1576.05 947.545V926.012L1570.77 917.915L1562.45 917.362H1526.52L1518.81 916.626L1503.38 917.915L1494.45 921.963L1492.42 931.35L1491.2 935.398L1490.59 940L1489.37 948.649L1489.98 952.882L1489.37 962.637V980.121L1490.59 989.507L1491.2 993.004L1493.23 1001.1L1493.84 1004.6L1498.3 1015.09L1499.52 1019.69L1503.99 1029.63L1509.87 1037.73L1516.17 1044.72L1522.66 1052.26L1530.38 1057.05L1536.87 1061.1L1543.77 1063.49L1554.13 1067.54L1558.59 1068.64L1565.09 1069.75L1572.19 1071.04H1578.49L1582.95 1071.59L1598.38 1072.69Z" fill="black"/>
<path d="M1763.92 1065.7H1789.1L1792.95 1065.15L1805.74 1065.7L1821.17 1064.6L1825.64 1064.04L1830.1 1064.6L1836.6 1060.55L1839.24 1053L1840.45 1046.01L1842.28 1039.01L1841.67 1034.96L1842.28 1030.73V1027.24L1843.09 1023.19L1846.75 1016.19L1847.56 1012.14L1848.78 1005.15L1850 997.052V993.556L1850.6 985.458L1852.03 981.409L1851.42 977.176L1853.85 969.63L1855.88 962.637L1857.71 953.987L1859.74 946.441L1859.13 942.944L1861.57 936.503L1862.18 933.558L1864.21 925.46L1865.42 917.914L1866.84 912.025L1868.67 902.823L1884.1 903.927L1898.92 902.823H1922.06L1928.96 903.375H1935.46L1939.32 896.382L1941.14 888.1L1943.78 880.554V873.56L1945.81 866.015L1946.42 861.966L1947.03 858.469L1948.86 851.475V848.531L1951.5 840.433V835.832L1953.53 831.047L1954.13 826.446L1952.1 820.004L1943.17 819.452H1936.07L1927.14 820.004L1919.42 820.74L1891.2 820.004L1884.1 819.452L1885.93 813.747L1887.35 806.753V802.52L1887.96 799.207L1889.17 794.975V790.373L1891.81 785.772L1894.45 771.785V768.841L1896.28 760.743L1898.31 751.909L1898.92 747.86L1899.53 741.418L1900.75 736.817H1907.24L1933.43 736.265L1950.28 735.713L1959.21 736.265L1971.39 737.369L1981.74 736.265L1987.43 736.817L1993.31 733.873L1995.14 721.726L1997.78 711.236V707.187L1998.39 703.69L2000.22 696.144L2002.25 686.206V683.261L2003.46 675.716V669.274L2004.88 665.225L2002.85 660.624L1994.53 658.232H1986.82L1976.46 657.679H1901.35L1884.71 657.127L1861.57 656.575L1830.1 657.679L1822.39 660.624L1821.17 667.618L1820.56 671.667L1821.17 678.66L1819.95 681.605L1818.53 689.151L1816.09 699.641V704.242L1813.46 708.291L1812.85 714.732L1812.24 722.278L1811.63 726.879L1810.21 730.376L1808.38 737.922L1807.77 746.203L1805.74 749.7V753.749L1802.49 762.951L1801.88 767.184V771.233L1801.28 775.282L1801.88 778.779L1800.67 786.325L1799.25 790.373L1798.03 798.471L1796.2 802.52L1794.78 810.802V817.796L1792.95 824.789L1791.53 828.838L1789.1 835.832L1786.46 843.377L1785.85 850.923L1784.02 859.021V863.07L1781.38 870.8L1778.74 886.995V895.093L1776.92 899.326L1775.49 907.976L1776.31 912.025L1774.28 921.411L1771.03 929.509L1769.81 937.055V945.153L1767.17 952.146V956.379L1765.95 959.692V964.477L1763.92 969.63L1763.31 977.912L1762.1 981.409V986.562L1759.46 992.451L1757.02 1000.55L1756.21 1005.15L1755.6 1012.7L1754.99 1016.74L1754.38 1020.24L1751.74 1025.03L1750.53 1031.47L1749.92 1035.52L1749.31 1039.01L1749.92 1047.11L1747.28 1051.71V1058.15L1749.92 1064.04L1757.63 1065.15L1763.92 1065.7Z" fill="black"/>
<path d="M2055.46 1065.7L2060.53 1065.15L2070.89 1064.6H2084.28L2088.14 1064.04L2096.46 1064.6L2106.82 1064.04H2167.72L2169.75 1057.6L2170.96 1052.26L2171.57 1042.51L2173.6 1033.68L2174.21 1029.63L2175.43 1026.13L2176.85 1022.08V1014.54L2179.29 1001.65L2180.1 997.052L2181.32 990.611L2181.93 988.218L2182.54 983.617L2178.07 981.961L2160.21 982.513L2146 981.961L2137.06 981.409H2099.1L2090.17 980.12L2087.53 977.912V973.127L2090.17 958.035L2092 947.545L2093.42 943.496L2094.03 937.607L2095.25 932.454L2097.28 926.564L2099.71 910.369L2101.74 902.823L2104.18 896.382H2110.06L2118.39 895.829H2125.49L2136.25 896.382L2152.49 895.829H2158.18L2167.72 895.093H2174.21L2175.43 893.989L2176.85 885.891L2178.68 876.505L2180.1 868.407L2181.93 863.806V859.573L2183.96 850.923L2185.17 846.874L2187 838.776L2188.42 832.335V827.55L2189.64 820.74L2185.78 815.955L2180.71 814.851H2164.06L2151.68 815.955L2129.35 815.403H2117.78L2119 804.913L2121.03 799.207L2120.21 794.422L2121.64 790.373L2123.46 782.276L2124.88 774.178L2126.71 762.951V758.35L2128.74 754.853V746.756L2129.35 742.707L2131.18 735.713L2146.6 735.161H2188.42L2196.14 734.425H2223.14L2229.43 733.873L2231.46 726.327L2232.07 722.83L2234.5 714.732V710.131L2236.53 701.297L2237.14 697.801L2237.75 693.752L2239.78 689.703V686.206L2241 671.667V668.17L2243.03 661.728L2239.78 657.679L2233.89 657.127L2227.6 656.575L2221.71 657.127H2207.71L2189.03 657.679L2183.96 657.127L2169.14 656.575L2121.03 657.127L2106.82 657.679H2100.32L2095.25 657.127H2090.78L2083.07 657.679L2078.6 657.127L2074.74 657.679H2063.78L2058.71 661.176L2058.1 664.673L2056.07 668.17L2054.24 675.163L2055.46 679.212L2054.85 682.709L2054.24 690.255L2053.43 693.752L2052.21 697.248L2051.6 704.794L2050.38 708.843L2050.99 712.34L2048.96 716.389V720.622L2047.13 723.934L2045.92 732.216L2043.28 739.762L2042.67 743.811L2043.28 747.308L2042.67 751.357L2041.25 755.958L2038.81 759.454L2038.2 771.785L2036.17 775.834L2035.56 792.214L2032.92 800.864L2031.1 808.962L2031.71 812.458L2030.49 816.507L2028.46 821.292L2024.6 838.776L2021.96 842.273V846.322L2021.35 850.371L2020.74 854.972L2018.92 859.021L2017.5 867.855L2015.06 875.953V884.603L2012.42 896.934L2011.2 900.983L2009.17 909.633L2008.56 913.865L2006.74 917.914L2004.71 925.46L2005.32 928.957L2002.88 935.95V938.895L2001.46 946.441L2000.24 951.042V955.091L1999.02 964.477L1996.38 969.078L1995.17 976.624L1994.35 984.906L1993.75 988.954L1992.53 993.556V997.604L1991.31 1001.65V1006.99L1989.28 1011.59L1988.67 1020.98L1986.03 1029.63L1984.81 1039.01L1983.6 1047.66L1982.17 1053L1980.35 1058.15L1982.17 1063.49L1988.06 1064.6H2021.96L2026.63 1065.15H2043.28L2055.46 1065.7Z" fill="black"/>
<path d="M2287.91 1066.25L2292.98 1065.7L2302.52 1065.15L2308.41 1064.6L2314.7 1065.15L2316.73 1059.99L2318.56 1055.76L2319.37 1048.77L2319.98 1044.72V1041.22L2320.59 1037.17L2321.2 1029.63V1026.13L2322.42 1022.08L2321.81 1018.59L2323.84 1010.49V1005.7L2325.06 1002.21L2325.67 997.605L2328.3 985.458L2329.52 980.673V968.526L2332.16 963.925L2333.38 955.643V952.146L2334.6 944.048L2337.85 936.503V926.564L2339.88 914.418L2340.48 909.633L2342.31 901.535L2343.73 898.038L2344.34 895.829L2348.81 896.382L2351.45 898.59L2353.88 903.375L2355.3 907.976L2357.74 912.577L2359.16 918.467L2360.99 926.564L2362.21 929.509L2363.02 937.607L2365.45 945.153L2366.87 952.882L2368.09 956.931L2370.73 963.925L2371.34 967.974L2375.2 978.464V985.458L2377.63 991.163L2379.66 997.605L2380.27 1001.65L2382.1 1005.15V1009.2L2384.13 1013.25L2385.35 1020.98L2386.77 1022.63L2388.6 1027.24V1032.02L2392.45 1040.67L2394.48 1047.11L2395.7 1050.06L2397.53 1057.05L2398.95 1059.99L2404.63 1065.15L2408.49 1065.7L2414.38 1065.15H2419.45L2426.56 1064.6H2434.88L2451.53 1062.76L2465.13 1061.1H2473.45L2480.35 1059.99L2483.6 1059.26L2485.63 1051.71L2481.16 1040.67L2479.74 1035.52L2479.13 1031.47L2478.52 1024.47L2474.06 1014.54L2472.64 1006.44L2465.74 985.458L2464.31 977.912L2461.27 969.078V965.581L2458.63 958.036L2457.41 953.435L2455.38 949.386L2454.16 941.104L2452.74 937.607L2450.92 930.061L2448.89 926.564L2447.67 919.019L2447.06 914.418L2444.42 910.921L2443.2 903.375V898.038L2439.95 889.388L2438.13 884.603V879.45L2442.59 878.898L2451.53 874.849L2464.31 867.303L2476.49 855.524L2483.6 847.979L2485.63 844.482L2490.7 836.936L2493.34 831.783L2495.17 827.55L2501.06 820.004L2504.1 813.011L2506.13 808.962L2507.35 805.465L2508.77 801.416L2511.21 794.423L2513.24 788.717L2514.46 779.331L2516.49 769.945V765.896L2515.67 757.246L2516.49 753.197L2518.31 744.915V740.314L2516.49 729.272V725.223L2515.06 714.18L2513.24 704.794L2508.77 696.696L2504.1 689.703L2501.67 686.758L2498.42 683.261L2495.78 680.869L2488.07 676.82L2485.02 675.164L2481.16 673.323L2475.28 669.826L2470.81 668.722L2465.13 666.33L2458.02 663.569L2452.74 662.281H2442.59L2435.49 661.176L2425.95 660.624L2417.42 659.336H2411.74L2402.2 658.232L2396.92 657.127L2390.63 657.68L2385.96 658.232H2358.35L2319.98 657.68H2310.85L2304.55 658.784L2300.09 663.569L2297.45 666.33L2298.06 672.771L2295.42 677.372V682.157L2294.81 686.206L2294.2 690.807L2291.56 707.187L2289.73 716.389L2287.91 723.382L2286.49 727.431V730.928L2285.88 738.658V742.155L2285.27 745.651L2283.24 753.749L2281.41 762.951L2279.38 771.233L2278.77 774.73L2278.16 782.828L2275.52 789.821L2274.92 793.318V797.367L2274.31 800.864L2273.09 808.41L2272.48 812.459L2271.67 815.955V820.004L2268.62 832.335V836.936L2267.2 845.034L2265.98 852.764L2265.37 856.076L2263.95 862.518L2262.74 866.567V870.064L2260.91 873.56L2259.49 877.793L2258.88 884.603L2259.49 888.1L2258.27 891.597L2255.02 895.829V900.983L2254.41 905.584L2253.8 909.633L2251.16 917.915V922.516L2250.56 931.35L2249.34 937.055V942.392L2246.09 952.882V961.532L2243.45 966.133L2244.06 970.919L2243.45 974.967L2242.23 979.568L2241.62 987.666L2239.59 992.451L2240.2 996.5L2238.38 1001.1V1005.15L2236.35 1013.25L2235.74 1017.48V1020.98L2233.91 1025.03V1029.08L2232.49 1032.57V1036.62L2231.88 1043.06L2231.27 1048.77L2229.44 1054.66V1059.99L2230.66 1063.49L2236.35 1064.6L2256.44 1065.7H2264.77L2287.91 1066.25ZM2371.34 826.446L2360.38 825.342L2360.99 820.74L2360.38 816.508L2360.99 812.459L2363.02 803.257L2364.24 797.919L2363.63 792.766L2365.45 787.429L2366.87 778.779V774.73L2368.7 765.344L2369.92 760.743L2370.73 753.197L2371.34 744.363L2372.56 735.161L2374.59 730.928L2376.42 724.671L2382.1 722.83L2397.53 723.382L2411.74 725.223L2417.42 728.168L2422.09 732.216L2425.14 737.37L2427.17 749.7L2427.77 762.399L2427.17 771.785L2425.14 776.386V780.987L2420.67 789.269L2420.06 792.766L2418.84 797.367L2415.59 804.913L2411.13 808.41L2408.49 811.906L2404.02 816.508L2399.56 818.9L2393.06 822.397L2389.2 824.789L2381.49 826.446H2371.34Z" fill="black"/>
<path d="M1878.67 598.574L1881.51 598.39L1891.46 598.574L1893.69 597.47L1895.11 595.077L1896.13 593.605L1897.14 589.924L1899.38 585.139L1902.83 579.065L1904.25 575.201L1905.26 572.992L1906.07 570.784L1908.51 566.551L1910.34 563.054H1919.88L1935.51 563.422L1940.99 563.974L1948.91 564.342L1949.31 566.919V582.01L1948.91 585.139L1949.31 588.452L1949.52 594.157L1950.33 597.47L1951.75 598.39H1957.03L1961.7 598.574L1965.15 598.39L1967.58 598.022L1971.85 598.39H1974.69L1982.61 598.022H1987.48L1990.32 598.39L1992.76 598.022C1994.18 598.022 1995.19 598.39 1996.61 598.022C1998.44 597.102 1998.03 594.157 1997.83 592.869V586.059L1997.42 579.065V576.121L1997.02 573.544L1997.42 569.127V564.342L1997.02 562.134L1996.61 557.901V555.876L1996 543.729L1996.41 541.521L1996 536.92L1996.41 532.135L1996 527.35V525.141L1995.6 510.418V500.664L1995.19 498.087L1994.99 494.222V481.707L1994.18 478.211L1993.77 473.057V471.217L1993.57 466.984L1993.77 465.144L1993.57 460.543V454.101L1992.76 449.684V442.507L1993.16 440.298L1992.76 435.513V431.096L1992.15 424.655L1991.74 420.422V416.005L1991.33 404.41V398.521L1990.73 396.68V389.503L1989.71 375.699L1987.07 374.227L1985.45 373.491H1979.76L1976.52 373.859L1974.08 373.307H1970.83L1964.13 373.491H1958.45L1955 373.859L1948.1 373.491H1944.64L1942.21 373.859L1940.79 377.356L1939.57 379.38L1938.55 381.589L1935.51 387.294L1932.87 391.527L1930.84 397.232L1930.03 398.889L1928.61 400.913L1926.58 404.41L1925.77 406.618L1925.16 408.459L1924.14 410.483L1923.33 412.692L1920.28 418.581L1919.07 420.79L1918.05 423.918L1916.02 426.863L1914.8 428.703L1913.18 432.936L1910.34 439.746L1908.92 441.586L1907.09 443.795L1906.07 448.396L1903.84 452.629L1903.23 454.101L1902.22 458.334L1900.39 460.543L1899.38 464.776L1898.16 466.616L1896.13 470.113L1894.3 475.634L1891.86 479.867L1890.85 482.444L1888.01 491.462L1886.79 493.302L1885.17 497.903L1882.93 501.952L1882.73 503.976L1880.5 508.393L1879.89 510.602L1877.65 514.467L1875.83 517.043L1875.22 519.988L1874.41 522.197L1871.97 526.798L1870.96 529.006L1869.13 533.239L1868.11 535.08L1867.71 537.288L1867.1 539.312L1865.27 543.177L1863.44 545.386L1862.84 547.226L1859.99 553.116L1858.57 557.165L1854.72 564.894L1852.89 568.759L1850.66 572.624L1847.2 582.194L1844.36 586.427L1842.33 590.292L1841.93 592.316L1841.11 594.525L1841.93 597.102L1845.17 597.654L1870.96 598.022L1873.39 598.39L1878.67 598.574ZM1937.13 521.276L1934.09 520.908L1930.03 520.54H1927.19L1924.75 518.7L1925.77 516.491L1927.19 511.338L1929.01 505.817L1930.43 503.608L1932.26 498.823L1932.67 496.615L1934.7 489.437L1935.71 486.493L1936.93 484.284L1937.95 481.523L1939.37 479.131L1939.57 476.922L1940.99 473.794L1942.41 471.217L1944.24 466.064L1945.25 462.751L1947.08 457.598L1948.5 453.549L1951.34 452.629L1951.75 459.991L1951.34 471.401L1950.94 483.732L1951.34 491.462L1950.73 494.038V499.375L1950.33 501.768V510.05L1949.92 512.626L1950.33 515.203L1949.92 519.62L1947.89 521.276H1937.13Z" fill="black"/>
<path d="M2079.45 598.022H2087.36L2090.21 597.654L2092.64 597.47L2095.89 598.022H2098.73L2100.36 597.102L2101.57 594.157L2103.6 590.66L2105.03 588.452L2107.26 584.771L2108.68 582.93L2109.29 581.09L2110.3 579.065L2111.12 577.225L2112.13 574.833L2113.96 570.047L2115.58 568.207L2116.8 565.999L2117.41 563.606L2118.42 561.397L2119.64 559.557L2123.09 553.668L2125.53 549.619L2125.93 547.226L2127.36 545.018L2130.2 539.312L2132.02 535.448L2133.45 530.847L2136.49 526.798L2137.3 524.405L2138.32 522.197L2141.16 517.964V516.123L2142.58 514.283L2143.6 512.258L2145.83 506.553L2146.23 504.529L2147.25 502.872L2148.67 501.032L2149.69 499.191L2151.51 495.511L2151.72 493.67L2152.93 491.646L2153.95 487.781L2155.37 485.94L2155.98 484.1L2157.81 480.235L2160.24 476.554L2162.47 473.057L2163.08 470.849L2164.91 466.616L2165.72 464.408L2167.35 460.543L2168.36 458.886L2171 454.837L2171.2 452.261L2172.42 450.052L2174.05 445.819L2174.86 443.795L2175.87 441.954L2176.89 440.298L2178.11 436.249L2178.71 433.857L2180.54 431.648L2182.37 428.151L2183.38 426.127L2183.79 424.286L2184.8 422.63L2185.41 419.501L2186.43 417.477L2187.24 416.005L2188.26 413.98L2190.08 412.14L2191.1 408.459L2191.91 406.618L2193.53 402.385L2194.75 400.177L2196.17 398.337L2197.19 396.312L2197.59 393.367L2198.61 391.159L2199.62 389.319L2200.03 387.11L2201.04 384.533L2203.07 380.853L2203.48 379.012V375.699L2200.03 374.779H2195.36L2191.5 374.411H2186.43L2185.01 374.227L2182.57 374.411H2174.05L2172.02 374.779L2169.58 374.411H2167.14L2164.91 373.859L2162.07 374.411L2158.21 373.491L2154.96 374.227L2151.11 376.068L2148.67 380.3L2143.39 393.367L2141.16 397.6L2140.14 399.809L2138.72 404.41L2138.32 406.618L2137.71 408.459L2137.3 410.851L2134.46 414.9L2133.65 416.925L2132.63 418.765L2131.62 421.158L2131.21 422.998L2130.2 427.415L2129.18 429.808L2128.78 431.648L2125.53 438.458L2124.92 440.666L2123.9 444.899L2122.48 447.66L2121.06 449.316L2120.25 450.972L2118.22 454.837L2117.81 456.678L2117 458.886L2116.39 459.991L2115.99 461.831L2115.38 463.855L2113.96 467.352L2112.94 469.561L2111.72 470.849L2111.12 473.057L2109.69 477.29L2108.88 479.499L2107.87 481.707L2106.45 485.02L2106.04 486.861L2105.43 489.069L2103.6 492.382L2103 494.222L2101.17 496.615L2100.15 500.664L2099.34 502.688L2098.33 505.265L2095.89 509.314L2095.48 511.338L2094.88 513.179L2093.66 515.203L2092.24 516.491L2091.22 516.859L2090.82 515.203L2091.22 512.258V508.762L2090.82 505.265L2091.63 501.4L2092.03 498.823V496.615L2092.24 491.646L2092.03 489.805L2092.24 488.517L2092.64 486.308V483.732L2093.05 480.235V477.843L2092.64 475.634V473.426L2093.05 470.849V464.039L2093.45 461.831V460.175L2093.66 456.126L2092.64 454.101L2093.05 452.261V449.684L2093.45 446.74V442.323L2094.47 436.433V429.808L2094.88 427.415V425.207L2094.06 422.998V420.79L2094.47 418.213V416.005L2094.88 413.612V411.404L2095.08 409.195V404.778L2094.88 402.385L2095.48 400.177V395.392L2096.3 392.815V386.374L2095.89 382.509V381.957L2096.3 377.724L2095.08 375.515L2092.64 373.859L2090.21 373.491H2068.49L2064.22 373.307L2058.74 373.491L2056.1 373.859L2051.84 373.491L2047.58 374.779L2046.56 376.068L2045.55 378.644V381.957L2045.14 383.797L2045.55 386.006L2045.14 388.398L2045.55 390.607L2045.14 392.447V394.656L2044.73 397.048L2045.14 398.889L2045.55 403.49L2045.14 405.698L2045.55 407.907L2045.14 412.324L2044.73 414.348V428.151L2044.53 430.36L2044.73 432.568L2045.14 435.145V445.451L2045.95 448.764L2044.73 452.813V457.046L2045.55 459.254L2045.14 463.487L2044.73 465.328V469.561L2045.14 472.137V478.947L2045.95 481.155L2045.55 483.364V485.94L2044.73 490.357V494.59L2045.14 496.799V501.032L2044.73 503.24L2045.95 505.265L2045.55 507.473V509.682L2045.14 511.89L2045.95 513.915V518.332L2045.55 520.54V523.117L2045.14 525.509V529.926L2045.95 532.135L2045.55 534.711L2045.95 536.92V541.521L2045.55 543.729V548.331L2046.16 550.539V552.748L2045.95 554.956V560.845L2046.16 563.422V568.207L2045.95 570.416V575.201L2046.56 579.434V581.642L2046.97 583.851L2047.37 585.875L2046.97 589.372L2047.58 592.501L2048.79 596.181L2053.06 597.654H2053.67L2057.32 597.47H2065.03L2067.88 597.654H2075.59L2079.45 598.022Z" fill="black"/>
<path d="M2254.1 601.886L2257.76 601.15L2262.22 600.966H2267.5L2272.17 599.862L2276.43 599.31L2280.7 598.39L2289.83 596.365L2292.47 595.445L2298.16 592.316L2303.43 588.083L2308.71 582.194L2309.32 580.354L2310.54 578.513L2312.16 576.489L2313.58 574.648L2314.8 572.256L2316.43 568.391L2318.66 563.422L2319.67 561.397L2320.28 559.189L2320.69 556.98L2321.7 553.115L2323.94 545.018L2324.55 543.177L2325.76 536.368L2325.97 535.079L2326.37 532.871L2327.18 531.214L2327.39 527.718L2328.2 523.485V521.276L2328.81 519.252V515.755L2327.39 513.546L2324.95 511.338L2320.69 510.97L2303.43 510.05H2295.92L2286.79 509.682L2283.95 510.05L2281.51 512.626L2280.7 515.755L2278.87 519.988L2278.67 522.196L2277.86 525.141L2276.84 529.926L2275.83 533.791L2275.42 535.447L2275.01 537.288L2273.59 541.521L2271.77 545.938L2268.92 551.827L2267.5 553.299L2262.63 556.244H2257.35L2251.67 556.98L2246.39 555.324L2243.55 553.115L2242.13 548.33V545.938L2241.72 544.097V540.785L2242.13 536.368L2243.14 531.951V529.374L2244.16 522.564L2243.95 520.356L2244.56 517.963L2244.97 515.755V513.178L2245.38 510.97L2246.39 508.761V501.952L2247.41 497.167L2248.01 494.59L2248.83 490.357L2249.23 488.149L2250.65 482.996L2250.86 480.419L2253.7 467.72L2255.53 462.751L2256.34 458.334L2256.95 456.125L2257.35 454.101L2257.76 451.892L2258.77 448.948L2259.79 445.083L2260.8 440.298L2262.22 436.433V434.593L2264.46 429.071L2266.08 424.838L2267.5 419.501L2268.72 417.293L2269.74 415.268L2272.98 411.771L2276.84 410.483L2281.1 409.747H2284.96L2289.83 411.035L2293.89 413.06L2295.92 418.765V423.55L2295.31 428.151L2294.91 432.384L2292.67 439.378L2292.07 443.795L2290.64 449.684L2289.83 451.892V456.309L2292.47 459.99L2302.62 461.279L2324.95 461.463L2330.03 461.279L2334.29 460.911L2335.71 459.622L2337.33 451.34L2338.15 448.764L2340.18 436.249L2340.99 431.096L2341.6 426.127L2342.41 423.55L2342.61 420.421V413.428L2342.41 408.459L2342 405.698L2341.6 401.465L2341.19 397.6L2340.58 394.103L2338.76 390.791L2338.15 388.582L2336.93 387.11L2335.3 384.165L2334.49 382.509L2330.64 379.38L2325.97 376.067L2321.09 374.411L2317.24 373.859L2315.82 372.939L2313.38 372.571L2310.74 372.018L2308.71 371.65L2303.64 370.914H2300.19L2296.94 369.994L2288.21 369.074H2282.52L2275.83 369.442H2270.34L2267.91 369.626L2263.44 370.73L2257.35 371.65L2249.84 374.411L2247.81 375.515L2243.14 377.356L2241.11 379.012L2236.04 383.429L2233.2 386.742L2230.76 389.87L2228.32 391.895L2226.9 395.392L2224.67 399.809L2223.05 403.674L2220.81 409.195L2219.39 413.612L2217.36 420.053L2214.72 426.495L2213.71 430.728L2212.69 432.936L2212.29 435.145L2211.88 437.169L2211.27 439.378L2210.87 441.586L2209.85 443.611L2209.44 446.739L2208.84 450.236L2208.02 452.629L2206.4 458.886V463.487L2205.18 465.328V467.352L2204.98 471.217L2203.76 474.346L2203.15 477.842L2202.14 481.523V482.811L2201.73 483.732V488.149L2200.31 490.173L2199.29 495.878L2199.5 497.535L2198.48 501.032L2197.87 503.608L2198.08 506.553L2196.66 510.97L2196.05 517.779L2195.64 519.62V521.828L2195.03 526.429L2194.63 530.846L2194.22 533.423L2194.02 540.232V548.514L2193.61 550.723V553.668L2194.02 556.244V562.317L2194.63 564.71L2195.23 568.759L2196.05 570.783L2197.06 574.832L2200.31 579.065L2202.75 583.482L2204.57 585.139L2205.99 586.795L2210.66 589.924L2212.69 591.212L2214.52 592.5L2217.97 594.525L2220.2 596.181L2224.47 597.469L2228.93 598.942L2231.17 599.31L2233.6 599.862L2237.05 600.23L2239.29 600.598L2242.13 600.966L2245.98 601.15L2248.42 601.518H2250.86L2254.1 601.886Z" fill="black"/>
<path d="M2379.88 598.574H2389.02L2392.88 597.654L2394.09 594.893L2394.3 592.316L2395.52 588.083L2396.12 583.482L2397.14 579.433L2398.56 571.704L2399.78 568.207V565.998L2400.39 561.765L2401.2 557.164L2402.21 552.747V550.171L2403.64 545.938L2403.84 543.361L2405.06 538.576L2404.65 535.079L2406.48 531.951V527.35L2406.68 525.693L2407.49 521.276V518.7L2408.91 514.283V511.706L2410.33 507.105L2410.94 503.24L2411.76 499.191L2412.77 494.958V492.382L2413.79 490.173L2415.21 485.572L2417.03 476.002L2418.05 472.689L2418.86 468.64V466.432L2419.27 463.855L2419.47 461.463V458.702L2420.48 455.757L2421.7 451.34L2421.91 449.684L2423.12 445.451L2424.14 441.586L2424.75 437.537L2425.15 435.145L2425.56 431.28L2425.97 429.071L2426.57 425.207L2427.39 423.366L2428 419.869L2429.82 411.403L2430.23 409.563V407.17L2430.43 405.33V402.753L2431.85 399.809L2432.66 395.392L2433.68 393.735V390.791L2434.69 389.502L2434.49 387.662L2434.69 384.165L2435.51 383.245V379.012L2435.91 376.988L2434.49 373.859L2430.43 372.939L2428 373.307H2409.32L2406.68 373.491H2401.81L2398.56 373.307L2393.28 373.491L2390.85 373.859L2388.61 375.147L2386.18 376.067L2383.74 379.38L2383.34 381.589L2382.73 383.429L2381.91 388.398L2380.49 391.895L2379.88 395.392L2379.48 399.257L2378.87 401.097L2378.46 403.122L2377.45 407.17L2376.64 411.772L2376.03 413.428L2375.62 417.477L2375.22 420.053L2375.62 422.262L2374.2 426.495L2373.79 428.703L2372.78 432.936L2372.37 434.961L2370.95 438.642L2371.36 441.034L2370.95 442.875L2370.34 447.476L2369.13 449.684V454.101L2368.11 460.911L2366.28 465.328L2365.27 469.561L2364.66 473.425V477.658L2363.24 480.235L2362.43 484.652V486.861L2361.01 491.462V495.879L2360.4 500.48L2359.99 502.32L2359.58 504.529L2358.98 506.737V508.761L2358.16 513.547L2355.73 520.54L2356.13 522.933L2355.32 525.141L2355.12 526.982L2354.31 529.374V531.583L2353.7 535.448L2352.89 538.208L2351.87 541.153L2351.06 544.097L2350.04 547.594L2349.03 553.3L2349.43 555.324L2348.01 559.557L2347.61 561.765L2347 564.342L2346.59 566.551L2345.58 571.336L2345.17 573.912L2344.36 578.513L2343.75 580.722L2343.34 585.507L2341.52 589.924L2341.92 594.893L2344.77 597.101L2347.61 597.654L2350.45 597.47L2352.89 597.654L2356.74 598.022L2359.38 597.654H2362.22L2367.1 598.39H2377.45L2379.88 598.574Z" fill="black"/>
<mask id="mask1_24_140" style="mask-type:luminance" maskUnits="userSpaceOnUse" x="658" y="0" width="454" height="406">
<path d="M658.208 0.0969238H1111.76V405.587H658.208V0.0969238Z" fill="white"/>
</mask>
<g mask="url(#mask1_24_140)">
<path d="M1114.96 105.829C1115.57 108.589 1115.06 111.488 1113.59 114.433C1106.58 128.742 1077.66 144.339 1046.95 157.544C1041.37 159.983 1035.74 162.283 1030.15 164.446C995.29 178.295 962.911 188.003 962.911 188.003L958.394 223.523L974.482 218.6C981.13 216.622 988.337 219.843 990.57 225.87C992.803 231.897 989.2 238.431 982.551 240.455L955.197 248.783L937.029 392.06L919.317 396.338L889.374 297.6L881.254 270.822L877.499 271.972C873.439 273.215 869.024 272.524 865.623 270.178C857.402 264.519 859.533 252.878 869.277 249.887L874.454 248.323L866.131 220.809L852.733 225.226L779.501 249.473L748.949 314.578L744.686 319.179L737.936 326.495L736.566 319.317L720.377 235.394L663.08 168.035L682.467 167.437L757.069 198.034L824.567 173.694L831.367 171.256L843.547 166.839L823.095 136.288L813.249 139.278C809.189 140.521 804.774 139.83 801.374 137.484C793.203 131.871 795.284 120.184 805.028 117.193L809.392 115.859L736.109 6.35417L751.436 -0.133301L885.619 93.3599C886.482 92.8538 887.344 92.4397 888.359 92.1176L918.302 83.0075C925.001 80.9831 932.157 84.2498 934.39 90.2772C936.623 96.3045 933.07 102.792 926.422 104.862L909.522 109.97L940.733 131.733C940.733 131.733 970.016 121.15 1004.68 111.396C1008.89 110.2 1013.2 109.003 1017.52 107.853C1062.48 95.9365 1111.2 87.5626 1114.96 105.829Z" fill="black"/>
</g>
<mask id="mask2_24_140" style="mask-type:luminance" maskUnits="userSpaceOnUse" x="0" y="193" width="1061" height="1265">
<path d="M0.944824 193.571H1060.96V1457.48H0.944824V193.571Z" fill="white"/>
</mask>
<g mask="url(#mask2_24_140)">
<path d="M671.505 300.407C671.505 300.407 663.283 303.26 647.855 308.551C632.173 313.888 610.554 321.618 582.692 331.832C554.932 342.276 521.082 354.975 483.476 371.125C445.819 387.275 403.798 406.139 360.204 429.604C316.762 453.069 271.239 480.584 228.559 514.447C186.182 548.495 146.445 588.524 117.568 636.559C89.1991 683.582 73.5681 739.622 74.5324 797.181C75.1414 825.984 79.6581 855.155 87.6766 883.957C95.8981 912.668 107.672 940.918 122.237 968.156C151.419 1022.68 192.374 1072.51 239.216 1115.85C250.939 1126.66 263.17 1137.06 275.604 1147.09L277.888 1148.98C277.228 1148.47 278.091 1149.12 278.091 1149.12L278.7 1149.58L279.918 1150.54L284.891 1154.22L294.737 1161.63C301.334 1166.55 307.881 1171.48 314.428 1176.4C327.572 1185.37 340.665 1194.25 353.708 1203.09C367.309 1211.46 380.859 1219.74 394.257 1227.98C448.864 1259.95 504.74 1286.73 559.043 1309.78C565.843 1312.64 572.542 1315.53 579.241 1318.39C586.042 1321.06 592.791 1323.72 599.44 1326.35C612.888 1331.55 625.931 1337.02 639.126 1341.62C652.27 1346.41 665.161 1351.1 677.848 1355.75C690.637 1360.07 703.173 1364.31 715.505 1368.45C727.786 1372.73 739.966 1376.45 751.842 1380.18C763.768 1383.86 775.339 1387.63 786.758 1390.99C809.595 1397.57 831.164 1404.24 851.667 1409.67C872.17 1415.29 891.354 1420.58 909.218 1424.99C927.031 1429.55 943.423 1433.87 958.293 1437.32C973.163 1440.91 986.408 1444.09 997.979 1446.89C1009.6 1449.52 1019.45 1451.73 1027.41 1453.57C1043.4 1457.2 1051.98 1459.13 1051.98 1459.13C1051.98 1459.13 1043.3 1457.61 1027.16 1454.72C1019.04 1453.24 1009.09 1451.5 997.37 1449.38C985.647 1447.17 972.198 1444.59 957.126 1441.7C942.053 1438.93 925.458 1435.39 907.34 1431.67C889.171 1428.03 869.683 1423.61 848.825 1418.97C827.967 1414.5 805.941 1408.84 782.647 1403.28C770.975 1400.47 759.15 1397.2 746.97 1394.03C734.841 1390.85 722.356 1387.68 709.77 1383.95C697.083 1380.36 684.192 1376.64 671.048 1372.91C658.005 1368.86 644.709 1364.72 631.209 1360.49C617.608 1356.44 604.109 1351.56 590.254 1346.91C583.301 1344.57 576.348 1342.17 569.294 1339.78C562.341 1337.21 555.389 1334.63 548.334 1332.01C491.9 1311.21 433.335 1286.55 375.226 1256.27C360.915 1248.41 346.4 1240.49 331.835 1232.49C317.523 1223.74 303.161 1214.96 288.647 1206.12C281.846 1201.52 274.995 1196.92 268.194 1192.27L257.892 1185.37L252.766 1181.87L249.721 1179.8L247.133 1177.87C233.38 1167.89 219.779 1157.44 206.635 1146.49C154.108 1102.64 106.759 1051.11 71.0306 992.358C53.2174 963.003 38.1954 931.992 26.9796 899.693C15.9669 867.347 8.76039 833.76 6.12139 799.896C1.04639 731.985 15.6116 663.475 47.2796 604.03C51.3396 596.484 55.6534 588.294 59.5104 582.267L65.3974 572.558L66.1586 571.362L66.5139 570.764C66.1586 571.316 67.4781 569.338 67.4781 569.292L69.2544 566.761L72.8069 561.746C77.5774 555.075 82.3479 548.403 87.0676 541.778C91.8381 535.152 97.2684 529.171 102.343 522.913C122.694 497.884 145.633 476.121 168.369 455.462C214.45 414.835 262.764 382.397 308.388 354.791C354.114 327.231 397.658 305.1 436.481 286.19C475.356 267.233 509.866 252.372 538.235 240.087C566.807 228.032 589.696 218.646 604.565 212.803C619.638 206.776 627.657 203.555 627.657 203.555L671.505 300.407Z" fill="black"/>
</g>
</svg>
