<svg width="3521" height="1467" viewBox="0 0 3521 1467" fill="none" xmlns="http://www.w3.org/2000/svg">
<path d="M3256.06 1093.44C3218.81 1123.48 3169.69 1138.53 3119.8 1137.84L1830.24 1116.9L3061.33 1098.73C3119.44 1098.04 3177.3 1089.89 3232.11 1072.55C3254.95 1065.33 3277.88 1056.35 3297.78 1045.26C3297.78 1045.26 3286.36 1069.05 3256.06 1093.44Z" fill="#DDBC04"/>
<path d="M3075.55 553.735C3054.84 481.177 2964.96 395.69 2964.96 395.69C2764.96 329.849 2370.42 325.386 2370.42 325.386C2563.02 301.23 2904.21 309.742 2994.6 380.92C3059.05 431.716 3121.58 525.807 3152.03 575.544C3160.2 588.841 3148.02 604.715 3131.47 602.46C2698.12 542.877 2108.71 554.426 2108.71 554.426C2597.53 483.708 3075.55 553.735 3075.55 553.735Z" fill="#DDBC04"/>
<path d="M2841.49 913.629C2756.58 923.521 2523.49 930.652 2449.44 881.881C2449.44 881.881 2708.67 901.988 2843.52 873.784C2978.31 845.625 3044.94 1029.57 3016.83 1059.16C2988.66 1088.7 2775.36 1079.27 2775.36 1079.27C2775.36 1079.27 2942.22 1068.55 2969.88 1030.96C2997.54 993.319 2926.44 903.782 2841.49 913.629Z" fill="#DDBC04"/>
<path d="M3322.49 739.939C3322.49 739.939 3363.96 867.112 3245.46 905.577C3126.95 944.087 2992.62 877.833 2992.62 877.833C2992.62 877.833 3178.26 910.086 3236.78 857.036C3295.29 803.94 3263.47 773.757 3263.47 773.757C3263.47 773.757 3193.84 758.297 3130.15 810.657C3066.41 863.063 2951.61 813.372 2951.61 813.372C2951.61 813.372 3071.64 797.268 3140.76 746.197C3209.88 695.171 3322.49 739.939 3322.49 739.939Z" fill="#DDBC04"/>
<mask id="mask0_25_2" style="mask-type:luminance" maskUnits="userSpaceOnUse" x="1635" y="235" width="1886" height="975">
<path d="M1635 235H3520.46V1209.91H1635V235Z" fill="white"/>
</mask>
<g mask="url(#mask0_25_2)">
<path d="M3340.48 1147.6C3374.38 1147.37 3402.09 1122.98 3403.21 1092.25C3407.62 973.542 3405.85 802.476 3405.85 802.476C3357.33 730.285 3301.66 678.018 3301.66 678.018C3359.92 590.276 3178.18 576.841 3178.18 576.841C3127.84 464.943 3015.17 344.948 3015.17 344.948C2845.26 233.925 2322.94 247.82 2322.94 247.82C2653.27 202.132 2976.2 247.82 3041.41 301.514C3106.57 355.254 3198.43 521.766 3198.43 521.766C3198.43 521.766 3305.11 551.351 3343.63 581.35C3382.15 611.348 3368.8 678.938 3368.8 678.938C3422.14 727.249 3447.82 778.32 3447.82 778.32L3469.54 1098.83C3479.38 1195.54 3416.2 1202.72 3416.2 1202.72L1597.06 1161.49L3340.48 1147.6Z" fill="#DDBC04"/>
</g>
<path d="M3389.64 654.866C3389.64 654.866 3399.02 614.469 3360.51 594.178C3360.51 594.178 3407.91 598.043 3445.92 609.684C3483.93 621.324 3473.58 559.993 3415.32 560.407C3357.05 560.867 3318.53 569.379 3318.53 569.379C3318.53 569.379 3271.54 546.143 3226.17 535.331C3226.17 535.331 3395.52 498.201 3470.63 529.534C3545.64 560.867 3524.07 659.375 3478.55 670.095C3433.08 680.862 3389.64 654.866 3389.64 654.866Z" fill="#DDBC04"/>
<path d="M379.654 1066.71L387.368 1065.05H443.193L450.907 1062.11L452.328 1058.61L454.155 1050.51L455.373 1042.41L459.23 1026.03L462.478 1013.15L461.869 1008.55L463.899 1000.45L465.117 995.851L468.365 983.521L470.192 975.975L470.801 971.926L473.44 964.38L475.267 954.994L477.297 946.896L476.688 942.847L477.297 939.351L477.906 935.302L480.545 928.308L481.154 924.259L482.372 920.762L482.981 917.266V911.376L484.402 906.223L486.229 897.389L488.259 889.291V885.794L489.477 882.298L490.086 874.2L492.725 869.967L494.552 862.973L495.364 855.428V851.379L497.191 847.882L499.221 839.784L500.439 835.735L501.657 826.901L504.905 819.908V815.859L505.514 812.362L506.123 805.368V801.871L508.762 794.326L512.01 786.228L510.589 783.283L513.228 778.682L515.867 768.192L516.476 764.143L517.694 756.597L519.115 753.1V749.604L520.942 745.555L520.333 742.058L521.551 737.825L527.438 737.273L554.437 737.825H560.73L566.617 737.273H574.331L580.015 737.825L586.511 737.273L588.947 732.12L589.759 723.838L590.977 719.789L593.413 712.243L594.225 705.25L594.834 701.753L596.052 697.704L597.27 690.71V687.213L598.691 683.165L599.3 679.668V675.619L600.518 671.018L601.127 666.969V663.472L599.909 658.687L594.225 657.583L585.09 657.031H545.302L539.618 656.479L526.017 657.031L516.476 656.479L475.267 657.031H461.26L456.794 656.479H409.292L404.826 657.031H400.157L397.112 656.479H380.263L375.797 657.031L370.113 661.08L366.865 667.521L366.256 671.018V679.116L364.226 682.612L361.79 690.158L360.978 698.256L359.76 701.753L357.324 710.035L357.933 714.084V718.685L355.903 723.286L354.685 730.279L356.512 735.616L362.399 737.273H367.474L373.97 737.825H379.654L384.12 737.273L393.255 737.825H427.765L427.156 747.211L425.938 755.861L424.72 760.094L422.69 767.64V771.136L422.081 775.185V778.682L421.472 782.179L418.224 791.381L417.006 795.614L416.397 799.663V804.264L414.976 807.209V812.914L411.728 819.355L412.54 823.404L410.51 832.238L409.292 835.735V839.784L406.653 843.281L405.435 847.33V852.667L403.405 858.372V866.47L402.187 869.967L398.939 876.96L400.157 881.009L398.939 885.242L396.3 893.892L393.255 901.99L391.834 906.223L391.225 910.272L392.443 915.977L389.398 921.867L388.586 929.964L387.368 933.461L386.15 941.007L385.541 945.056L384.12 949.289L382.293 957.939L380.263 964.932V969.533L377.218 981.864L377.827 986.465L377.218 990.514L373.97 998.612V1002.84L373.361 1010.94L371.94 1014.44L371.331 1023.09L370.113 1027.14L365.647 1039.47L364.835 1051.62L363.617 1060.45L369.504 1065.05H373.97L379.654 1066.71Z" fill="#DDBC04"/>
<path d="M635.267 1066.15L640.342 1065.6L649.883 1065.05L655.77 1064.5L662.063 1065.05L664.093 1059.9L665.92 1055.66L666.732 1048.67L667.341 1044.62V1041.13L667.95 1037.08L668.559 1029.53V1026.03L669.777 1021.98L669.168 1018.49L671.198 1010.39V1005.61L672.416 1002.11L673.025 997.507L675.664 985.361L676.882 980.576V968.429L679.521 963.828L680.739 955.546V952.049L681.957 943.951L685.205 936.406V926.467L687.235 914.321L687.844 909.535L689.671 901.438L691.092 897.941L691.701 895.732L696.167 896.284L698.806 898.493L701.242 903.278L702.663 907.879L705.099 912.48L706.52 918.369L708.347 926.467L709.565 929.412L710.377 937.51L712.813 945.056L714.234 952.785L715.452 956.834L718.091 963.828L718.7 967.877L722.557 978.367V985.361L724.993 991.066L727.023 997.507L727.632 1001.56L729.459 1005.05V1009.1L731.489 1013.15L732.707 1020.88L734.128 1022.54L735.955 1027.14V1031.92L739.812 1040.57L741.842 1047.01L743.06 1049.96L744.887 1056.95L746.308 1059.9L751.992 1065.05L755.849 1065.6L761.736 1065.05H766.811L773.916 1064.5H782.239L798.885 1062.66L812.486 1061H820.809L827.711 1059.9L830.959 1059.16L832.989 1051.62L828.523 1040.57L827.102 1035.42L826.493 1031.37L825.884 1024.38L821.418 1014.44L819.997 1006.34L813.095 985.361L811.674 977.815L808.629 968.981V965.484L805.99 957.938L804.772 953.337L802.742 949.288L801.524 941.007L800.103 937.51L798.276 929.964L796.246 926.467L795.028 918.922L794.419 914.321L791.78 910.824L790.562 903.278V897.941L787.314 889.291L785.487 884.506V879.353L789.953 878.8L798.885 874.752L811.674 867.206L823.854 855.427L830.959 847.881L832.989 844.385L838.064 836.839L840.703 831.686L842.53 827.453L848.417 819.907L851.462 812.914L853.492 808.865L854.71 805.368L856.131 801.319L858.567 794.325L860.597 788.62L861.815 779.234L863.845 769.848V765.799L863.033 757.149L863.845 753.1L865.672 744.818V740.217L863.845 729.175V725.126L862.424 714.083L860.597 704.697L856.131 696.599L851.462 689.606L849.026 686.661L845.778 683.164L843.139 680.772L835.425 676.723L832.38 675.066L828.523 673.226L822.636 669.729L818.17 668.625L812.486 666.232L805.381 663.472L800.103 662.183H789.953L782.848 661.079L773.307 660.527L764.781 659.239H759.097L749.556 658.135L744.278 657.03L737.985 657.582L733.316 658.135H705.708L667.341 657.582H658.206L651.913 658.687L647.447 663.472L644.808 666.232L645.417 672.674L642.778 677.275V682.06L642.169 686.109L641.56 690.71L638.921 707.09L637.094 716.292L635.267 723.285L633.846 727.334V730.831L633.237 738.561V742.058L632.628 745.554L630.598 753.652L628.771 762.854L626.741 771.136L626.132 774.633L625.523 782.731L622.884 789.724L622.275 793.221V797.27L621.666 800.767L620.448 808.313L619.839 812.361L619.027 815.858V819.907L615.982 832.238V836.839L614.561 844.937L613.343 852.667L612.734 855.979L611.313 862.421L610.095 866.47V869.966L608.268 873.463L606.847 877.696L606.238 884.506L606.847 888.003L605.629 891.499L602.381 895.732V900.885L601.772 905.487L601.163 909.535L598.524 917.817V922.418L597.915 931.252L596.697 936.958V942.295L593.449 952.785V961.435L590.81 966.036L591.419 970.821L590.81 974.87L589.592 979.471L588.983 987.569L586.953 992.354L587.562 996.403L585.735 1001V1005.05L583.705 1013.15L583.096 1017.38V1020.88L581.269 1024.93V1028.98L579.848 1032.48V1036.52L579.239 1042.97L578.63 1048.67L576.803 1054.56V1059.9L578.021 1063.39L583.705 1064.5L603.802 1065.6H612.125L635.267 1066.15ZM718.7 826.349L707.738 825.244L708.347 820.643L707.738 816.41L708.347 812.361L710.377 803.159L711.595 797.822L710.986 792.669L712.813 787.332L714.234 778.682V774.633L716.061 765.247L717.279 760.646L718.091 753.1L718.7 744.266L719.918 735.064L721.948 730.831L723.775 724.574L729.459 722.733L744.887 723.285L759.097 725.126L764.781 728.07L769.45 732.119L772.495 737.272L774.525 749.603L775.134 762.302L774.525 771.688L772.495 776.289V780.89L768.029 789.172L767.42 792.669L766.202 797.27L762.954 804.816L758.488 808.313L755.849 811.809L751.383 816.41L746.917 818.803L740.421 822.3L736.564 824.692L728.85 826.349H718.7Z" fill="#DDBC04"/>
<path d="M904.068 1066.16L909.346 1065.6L927.21 1066.16L931.067 1063.95L933.706 1059.9L935.533 1056.95L937.563 1050.51L941.42 1041.68L947.713 1030.64L950.352 1023.64L952.179 1019.59L953.6 1015.54L958.066 1008L961.314 1001.56H978.569L1006.79 1002.11L1017.14 1003.4L1031.15 1003.95L1031.96 1008.55V1035.97L1031.15 1041.68L1031.96 1047.57L1032.57 1058.06L1033.79 1063.95L1036.42 1065.6H1045.97L1054.29 1066.16L1060.78 1065.6L1065.25 1065.05L1072.96 1065.6H1078.04L1092.25 1065.05H1101.18L1106.46 1065.6L1110.93 1065.05C1113.36 1065.05 1115.39 1065.6 1117.83 1065.05C1121.08 1063.39 1120.47 1058.06 1119.86 1055.67V1043.52L1119.25 1030.64V1025.48L1118.64 1020.88L1119.25 1012.6V1003.95L1118.64 999.901L1117.83 992.355V988.858L1116.61 966.589L1117.22 962.54L1116.61 954.442L1117.22 945.792L1116.61 936.958V932.909L1116 906.223V888.739L1115.39 883.954L1114.78 876.961V854.324L1113.36 847.882L1112.75 838.68V835.183L1112.14 827.453L1112.75 824.141L1112.14 815.859V804.264L1110.93 796.166V783.283L1111.53 779.235L1110.93 770.585V762.303L1109.5 750.708L1108.9 743.162V735.065L1108.29 714.084V703.593L1107.07 700.097V687.214L1105.04 662.184L1100.57 659.239L1097.32 658.135H1087.17L1081.29 658.687L1076.82 657.583H1071.14L1058.75 658.135H1048.6L1042.11 658.687L1029.93 658.135H1023.64L1018.97 658.687L1016.53 665.129L1014.5 668.626L1012.67 672.674L1006.79 683.165L1002.32 690.711L998.463 701.201L997.245 704.146L994.606 707.642L990.749 714.084L989.531 718.133L988.313 721.63L986.283 725.126L985.065 729.175L979.178 739.666L977.351 743.715L975.321 749.604L971.464 754.757L969.637 758.254L966.389 765.8L961.314 778.13L958.675 781.627L955.427 785.676L953.6 793.774L949.743 801.32L948.322 804.264L946.495 811.81L943.247 815.859L941.42 823.405L939.39 826.901L935.533 833.343L932.285 843.281L927.819 850.827L925.992 855.428L920.714 871.808L918.887 875.304L915.639 883.402L913.812 886.899L911.782 890.948L911.173 894.445L907.316 902.727L906.098 906.775L902.241 913.769L898.993 918.37L897.775 923.523L896.354 927.756L891.888 935.854L890.061 939.903L886.813 947.449L884.783 950.945L884.174 954.994L882.956 958.491L879.708 965.485L876.46 969.534L875.242 973.03L870.167 983.521L867.528 991.067L860.423 1005.05L857.175 1012.05L853.318 1019.04L847.025 1036.52L841.747 1044.07L837.89 1051.06L837.281 1054.56L836.063 1058.61L837.281 1063.39L843.168 1064.5L890.061 1065.05L894.527 1065.6L904.068 1066.16ZM1010.03 925.916L1004.35 925.364L997.245 924.812H992.17L987.501 921.315L989.531 917.266L990.749 911.929L992.17 907.88L995.215 897.941L997.854 893.893L1001.1 885.243L1001.71 881.01L1005.57 868.311L1007.4 862.974L1009.43 858.925L1011.25 853.771L1013.89 849.723L1014.5 845.674L1017.14 839.784L1019.78 835.183L1022.82 825.797L1024.85 819.908L1028.1 810.706L1030.54 803.16L1035.82 801.32L1036.42 814.755L1035.82 835.735L1035 857.82L1035.82 871.808L1034.39 876.409V886.347L1033.79 890.396V905.487L1033.18 910.272L1033.79 914.873L1033.18 922.971L1029.32 925.916H1010.03Z" fill="#DDBC04"/>
<path d="M1171.06 1066.16H1239.27L1246.17 1063.95L1248.2 1058.06L1250.84 1051.06L1252.67 1040.57L1253.89 1037.08V1029.53L1254.7 1025.48L1256.53 1017.94L1259.17 1001L1260.38 996.955L1260.99 993.459L1262.21 985.361L1264.85 973.582L1267.49 964.932L1268.71 956.834L1269.32 953.338L1268.71 949.289L1269.93 945.056L1271.96 938.062L1270.74 934.013L1272.56 926.468L1273.78 922.971L1276.42 900.334L1280.89 872.359L1281.5 857.82L1282.92 847.882L1283.53 841.44L1284.14 829.846L1284.74 813.65H1286.77L1290.63 835.735L1294.49 856.716L1296.32 872.911L1299.56 891.5L1302.2 907.879L1303.42 918.922L1306.06 930.516V939.35L1306.67 942.847L1308.5 950.945L1309.1 954.442L1311.13 962.54V966.036L1312.96 974.87L1314.99 981.312L1315.6 989.962L1316.82 998.06L1317.43 1001.56L1320.07 1013.89L1320.68 1017.38L1322.1 1029.53L1322.71 1033.03L1323.31 1040.02L1323.92 1042.97L1327.17 1051.06L1332.25 1060.45L1337.52 1064.5H1348.28L1356.61 1065.05H1369.6L1373.46 1064.5L1379.75 1065.05L1384.21 1064.5L1396.6 1065.05H1399.03L1406.14 1063.95L1415.07 1063.39L1421.57 1059.16L1427.25 1052.17L1430.5 1033.58L1432.53 1026.03L1433.75 1021.99V1018.49L1436.99 1010.94V1001.56L1439.43 993.459L1441.46 988.858L1442.68 981.312L1443.29 973.582L1444.1 967.325L1446.54 960.331L1449.17 954.994L1450.39 949.289L1451.81 941.007L1454.25 932.909V929.412L1454.86 925.915L1455.67 921.866L1456.28 918.37L1456.89 913.032L1458.11 907.879L1460.14 899.781L1461.96 896.285V888.739L1462.57 885.242L1463.18 881.009L1464.6 877.696L1465.21 873.464L1466.43 869.967L1465.82 864.814L1467.04 860.213L1468.46 851.931L1470.29 844.385L1471.71 840.336L1473.53 832.79L1474.75 828.189L1475.56 824.14L1476.17 817.699L1478 812.362L1480.64 794.878L1481.86 790.829V783.283L1483.28 779.234L1484.5 774.633L1486.32 769.296L1487.74 760.094L1490.18 750.708L1492.21 738.561L1493.43 733.776L1495.46 723.285L1497.29 717.028L1501.14 703.041L1502.36 694.759L1504.39 682.06L1503.78 677.275L1505.61 669.177V664.576L1505 659.975L1501.14 658.135L1492.21 656.478L1483.28 657.03H1476.78L1461.96 656.478H1455.67L1451 657.03L1437.6 655.742L1425.42 658.135L1422.78 659.975L1417.71 668.073L1415.07 680.22L1413.24 689.606L1412.63 693.103V698.256L1410.6 703.041L1409.39 707.09L1407.36 715.188L1406.75 719.789L1405.53 728.071L1404.11 731.567L1403.5 735.616L1401.67 743.162V746.659L1399.64 757.149L1400.45 761.198L1396.6 768.192V772.241L1395.79 779.234V786.228L1393.35 793.773V797.27L1391.93 805.368L1390.71 808.865L1390.1 817.147L1389.49 821.748L1388.88 825.797L1388.07 829.294L1386.24 837.391V857.268L1384.21 869.415L1382.39 897.389V905.487L1381.17 919.474L1380.36 931.253H1378.53L1376.5 918.37L1374.67 902.726L1373.46 895.733L1372.03 891.5V887.451L1370.82 874.752L1368.18 861.317L1366.35 845.673L1365.13 840.888L1363.71 832.79L1363.1 823.404L1361.28 813.65L1359.85 803.712L1358.03 794.878L1357.42 788.62V784.387L1355.39 778.13V774.633L1353.56 767.087L1352.14 758.253L1351.53 754.204L1350.31 749.603L1347.67 737.825L1345.85 729.727L1343.82 719.789L1341.99 710.587L1339.35 696.599L1336.71 688.502L1336.1 682.06L1334.89 675.067L1332.25 669.177L1331.64 665.128L1327.78 659.975L1320.68 658.135H1311.74L1302.2 657.583L1294.49 658.135L1282.31 657.583L1273.78 658.135H1268.1L1257.14 657.583L1248.2 658.135L1241.71 659.239L1237.85 665.68L1236.02 668.625L1234.6 672.122L1232.78 679.668V684.269L1230.75 691.998L1229.53 698.808L1228.31 706.538L1227.7 710.587L1226.28 714.083L1225.67 718.132L1225.06 721.629L1224.45 725.678L1223.84 733.224L1222.42 738.561L1219.99 743.714V747.763L1216.74 764.143L1215.52 767.64L1214.71 771.688V778.682L1212.88 783.835L1210.85 790.277L1209.63 797.822L1208.42 801.871V805.92L1206.39 810.153V814.754L1204.56 819.355L1203.95 824.14V832.238L1202.53 837.943L1201.31 842.729L1198.06 849.722L1197.45 855.427L1196.85 863.709L1196.24 867.758L1195.63 871.255L1192.38 878.249V881.745L1191.77 885.242L1190.96 892.788L1189.74 896.285L1189.13 900.334L1187.91 907.327L1185.88 913.769L1184.67 918.922L1183.24 925.915L1180.81 935.302L1179.39 942.847L1180.2 946.896L1179.39 950.393L1177.56 957.387L1176.95 961.435L1176.34 968.429L1173.7 972.478V980.024L1172.49 984.809V988.858L1170.46 998.06L1169.24 1003.4L1167.21 1011.49L1165.99 1014.44L1164.16 1022.54L1163.35 1026.59L1160.91 1034.87L1159.49 1044.07V1053.46L1158.28 1058.06L1161.52 1065.05L1171.06 1066.16Z" fill="#DDBC04"/>
<path d="M1611.44 1072.6L1618.54 1072.04L1623.01 1071.49H1630.11L1634.58 1070.94L1640.47 1071.49L1644.93 1070.94L1653.25 1068.55L1658.33 1068L1668.07 1065.05L1671.93 1062.66L1679.64 1061L1685.33 1056.95L1691.82 1053.46L1696.9 1049.41L1700.15 1047.01L1705.22 1041.68L1708.47 1039.47L1711.72 1033.58L1715.58 1031.37L1721.26 1021.43L1724.51 1013.15L1725.73 1008L1727.15 1003.4L1729.58 995.851V987.017L1730.19 983.52L1732.22 975.423V959.043L1732.83 954.994L1732.22 950.945L1732.83 947.448L1733.44 939.35L1732.22 935.854L1728.97 925.915L1728.36 921.867L1727.76 917.265L1727.15 913.033L1723.29 900.886L1719.43 893.34L1714.15 881.745L1713.55 878.801L1707.86 872.359L1703.4 862.421L1695.68 855.427L1692.43 850.274L1686.55 844.385L1684.72 841.44L1681.47 839.784L1679.64 836.287L1673.15 831.686L1669.29 829.294L1666.65 826.349L1664.22 821.748L1660.97 818.803L1658.33 815.306L1650.01 805.92L1642.9 797.822L1638.44 790.277L1635.8 785.676L1630.72 777.394L1626.26 766.351L1625.65 762.302V754.757L1626.26 746.659L1628.29 740.77L1628.89 736.721L1631.33 730.831L1633.36 726.782L1636.61 722.733L1643.51 719.789L1651.22 717.58L1659.55 718.685L1666.04 723.286L1671.93 728.623L1673.76 732.12L1674.98 739.113V752.364L1673.15 770.584L1671.93 775.185L1672.54 782.731L1677.61 786.78H1686.55L1695.68 787.332H1731.61L1743.18 786.78L1750.9 783.283L1753.33 770.584L1755.97 754.205L1756.58 744.266L1755.97 732.672V719.789L1752.12 705.802L1750.09 701.753L1748.87 695.311L1746.43 691.998L1741.76 685.557L1739.94 682.612L1733.44 676.171L1731.61 673.778L1724.51 668.073L1719.43 666.233L1714.97 662.736L1707.25 659.239L1704.61 657.583L1700.15 657.031L1689.19 654.086L1679.64 653.534L1673.76 652.245H1669.29L1653.25 651.693H1633.36L1622.4 654.638L1610.22 657.031L1603.11 660.527L1592.96 664.024L1581.39 671.57L1573.68 677.275L1569.82 680.772L1565.96 686.661L1563.93 689.054L1558.86 694.207L1556.83 697.152L1555 701.201L1552.36 705.802L1548.51 713.531L1547.9 719.237L1546.07 725.126L1543.43 729.175L1542.82 737.273L1540.79 741.322L1539.57 753.1V769.848L1538.97 774.081L1539.57 778.682L1540.18 786.228L1542.82 793.774L1544.04 798.375L1546.07 802.423L1549.12 806.656L1551.75 811.81L1555.61 820.644L1559.47 826.349L1562.72 830.398L1569.21 835.183L1575.51 841.44L1581.39 849.17L1589.11 856.716L1596.01 864.261L1598.65 867.758L1601.9 870.703L1609 878.249L1612.05 882.85L1616.71 886.899L1618.54 889.843L1619.76 892.788L1622.4 896.285L1626.86 904.383L1631.94 911.376L1637.22 919.474L1639.04 928.308V931.805L1641.68 942.295V951.497L1642.29 959.595V963.828L1641.68 969.533L1640.47 976.527L1637.83 983.52L1635.19 987.569L1631.94 992.907L1628.89 995.851L1621.79 997.508L1616.71 998.612H1610.83L1602.5 996.956L1596.01 991.066L1591.54 982.416L1589.72 976.527L1588.29 963.828V951.497L1589.11 947.448V925.915L1583.83 917.818L1575.51 917.265H1539.57L1531.86 916.529L1516.43 917.818L1507.5 921.867L1505.47 931.253L1504.25 935.302L1503.64 939.903L1502.43 948.553L1503.03 952.786L1502.43 962.54V980.024L1503.64 989.41L1504.25 992.907L1506.28 1001L1506.89 1004.5L1511.36 1014.99L1512.58 1019.59L1517.04 1029.53L1522.93 1037.63L1529.22 1044.62L1535.72 1052.17L1543.43 1056.95L1549.93 1061L1556.83 1063.39L1567.18 1067.44L1571.65 1068.55L1578.14 1069.65L1585.25 1070.94H1591.54L1596.01 1071.49L1611.44 1072.6Z" fill="#DDBC04"/>
<path d="M1776.98 1065.6H1802.15L1806.01 1065.05L1818.8 1065.6L1834.22 1064.5L1838.69 1063.95L1843.16 1064.5L1849.65 1060.45L1852.29 1052.9L1853.51 1045.91L1855.34 1038.92L1854.73 1034.87L1855.34 1030.64V1027.14L1856.15 1023.09L1859.8 1016.1L1860.61 1012.05L1861.83 1005.05L1863.05 996.956V993.459L1863.66 985.361L1865.08 981.312L1864.47 977.079L1866.91 969.533L1868.94 962.54L1870.76 953.89L1872.79 946.344L1872.19 942.847L1874.62 936.406L1875.23 933.461L1877.26 925.363L1878.48 917.818L1879.9 911.928L1881.73 902.726L1897.15 903.831L1911.97 902.726H1935.12L1942.02 903.278H1948.51L1952.37 896.285L1954.2 888.003L1956.84 880.457V873.464L1958.87 865.918L1959.48 861.869L1960.08 858.372L1961.91 851.379V848.434L1964.55 840.336V835.735L1966.58 830.95L1967.19 826.349L1965.16 819.908L1956.23 819.355H1949.12L1940.19 819.908L1932.48 820.644L1904.26 819.908L1897.15 819.355L1898.98 813.65L1900.4 806.657V802.424L1901.01 799.111L1902.23 794.878V790.277L1904.87 785.676L1907.51 771.689V768.744L1909.33 760.646L1911.36 751.812L1911.97 747.763L1912.58 741.322L1913.8 736.721H1920.3L1946.48 736.169L1963.33 735.616L1972.26 736.169L1984.44 737.273L1994.8 736.169L2000.48 736.721L2006.37 733.776L2008.2 721.629L2010.83 711.139V707.09L2011.44 703.593L2013.27 696.047L2015.3 686.109V683.165L2016.52 675.619V669.177L2017.94 665.128L2015.91 660.527L2007.59 658.135H1999.87L1989.52 657.583H1914.41L1897.76 657.031L1874.62 656.479L1843.16 657.583L1835.44 660.527L1834.22 667.521L1833.62 671.57L1834.22 678.564L1833.01 681.508L1831.59 689.054L1829.15 699.544V704.145L1826.51 708.194L1825.9 714.636L1825.29 722.181L1824.68 726.782L1823.26 730.279L1821.44 737.825L1820.83 746.107L1818.8 749.604V753.653L1815.55 762.855L1814.94 767.088V771.136L1814.33 775.185L1814.94 778.682L1813.72 786.228L1812.3 790.277L1811.08 798.375L1809.26 802.424L1807.83 810.705V817.699L1806.01 824.693L1804.59 828.742L1802.15 835.735L1799.51 843.281L1798.9 850.827L1797.08 858.924V862.973L1794.44 870.703L1791.8 886.899V894.997L1789.97 899.229L1788.55 907.879L1789.36 911.928L1787.33 921.314L1784.08 929.412L1782.87 936.958V945.056L1780.23 952.049V956.282L1779.01 959.595V964.38L1776.98 969.533L1776.37 977.815L1775.15 981.312V986.465L1772.51 992.355L1770.08 1000.45L1769.26 1005.05L1768.66 1012.6L1768.05 1016.65L1767.44 1020.14L1764.8 1024.93L1763.58 1031.37L1762.97 1035.42L1762.36 1038.92L1762.97 1047.01L1760.33 1051.62V1058.06L1762.97 1063.95L1770.69 1065.05L1776.98 1065.6Z" fill="#DDBC04"/>
<path d="M2068.51 1065.6L2073.59 1065.05L2083.94 1064.5H2097.34L2101.2 1063.95L2109.52 1064.5L2119.87 1063.95H2180.77L2182.8 1057.51L2184.02 1052.17L2184.63 1042.41L2186.66 1033.58L2187.27 1029.53L2188.49 1026.03L2189.91 1021.99V1014.44L2192.34 1001.56L2193.15 996.956L2194.37 990.514L2194.98 988.122L2195.59 983.521L2191.12 981.864L2173.26 982.416L2159.05 981.864L2150.12 981.312H2112.16L2103.23 980.024L2100.59 977.815V973.03L2103.23 957.939L2105.05 947.448L2106.47 943.399L2107.08 937.51L2108.3 932.357L2110.33 926.468L2112.77 910.272L2114.8 902.726L2117.23 896.285H2123.12L2131.44 895.733H2138.55L2149.31 896.285L2165.55 895.733H2171.23L2180.77 894.997H2187.27L2188.49 893.892L2189.91 885.794L2191.73 876.408L2193.15 868.31L2194.98 863.709V859.476L2197.01 850.827L2198.23 846.778L2200.06 838.68L2201.48 832.238V827.453L2202.7 820.644L2198.84 815.859L2193.76 814.754H2177.12L2164.73 815.859L2142.4 815.306H2130.83L2132.05 804.816L2134.08 799.111L2133.27 794.326L2134.69 790.277L2136.52 782.179L2137.94 774.081L2139.77 762.855V758.254L2141.8 754.757V746.659L2142.4 742.61L2144.23 735.616L2159.66 735.064H2201.48L2209.19 734.328H2236.19L2242.48 733.776L2244.51 726.23L2245.12 722.734L2247.56 714.636V710.035L2249.59 701.201L2250.2 697.704L2250.81 693.655L2252.84 689.606V686.109L2254.05 671.57V668.073L2256.08 661.632L2252.84 657.583L2246.95 657.031L2240.66 656.479L2234.77 657.031H2220.76L2202.09 657.583L2197.01 657.031L2182.19 656.479L2134.08 657.031L2119.87 657.583H2113.38L2108.3 657.031H2103.83L2096.12 657.583L2091.65 657.031L2087.8 657.583H2076.84L2071.76 661.08L2071.15 664.576L2069.12 668.073L2067.29 675.067L2068.51 679.116L2067.9 682.612L2067.29 690.158L2066.48 693.655L2065.26 697.152L2064.66 704.697L2063.44 708.746L2064.05 712.243L2062.02 716.292V720.525L2060.19 723.838L2058.97 732.12L2056.33 739.665L2055.72 743.714L2056.33 747.211L2055.72 751.26L2054.3 755.861L2051.87 759.358L2051.26 771.689L2049.23 775.738L2048.62 792.117L2045.98 800.767L2044.15 808.865L2044.76 812.362L2043.54 816.411L2041.51 821.196L2037.66 838.68L2035.02 842.177V846.225L2034.41 850.274L2033.8 854.875L2031.97 858.924L2030.55 867.758L2028.12 875.856V884.506L2025.48 896.837L2024.26 900.886L2022.23 909.536L2021.62 913.769L2019.79 917.818L2017.76 925.363L2018.37 928.86L2015.94 935.854V938.798L2014.51 946.344L2013.3 950.945V954.994L2012.08 964.38L2009.44 968.981L2008.22 976.527L2007.41 984.809L2006.8 988.858L2005.58 993.459V997.508L2004.36 1001.56V1006.89L2002.33 1011.49L2001.73 1020.88L1999.09 1029.53L1997.87 1038.92L1996.65 1047.57L1995.23 1052.9L1993.4 1058.06L1995.23 1063.39L2001.12 1064.5H2035.02L2039.69 1065.05H2056.33L2068.51 1065.6Z" fill="#DDBC04"/>
<path d="M2300.96 1066.15L2306.04 1065.6L2315.58 1065.05L2321.47 1064.5L2327.76 1065.05L2329.79 1059.9L2331.62 1055.66L2332.43 1048.67L2333.04 1044.62V1041.13L2333.65 1037.08L2334.25 1029.53V1026.03L2335.47 1021.98L2334.86 1018.49L2336.89 1010.39V1005.61L2338.11 1002.11L2338.72 997.507L2341.36 985.361L2342.58 980.576V968.429L2345.22 963.828L2346.43 955.546V952.049L2347.65 943.951L2350.9 936.406V926.467L2352.93 914.321L2353.54 909.535L2355.37 901.438L2356.79 897.941L2357.4 895.732L2361.86 896.284L2364.5 898.493L2366.94 903.278L2368.36 907.879L2370.79 912.48L2372.22 918.369L2374.04 926.467L2375.26 929.412L2376.07 937.51L2378.51 945.056L2379.93 952.785L2381.15 956.834L2383.79 963.828L2384.4 967.877L2388.25 978.367V985.361L2390.69 991.066L2392.72 997.507L2393.33 1001.56L2395.15 1005.05V1009.1L2397.18 1013.15L2398.4 1020.88L2399.82 1022.54L2401.65 1027.14V1031.92L2405.51 1040.57L2407.54 1047.01L2408.76 1049.96L2410.58 1056.95L2412 1059.9L2417.69 1065.05L2421.54 1065.6L2427.43 1065.05H2432.51L2439.61 1064.5H2447.93L2464.58 1062.66L2478.18 1061H2486.5L2493.41 1059.9L2496.65 1059.16L2498.68 1051.62L2494.22 1040.57L2492.8 1035.42L2492.19 1031.37L2491.58 1024.38L2487.11 1014.44L2485.69 1006.34L2478.79 985.361L2477.37 977.815L2474.32 968.981V965.484L2471.69 957.938L2470.47 953.337L2468.44 949.288L2467.22 941.007L2465.8 937.51L2463.97 929.964L2461.94 926.467L2460.72 918.922L2460.11 914.321L2457.48 910.824L2456.26 903.278V897.941L2453.01 889.291L2451.18 884.506V879.353L2455.65 878.8L2464.58 874.752L2477.37 867.206L2489.55 855.427L2496.65 847.881L2498.68 844.385L2503.76 836.839L2506.4 831.686L2508.23 827.453L2514.11 819.907L2517.16 812.914L2519.19 808.865L2520.41 805.368L2521.83 801.319L2524.26 794.325L2526.29 788.62L2527.51 779.234L2529.54 769.848V765.799L2528.73 757.149L2529.54 753.1L2531.37 744.818V740.217L2529.54 729.175V725.126L2528.12 714.083L2526.29 704.697L2521.83 696.599L2517.16 689.606L2514.72 686.661L2511.47 683.164L2508.83 680.772L2501.12 676.723L2498.08 675.066L2494.22 673.226L2488.33 669.729L2483.87 668.625L2478.18 666.232L2471.08 663.472L2465.8 662.183H2455.65L2448.54 661.079L2439 660.527L2430.48 659.239H2424.79L2415.25 658.135L2409.97 657.03L2403.68 657.582L2399.01 658.135H2371.4L2333.04 657.582H2323.9L2317.61 658.687L2313.14 663.472L2310.5 666.232L2311.11 672.674L2308.47 677.275V682.06L2307.86 686.109L2307.26 690.71L2304.62 707.09L2302.79 716.292L2300.96 723.285L2299.54 727.334V730.831L2298.93 738.561V742.058L2298.32 745.554L2296.29 753.652L2294.47 762.854L2292.44 771.136L2291.83 774.633L2291.22 782.731L2288.58 789.724L2287.97 793.221V797.27L2287.36 800.767L2286.14 808.313L2285.53 812.361L2284.72 815.858V819.907L2281.68 832.238V836.839L2280.26 844.937L2279.04 852.667L2278.43 855.979L2277.01 862.421L2275.79 866.47V869.966L2273.96 873.463L2272.54 877.696L2271.93 884.506L2272.54 888.003L2271.32 891.499L2268.08 895.732V900.885L2267.47 905.487L2266.86 909.535L2264.22 917.817V922.418L2263.61 931.252L2262.39 936.958V942.295L2259.14 952.785V961.435L2256.51 966.036L2257.11 970.821L2256.51 974.87L2255.29 979.471L2254.68 987.569L2252.65 992.354L2253.26 996.403L2251.43 1001V1005.05L2249.4 1013.15L2248.79 1017.38V1020.88L2246.96 1024.93V1028.98L2245.54 1032.48V1036.52L2244.93 1042.97L2244.33 1048.67L2242.5 1054.56V1059.9L2243.72 1063.39L2249.4 1064.5L2269.5 1065.6H2277.82L2300.96 1066.15ZM2384.4 826.349L2373.43 825.244L2374.04 820.643L2373.43 816.41L2374.04 812.361L2376.07 803.159L2377.29 797.822L2376.68 792.669L2378.51 787.332L2379.93 778.682V774.633L2381.76 765.247L2382.97 760.646L2383.79 753.1L2384.4 744.266L2385.61 735.064L2387.64 730.831L2389.47 724.574L2395.15 722.733L2410.58 723.285L2424.79 725.126L2430.48 728.07L2435.15 732.119L2438.19 737.272L2440.22 749.603L2440.83 762.302L2440.22 771.688L2438.19 776.289V780.89L2433.72 789.172L2433.12 792.669L2431.9 797.27L2428.65 804.816L2424.18 808.313L2421.54 811.809L2417.08 816.41L2412.61 818.803L2406.12 822.3L2402.26 824.692L2394.55 826.349H2384.4Z" fill="#DDBC04"/>
<path d="M1891.72 598.477L1894.57 598.293L1904.51 598.477L1906.75 597.373L1908.17 594.98L1909.18 593.508L1910.2 589.827L1912.43 585.042L1915.88 578.969L1917.3 575.104L1918.32 572.895L1919.13 570.687L1921.57 566.454L1923.39 562.957H1932.93L1948.56 563.325L1954.05 563.877L1961.96 564.245L1962.37 566.822V581.913L1961.96 585.042L1962.37 588.355L1962.57 594.06L1963.38 597.373L1964.8 598.293H1970.08L1974.75 598.477L1978.2 598.293L1980.64 597.925L1984.9 598.293H1987.74L1995.66 597.925H2000.53L2003.37 598.293L2005.81 597.925C2007.23 597.925 2008.25 598.293 2009.67 597.925C2011.49 597.005 2011.09 594.06 2010.89 592.772V585.962L2010.48 578.969V576.024L2010.07 573.447L2010.48 569.03V564.245L2010.07 562.037L2009.67 557.804V555.779L2009.06 543.633L2009.46 541.424L2009.06 536.823L2009.46 532.038L2009.06 527.253V525.044L2008.65 510.321V500.567L2008.25 497.99L2008.04 494.125V481.611L2007.23 478.114L2006.83 472.961V471.12L2006.62 466.887L2006.83 465.047L2006.62 460.446V454.004L2005.81 449.587V442.41L2006.22 440.201L2005.81 435.416V430.999L2005.2 424.558L2004.8 420.325V415.908L2004.39 404.313V398.424L2003.78 396.583V389.406L2002.77 375.603L2000.13 374.13L1998.5 373.394H1992.82L1989.57 373.762L1987.13 373.21H1983.89L1977.19 373.394H1971.5L1968.05 373.762L1961.15 373.394H1957.7L1955.26 373.762L1953.84 377.259L1952.62 379.283L1951.61 381.492L1948.56 387.197L1945.93 391.43L1943.9 397.135L1943.08 398.792L1941.66 400.816L1939.63 404.313L1938.82 406.522L1938.21 408.362L1937.2 410.386L1936.38 412.595L1933.34 418.484L1932.12 420.693L1931.11 423.821L1929.08 426.766L1927.86 428.607L1926.23 432.839L1923.39 439.649L1921.97 441.489L1920.14 443.698L1919.13 448.299L1916.9 452.532L1916.29 454.004L1915.27 458.237L1913.45 460.446L1912.43 464.679L1911.21 466.519L1909.18 470.016L1907.36 475.537L1904.92 479.77L1903.9 482.347L1901.06 491.365L1899.84 493.205L1898.22 497.806L1895.99 501.855L1895.78 503.88L1893.55 508.297L1892.94 510.505L1890.71 514.37L1888.88 516.947L1888.27 519.891L1887.46 522.1L1885.03 526.701L1884.01 528.909L1882.18 533.142L1881.17 534.983L1880.76 537.191L1880.15 539.216L1878.33 543.08L1876.5 545.289L1875.89 547.129L1873.05 553.019L1871.63 557.068L1867.77 564.797L1865.94 568.662L1863.71 572.527L1860.26 582.097L1857.42 586.33L1855.39 590.195L1854.98 592.22L1854.17 594.428L1854.98 597.005L1858.23 597.557L1884.01 597.925L1886.45 598.293L1891.72 598.477ZM1950.19 521.179L1947.14 520.811L1943.08 520.443H1940.24L1937.81 518.603L1938.82 516.394L1940.24 511.241L1942.07 505.72L1943.49 503.511L1945.32 498.726L1945.72 496.518L1947.75 489.34L1948.77 486.396L1949.99 484.187L1951 481.426L1952.42 479.034L1952.62 476.825L1954.05 473.697L1955.47 471.12L1957.29 465.967L1958.31 462.654L1960.14 457.501L1961.56 453.452L1964.4 452.532L1964.8 459.894L1964.4 471.304L1963.99 483.635L1964.4 491.365L1963.79 493.941V499.279L1963.38 501.671V509.953L1962.98 512.53L1963.38 515.106L1962.98 519.523L1960.95 521.179H1950.19Z" fill="black"/>
<path d="M2092.5 597.925H2100.42L2103.26 597.557L2105.7 597.373L2108.94 597.925H2111.79L2113.41 597.005L2114.63 594.06L2116.66 590.563L2118.08 588.355L2120.31 584.674L2121.73 582.833L2122.34 580.993L2123.36 578.969L2124.17 577.128L2125.18 574.736L2127.01 569.95L2128.64 568.11L2129.85 565.902L2130.46 563.509L2131.48 561.301L2132.7 559.46L2136.15 553.571L2138.58 549.522L2138.99 547.129L2140.41 544.921L2143.25 539.216L2145.08 535.351L2146.5 530.75L2149.54 526.701L2150.36 524.308L2151.37 522.1L2154.21 517.867V516.026L2155.63 514.186L2156.65 512.161L2158.88 506.456L2159.29 504.432L2160.3 502.775L2161.72 500.935L2162.74 499.094L2164.57 495.414L2164.77 493.573L2165.99 491.549L2167 487.684L2168.42 485.843L2169.03 484.003L2170.86 480.138L2173.3 476.457L2175.53 472.961L2176.14 470.752L2177.96 466.519L2178.78 464.311L2180.4 460.446L2181.42 458.789L2184.05 454.74L2184.26 452.164L2185.48 449.955L2187.1 445.722L2187.91 443.698L2188.93 441.858L2189.94 440.201L2191.16 436.152L2191.77 433.76L2193.6 431.551L2195.42 428.054L2196.44 426.03L2196.84 424.19L2197.86 422.533L2198.47 419.404L2199.48 417.38L2200.29 415.908L2201.31 413.883L2203.14 412.043L2204.15 408.362L2204.96 406.522L2206.59 402.289L2207.81 400.08L2209.23 398.24L2210.24 396.215L2210.65 393.271L2211.66 391.062L2212.68 389.222L2213.08 387.013L2214.1 384.437L2216.13 380.756L2216.53 378.915V375.603L2213.08 374.682H2208.41L2204.56 374.314H2199.48L2198.06 374.13L2195.63 374.314H2187.1L2185.07 374.682L2182.63 374.314H2180.2L2177.96 373.762L2175.12 374.314L2171.27 373.394L2168.02 374.13L2164.16 375.971L2161.72 380.204L2156.45 393.271L2154.21 397.503L2153.2 399.712L2151.78 404.313L2151.37 406.522L2150.76 408.362L2150.36 410.754L2147.51 414.803L2146.7 416.828L2145.69 418.668L2144.67 421.061L2144.27 422.901L2143.25 427.318L2142.24 429.711L2141.83 431.551L2138.58 438.361L2137.97 440.569L2136.96 444.802L2135.54 447.563L2134.12 449.219L2133.3 450.876L2131.27 454.74L2130.87 456.581L2130.06 458.789L2129.45 459.894L2129.04 461.734L2128.43 463.758L2127.01 467.255L2126 469.464L2124.78 470.752L2124.17 472.961L2122.75 477.194L2121.94 479.402L2120.92 481.611L2119.5 484.923L2119.09 486.764L2118.49 488.972L2116.66 492.285L2116.05 494.125L2114.22 496.518L2113.21 500.567L2112.4 502.591L2111.38 505.168L2108.94 509.217L2108.54 511.241L2107.93 513.082L2106.71 515.106L2105.29 516.394L2104.28 516.762L2103.87 515.106L2104.28 512.161V508.665L2103.87 505.168L2104.68 501.303L2105.09 498.726V496.518L2105.29 491.549L2105.09 489.708L2105.29 488.42L2105.7 486.212V483.635L2106.1 480.138V477.746L2105.7 475.537V473.329L2106.1 470.752V463.943L2106.51 461.734V460.078L2106.71 456.029L2105.7 454.004L2106.1 452.164V449.587L2106.51 446.643V442.226L2107.52 436.336V429.711L2107.93 427.318V425.11L2107.12 422.901V420.693L2107.52 418.116V415.908L2107.93 413.515V411.307L2108.13 409.098V404.681L2107.93 402.289L2108.54 400.08V395.295L2109.35 392.718V386.277L2108.94 382.412V381.86L2109.35 377.627L2108.13 375.418L2105.7 373.762L2103.26 373.394H2081.54L2077.28 373.21L2071.8 373.394L2069.16 373.762L2064.89 373.394L2060.63 374.682L2059.62 375.971L2058.6 378.547V381.86L2058.19 383.7L2058.6 385.909L2058.19 388.301L2058.6 390.51L2058.19 392.35V394.559L2057.79 396.951L2058.19 398.792L2058.6 403.393L2058.19 405.601L2058.6 407.81L2058.19 412.227L2057.79 414.251V428.054L2057.59 430.263L2057.79 432.471L2058.19 435.048V445.354L2059.01 448.667L2057.79 452.716V456.949L2058.6 459.157L2058.19 463.39L2057.79 465.231V469.464L2058.19 472.04V478.85L2059.01 481.058L2058.6 483.267V485.843L2057.79 490.26V494.493L2058.19 496.702V500.935L2057.79 503.143L2059.01 505.168L2058.6 507.376V509.585L2058.19 511.793L2059.01 513.818V518.235L2058.6 520.443V523.02L2058.19 525.412V529.829L2059.01 532.038L2058.6 534.615L2059.01 536.823V541.424L2058.6 543.633V548.234L2059.21 550.442V552.651L2059.01 554.859V560.748L2059.21 563.325V568.11L2059.01 570.319V575.104L2059.62 579.337V581.545L2060.02 583.754L2060.43 585.778L2060.02 589.275L2060.63 592.404L2061.85 596.084L2066.11 597.557H2066.72L2070.37 597.373H2078.09L2080.93 597.557H2088.64L2092.5 597.925Z" fill="black"/>
<path d="M2267.16 601.789L2270.81 601.053L2275.28 600.869H2280.56L2285.23 599.765L2289.49 599.213L2293.75 598.292L2302.89 596.268L2305.53 595.348L2311.21 592.219L2316.49 587.986L2321.77 582.097L2322.38 580.256L2323.59 578.416L2325.22 576.392L2326.64 574.551L2327.86 572.159L2329.48 568.294L2331.71 563.325L2332.73 561.3L2333.34 559.092L2333.74 556.883L2334.76 553.018L2336.99 544.92L2337.6 543.08L2338.82 536.27L2339.02 534.982L2339.43 532.774L2340.24 531.117L2340.44 527.62L2341.26 523.388V521.179L2341.86 519.155V515.658L2340.44 513.449L2338.01 511.241L2333.74 510.873L2316.49 509.952H2308.98L2299.84 509.584L2297 509.952L2294.57 512.529L2293.75 515.658L2291.93 519.891L2291.72 522.099L2290.91 525.044L2289.9 529.829L2288.88 533.694L2288.48 535.35L2288.07 537.191L2286.65 541.424L2284.82 545.841L2281.98 551.73L2280.56 553.202L2275.69 556.147H2270.41L2264.72 556.883L2259.45 555.227L2256.6 553.018L2255.18 548.233V545.841L2254.78 544V540.687L2255.18 536.27L2256.2 531.853V529.277L2257.21 522.467L2257.01 520.259L2257.62 517.866L2258.03 515.658V513.081L2258.43 510.873L2259.45 508.664V501.855L2260.46 497.07L2261.07 494.493L2261.88 490.26L2262.29 488.052L2263.71 482.898L2263.91 480.322L2266.75 467.623L2268.58 462.654L2269.39 458.237L2270 456.028L2270.41 454.004L2270.81 451.795L2271.83 448.851L2272.84 444.986L2273.86 440.201L2275.28 436.336V434.495L2277.51 428.974L2279.14 424.741L2280.56 419.404L2281.78 417.195L2282.79 415.171L2286.04 411.674L2289.9 410.386L2294.16 409.65H2298.02L2302.89 410.938L2306.95 412.963L2308.98 418.668V423.453L2308.37 428.054L2307.96 432.287L2305.73 439.28L2305.12 443.697L2303.7 449.587L2302.89 451.795V456.212L2305.53 459.893L2315.68 461.181L2338.01 461.365L2343.08 461.181L2347.35 460.813L2348.77 459.525L2350.39 451.243L2351.2 448.667L2353.23 436.152L2354.04 430.999L2354.65 426.029L2355.47 423.453L2355.67 420.324V413.331L2355.47 408.361L2355.06 405.601L2354.65 401.368L2354.25 397.503L2353.64 394.006L2351.81 390.693L2351.2 388.485L2349.98 387.013L2348.36 384.068L2347.55 382.412L2343.69 379.283L2339.02 375.97L2334.15 374.314L2330.29 373.762L2328.87 372.841L2326.44 372.473L2323.8 371.921L2321.77 371.553L2316.69 370.817H2313.24L2309.99 369.897L2301.26 368.977H2295.58L2288.88 369.345H2283.4L2280.96 369.529L2276.5 370.633L2270.41 371.553L2262.9 374.314L2260.87 375.418L2256.2 377.258L2254.17 378.915L2249.09 383.332L2246.25 386.645L2243.82 389.773L2241.38 391.798L2239.96 395.295L2237.73 399.712L2236.1 403.576L2233.87 409.098L2232.45 413.515L2230.42 419.956L2227.78 426.398L2226.76 430.631L2225.75 432.839L2225.34 435.048L2224.94 437.072L2224.33 439.28L2223.92 441.489L2222.91 443.513L2222.5 446.642L2221.89 450.139L2221.08 452.531L2219.46 458.789V463.39L2218.24 465.23V467.255L2218.03 471.12L2216.82 474.248L2216.21 477.745L2215.19 481.426V482.714L2214.79 483.635V488.052L2213.37 490.076L2212.35 495.781L2212.55 497.438L2211.54 500.934L2210.93 503.511L2211.13 506.456L2209.71 510.873L2209.1 517.682L2208.7 519.523V521.731L2208.09 526.332L2207.68 530.749L2207.28 533.326L2207.07 540.135V548.417L2206.67 550.626V553.57L2207.07 556.147V562.22L2207.68 564.613L2208.29 568.662L2209.1 570.686L2210.12 574.735L2213.37 578.968L2215.8 583.385L2217.63 585.041L2219.05 586.698L2223.72 589.827L2225.75 591.115L2227.58 592.403L2231.03 594.428L2233.26 596.084L2237.52 597.372L2241.99 598.845L2244.22 599.213L2246.66 599.765L2250.11 600.133L2252.34 600.501L2255.18 600.869L2259.04 601.053L2261.48 601.421H2263.91L2267.16 601.789Z" fill="black"/>
<path d="M2392.94 598.477H2402.07L2405.93 597.557L2407.15 594.796L2407.35 592.219L2408.57 587.987L2409.18 583.385L2410.19 579.337L2411.62 571.607L2412.83 568.11V565.902L2413.44 561.669L2414.25 557.068L2415.27 552.651V550.074L2416.69 545.841L2416.89 543.264L2418.11 538.479L2417.71 534.983L2419.53 531.854V527.253L2419.74 525.596L2420.55 521.179V518.603L2421.97 514.186V511.609L2423.39 507.008L2424 503.143L2424.81 499.094L2425.83 494.861V492.285L2426.84 490.076L2428.26 485.475L2430.09 475.905L2431.1 472.592L2431.92 468.543V466.335L2432.32 463.758L2432.52 461.366V458.605L2433.54 455.661L2434.76 451.244L2434.96 449.587L2436.18 445.354L2437.19 441.489L2437.8 437.44L2438.21 435.048L2438.61 431.183L2439.02 428.975L2439.63 425.11L2440.44 423.269L2441.05 419.772L2442.88 411.307L2443.28 409.466V407.074L2443.49 405.233V402.657L2444.91 399.712L2445.72 395.295L2446.73 393.639V390.694L2447.75 389.406L2447.55 387.565L2447.75 384.068L2448.56 383.148V378.915L2448.97 376.891L2447.55 373.762L2443.49 372.842L2441.05 373.21H2422.37L2419.74 373.394H2414.86L2411.62 373.21L2406.34 373.394L2403.9 373.762L2401.67 375.05L2399.23 375.971L2396.8 379.283L2396.39 381.492L2395.78 383.332L2394.97 388.301L2393.55 391.798L2392.94 395.295L2392.53 399.16L2391.92 401L2391.52 403.025L2390.5 407.074L2389.69 411.675L2389.08 413.331L2388.68 417.38L2388.27 419.956L2388.68 422.165L2387.26 426.398L2386.85 428.606L2385.83 432.839L2385.43 434.864L2384.01 438.545L2384.41 440.937L2384.01 442.778L2383.4 447.379L2382.18 449.587V454.004L2381.17 460.814L2379.34 465.231L2378.32 469.464L2377.71 473.329V477.562L2376.29 480.138L2375.48 484.555V486.764L2374.06 491.365V495.782L2373.45 500.383L2373.05 502.223L2372.64 504.432L2372.03 506.64V508.665L2371.22 513.45L2368.78 520.443L2369.19 522.836L2368.38 525.044L2368.17 526.885L2367.36 529.277V531.486L2366.75 535.351L2365.94 538.111L2364.93 541.056L2364.11 544.001L2363.1 547.497L2362.08 553.203L2362.49 555.227L2361.07 559.46L2360.66 561.669L2360.05 564.245L2359.65 566.454L2358.63 571.239L2358.23 573.815L2357.41 578.416L2356.81 580.625L2356.4 585.41L2354.57 589.827L2354.98 594.796L2357.82 597.005L2360.66 597.557L2363.5 597.373L2365.94 597.557L2369.8 597.925L2372.44 597.557H2375.28L2380.15 598.293H2390.5L2392.94 598.477Z" fill="black"/>
<mask id="mask1_25_2" style="mask-type:luminance" maskUnits="userSpaceOnUse" x="671" y="0" width="454" height="406">
<path d="M671.263 0H1124.82V405.49H671.263V0Z" fill="white"/>
</mask>
<g mask="url(#mask1_25_2)">
<path d="M1128.01 105.732C1128.62 108.493 1128.11 111.391 1126.64 114.336C1119.64 128.645 1090.71 144.243 1060.01 157.448C1054.43 159.886 1048.79 162.187 1043.21 164.349C1008.34 178.198 975.966 187.907 975.966 187.907L971.449 223.427L987.537 218.504C994.185 216.525 1001.39 219.746 1003.62 225.773C1005.86 231.801 1002.25 238.334 995.606 240.359L968.252 248.686L950.084 391.963L932.372 396.242L902.429 297.503L894.309 270.725L890.554 271.876C886.494 273.118 882.079 272.428 878.678 270.081C870.457 264.422 872.588 252.781 882.332 249.791L887.509 248.226L879.186 220.712L865.788 225.129L792.556 249.377L762.004 314.481L757.741 319.082L750.992 326.398L749.621 319.22L733.432 235.297L676.135 167.938L695.522 167.34L770.124 197.937L837.622 173.597L844.422 171.159L856.602 166.742L836.15 136.191L826.304 139.182C822.244 140.424 817.829 139.734 814.429 137.387C806.258 131.774 808.339 120.087 818.083 117.097L822.447 115.762L749.165 6.25749L764.491 -0.22998L898.674 93.2632C899.537 92.7571 900.399 92.343 901.414 92.0209L931.357 82.9108C938.056 80.8864 945.212 84.1531 947.445 90.1805C949.678 96.2079 946.125 102.695 939.477 104.766L922.577 109.873L953.788 131.636C953.788 131.636 983.071 121.053 1017.73 111.299C1021.95 110.103 1026.26 108.907 1030.57 107.756C1075.54 95.8398 1124.26 87.4659 1128.01 105.732Z" fill="#DDBC04"/>
</g>
<mask id="mask2_25_2" style="mask-type:luminance" maskUnits="userSpaceOnUse" x="0" y="203" width="1061" height="1264">
<path d="M0 203H1060.02V1466.91H0V203Z" fill="white"/>
</mask>
<g mask="url(#mask2_25_2)">
<path d="M670.56 309.836C670.56 309.836 662.338 312.689 646.91 317.98C631.229 323.317 609.609 331.047 581.747 341.261C553.987 351.706 520.137 364.405 482.531 380.554C444.875 396.704 402.854 415.568 359.259 439.034C315.817 462.499 270.295 490.013 227.614 523.877C185.238 557.924 145.5 597.954 116.624 645.988C88.2543 693.011 72.6233 749.052 73.5876 806.611C74.1966 835.413 78.7133 864.584 86.7318 893.386C94.9533 922.097 106.727 950.347 121.293 977.586C150.474 1032.11 191.429 1081.94 238.271 1125.28C249.995 1136.09 262.225 1146.49 274.659 1156.52L276.943 1158.41C276.283 1157.9 277.146 1158.54 277.146 1158.54L277.755 1159L278.973 1159.97L283.946 1163.65L293.792 1171.06C300.389 1175.98 306.936 1180.91 313.483 1185.83C326.627 1194.8 339.721 1203.68 352.763 1212.51C366.364 1220.89 379.915 1229.17 393.313 1237.41C447.92 1269.38 503.795 1296.16 558.098 1319.21C564.898 1322.07 571.597 1324.96 578.296 1327.82C585.097 1330.49 591.847 1333.15 598.495 1335.78C611.944 1340.98 624.986 1346.45 638.181 1351.05C651.326 1355.84 664.216 1360.53 676.904 1365.18C689.693 1369.5 702.228 1373.74 714.56 1377.88C726.842 1382.16 739.022 1385.88 750.897 1389.61C762.823 1393.29 774.394 1397.06 785.813 1400.42C808.651 1407 830.219 1413.67 850.722 1419.1C871.225 1424.71 890.409 1430.01 908.273 1434.42C926.086 1438.98 942.478 1443.3 957.348 1446.75C972.218 1450.34 985.464 1453.52 997.035 1456.32C1008.66 1458.95 1018.5 1461.16 1026.47 1463C1042.46 1466.63 1051.03 1468.56 1051.03 1468.56C1051.03 1468.56 1042.35 1467.04 1026.22 1464.15C1018.1 1462.67 1008.15 1460.92 996.426 1458.81C984.702 1456.6 971.254 1454.02 956.181 1451.12C941.108 1448.36 924.513 1444.82 906.395 1441.09C888.227 1437.46 868.739 1433.04 847.88 1428.4C827.022 1423.93 804.997 1418.27 781.702 1412.71C770.03 1409.9 758.205 1406.63 746.025 1403.46C733.896 1400.28 721.411 1397.11 708.825 1393.38C696.138 1389.79 683.247 1386.07 670.103 1382.34C657.06 1378.29 643.764 1374.15 630.264 1369.92C616.663 1365.87 603.164 1360.99 589.309 1356.34C582.356 1354 575.404 1351.6 568.349 1349.21C561.397 1346.64 554.444 1344.06 547.39 1341.44C490.956 1320.64 432.39 1295.98 374.281 1265.7C359.97 1257.84 345.455 1249.92 330.89 1241.92C316.579 1233.17 302.216 1224.39 287.702 1215.55C280.901 1210.95 274.05 1206.35 267.25 1201.7L256.947 1194.8L251.822 1191.3L248.777 1189.23L246.188 1187.3C232.435 1177.32 218.834 1166.87 205.69 1155.92C153.164 1112.07 105.814 1060.54 70.0858 1001.79C52.2726 972.432 37.2506 941.421 26.0348 909.122C15.0221 876.777 7.81557 843.189 5.17657 809.325C0.101569 741.414 14.6668 672.905 46.3348 613.459C50.3948 605.913 54.7086 597.724 58.5656 591.696L64.4526 581.988L65.2138 580.792L65.5691 580.194C65.2138 580.746 66.5333 578.767 66.5333 578.721L68.3096 576.191L71.8621 571.175C76.6326 564.504 81.4031 557.832 86.1228 551.207C90.8933 544.581 96.3236 538.6 101.399 532.343C121.749 507.313 144.688 485.55 167.424 464.891C213.505 424.264 261.819 391.827 307.444 364.221C353.169 336.66 396.713 314.529 435.537 295.619C474.411 276.663 508.921 261.801 537.29 249.517C565.863 237.462 588.751 228.076 603.621 222.232C618.693 216.205 626.712 212.984 626.712 212.984L670.56 309.836Z" fill="#DDBC04"/>
</g>
</svg>
