<svg width="6649" height="1800" viewBox="0 0 6649 1800" fill="none" xmlns="http://www.w3.org/2000/svg">
<path d="M179.883 186.797H382.617V1020H179.883V186.797ZM921.68 186.797V1020H719.531V704.766H483.984V502.031H719.531V186.797H921.68Z" fill="#1E90FF"/>
<path d="M1382.81 1020C1355.08 1020 1331.25 1010.04 1311.33 990.117C1291.41 970.195 1281.45 946.367 1281.45 918.633V288.164C1281.45 260.43 1291.41 236.602 1311.33 216.68C1331.25 196.758 1355.08 186.797 1382.81 186.797H1484.18V1020H1382.81ZM1585.55 186.797H1933.59V389.531H1585.55V186.797ZM1585.55 502.031H1899.61V704.766H1585.55V502.031ZM1585.55 817.266H1933.59V1020H1585.55V817.266ZM2944.92 557.109L2721.09 818.438L2293.95 322.148V272.344C2293.95 246.172 2303.32 223.711 2322.07 204.961C2340.82 186.211 2363.48 176.836 2390.04 176.836C2418.55 176.836 2442.97 188.164 2463.28 210.82L2721.09 510.234L2978.32 210.82C2998.63 188.164 3023.05 176.836 3051.56 176.836C3077.73 176.836 3100.2 186.211 3118.95 204.961C3138.09 223.711 3147.66 246.172 3147.66 272.344V1020H2944.92V557.109ZM2293.95 476.25L2496.68 711.797V1020H2293.95V476.25ZM3729.49 236.602C3736.91 219.414 3748.63 205.547 3764.65 195C3781.05 184.453 3799.22 179.18 3819.14 179.18C3838.67 179.18 3855.86 184.453 3870.7 195C3885.94 205.547 3897.27 219.414 3904.69 236.602L3931.05 297.539L3621.09 1020H3394.92L3729.49 236.602ZM3873.63 690.117L3986.13 427.031L4239.26 1020H4014.26L3873.63 690.117ZM4341.21 186.797H5061.91V389.531H4341.21V186.797ZM4600.2 490.898H4802.93V1020H4600.2V490.898ZM5769.73 186.797H6490.43V389.531H5769.73V186.797ZM6028.71 490.898H6231.45V1020H6028.71V490.898Z" fill="white"/>
<path d="M1986.54 1318.3C1990.25 1309.71 1996.11 1302.77 2004.11 1297.5C2012.32 1292.23 2021.4 1289.59 2031.36 1289.59C2041.12 1289.59 2049.72 1292.23 2057.14 1297.5C2064.76 1302.77 2070.42 1309.71 2074.13 1318.3L2087.32 1348.77L1932.34 1710H1819.25L1986.54 1318.3ZM2058.61 1545.06L2114.86 1413.52L2241.42 1710H2128.92L2058.61 1545.06ZM2927.84 1710C2913.98 1710 2902.06 1705.02 2892.1 1695.06C2882.14 1685.1 2877.16 1673.18 2877.16 1659.32V1344.08C2877.16 1330.21 2882.14 1318.3 2892.1 1308.34C2902.06 1298.38 2913.98 1293.4 2927.84 1293.4H2978.53V1710H2927.84ZM3029.21 1293.4H3203.23V1394.77H3029.21V1293.4ZM3029.21 1451.02H3186.24V1552.38H3029.21V1451.02ZM3029.21 1608.63H3203.23V1710H3029.21V1608.63ZM3709.48 1716.15C3702.26 1716.15 3695.42 1714.49 3688.98 1711.17C3682.73 1708.05 3677.36 1704.04 3672.86 1699.16L3383.41 1368.4V1334.71C3383.41 1321.62 3388.1 1310.39 3397.47 1301.02C3406.85 1291.45 3418.18 1286.66 3431.46 1286.66C3438.68 1286.66 3445.52 1288.22 3451.96 1291.35C3458.41 1294.28 3463.78 1298.38 3468.08 1303.65L3655.87 1523.67V1293.4H3757.24V1668.4C3757.24 1681.48 3752.55 1692.71 3743.18 1702.09C3733.8 1711.46 3722.57 1716.15 3709.48 1716.15ZM3383.41 1445.45L3484.78 1561.46V1710H3383.41V1445.45ZM4092.69 1713.81C4057.53 1709.71 4025.5 1697.79 3996.59 1678.07C3967.69 1658.14 3944.84 1632.66 3928.04 1601.6C3911.44 1570.35 3903.14 1536.66 3903.14 1500.53C3903.14 1464.59 3911.44 1431.09 3928.04 1400.04C3944.84 1368.79 3967.69 1343.2 3996.59 1323.28C4025.5 1303.36 4057.53 1291.35 4092.69 1287.25V1389.79C4067.1 1395.84 4046.01 1409.22 4029.41 1429.92C4012.8 1450.43 4004.5 1473.96 4004.5 1500.53C4004.5 1527.09 4012.8 1550.72 4029.41 1571.43C4046.2 1592.13 4067.3 1605.51 4092.69 1611.56V1713.81ZM4203.72 1426.41C4187.12 1407.66 4167 1395.45 4143.37 1389.79V1287.25C4170.32 1290.18 4195.52 1298.09 4218.96 1310.98C4242.59 1323.67 4263.2 1339.98 4280.77 1359.9L4203.72 1426.41ZM4143.37 1611.56C4156.46 1608.63 4168.57 1603.55 4179.7 1596.33C4190.83 1589.1 4200.3 1580.31 4208.12 1569.96L4288.68 1631.19C4271.5 1654.04 4250.3 1672.7 4225.11 1687.15C4199.91 1701.6 4172.67 1710.49 4143.37 1713.81V1611.56ZM4373.35 1293.4H4493.76L4563.49 1412.93L4504.31 1513.12L4373.35 1293.4ZM4542.1 1577.29L4534.78 1564.1L4691.81 1293.4H4812.22L4643.47 1577.29V1710H4542.1V1577.29Z" fill="white"/>
<path d="M2331.65 1500.53C2331.65 1464.59 2339.95 1431.09 2356.55 1400.04C2373.35 1368.79 2396.2 1343.2 2425.11 1323.28C2454.02 1303.36 2486.05 1291.35 2521.2 1287.25V1389.79C2495.62 1395.84 2474.52 1409.22 2457.92 1429.92C2441.32 1450.43 2433.02 1473.96 2433.02 1500.53C2433.02 1527.09 2441.32 1550.72 2457.92 1571.43C2474.72 1592.13 2495.81 1605.51 2521.2 1611.56V1713.81C2485.85 1709.71 2453.72 1697.79 2424.82 1678.07C2396.11 1658.14 2373.35 1632.66 2356.55 1601.6C2339.95 1570.35 2331.65 1536.66 2331.65 1500.53ZM2627.84 1421.13C2612.22 1405.51 2593.57 1395.06 2571.89 1389.79V1287.25C2596.69 1289.79 2620.13 1296.62 2642.2 1307.75C2664.46 1318.89 2684 1333.24 2700.79 1350.82L2627.84 1421.13ZM2731.26 1502.29V1605.41C2731.26 1608.73 2730.29 1611.86 2728.33 1614.79C2711.14 1641.74 2688.88 1664.1 2661.54 1681.88C2634.19 1699.45 2604.31 1710.1 2571.89 1713.81V1611.56C2594.35 1606.68 2613.68 1595.45 2629.89 1577.87V1502.29H2731.26Z" fill="#1E90FF"/>
<path d="M5306 1020V217H5525V1020H5306Z" fill="white"/>
</svg>
